{"glyphs":{"0":{"ha":890,"x_min":93,"x_max":796,"o":"m 439 -12 q 244 42 321 -12 q 130 204 167 96 q 93 476 93 313 q 132 758 93 646 q 253 926 171 869 q 458 982 335 982 q 653 931 579 982 q 762 774 728 879 q 796 506 796 668 q 757 218 796 333 q 638 45 718 103 q 439 -12 558 -12 m 443 76 q 575 122 524 76 q 651 260 626 168 q 678 494 676 353 q 654 728 679 642 q 579 854 629 815 q 454 893 529 893 q 317 848 371 893 q 237 712 263 803 q 211 482 211 621 q 236 253 211 343 q 313 120 261 164 q 443 76 364 76 z "},"1":{"ha":564,"x_min":24,"x_max":547,"o":"m 386 61 l 361 92 l 547 63 l 547 0 l 76 0 l 76 63 l 297 90 l 272 61 l 272 874 l 303 871 l 61 731 l 24 801 l 293 974 l 386 974 l 386 61 z "},"2":{"ha":756,"x_min":60,"x_max":693,"o":"m 60 0 l 60 99 q 333 358 224 247 q 495 557 442 469 q 549 724 549 644 q 490 853 549 811 q 343 894 432 894 q 253 885 303 894 q 153 858 204 875 l 168 881 l 149 713 l 78 713 l 65 929 q 220 968 144 954 q 360 982 296 982 q 519 956 450 982 q 629 877 589 931 q 669 739 669 824 q 615 547 669 643 q 455 338 561 450 q 192 78 349 225 l 190 93 l 693 93 l 693 0 l 60 0 z "},"3":{"ha":792,"x_min":56,"x_max":700,"o":"m 349 -11 q 197 8 272 -11 q 56 67 122 28 l 89 150 q 216 97 150 115 q 346 79 282 79 q 469 101 415 79 q 553 167 522 122 q 583 278 583 211 q 559 374 583 332 q 482 442 535 417 q 342 467 429 467 l 226 467 l 226 551 l 343 551 q 508 597 453 551 q 563 726 563 643 q 506 858 563 818 q 358 897 449 897 q 261 888 311 897 q 163 863 211 878 l 179 881 l 163 717 l 93 717 l 82 928 q 236 967 158 953 q 383 982 314 982 q 535 958 468 982 q 641 882 603 935 q 679 743 679 829 q 621 583 679 642 q 446 508 563 525 l 442 517 q 636 445 572 508 q 700 275 700 382 q 673 149 700 203 q 597 59 646 94 q 485 6 549 24 q 349 -11 421 -11 z "},"4":{"ha":811,"x_min":17,"x_max":789,"o":"m 508 268 l 538 243 l 31 243 l 17 325 l 489 985 l 622 969 l 622 311 l 592 333 l 789 333 l 789 243 l 592 243 l 622 268 l 622 0 l 508 0 l 508 268 m 540 333 l 510 311 l 510 915 l 547 908 l 111 294 l 89 333 l 540 333 z "},"5":{"ha":742,"x_min":63,"x_max":679,"o":"m 340 -11 q 63 57 203 -11 l 94 140 q 213 96 154 111 q 325 81 271 81 q 448 107 396 81 q 529 183 500 133 q 558 299 558 232 q 520 415 558 372 q 405 475 482 457 q 211 493 328 493 l 121 493 l 140 969 l 636 969 l 635 879 l 218 879 l 251 901 l 236 553 l 206 579 l 288 579 q 510 547 424 579 q 638 452 596 514 q 679 300 679 390 q 635 133 679 203 q 515 26 592 63 q 340 -11 439 -11 z "},"6":{"ha":815,"x_min":83,"x_max":754,"o":"m 183 404 l 179 486 q 320 558 246 533 q 467 582 394 582 q 612 551 547 582 q 715 457 676 519 q 754 300 754 394 q 713 134 754 204 q 596 26 671 64 q 425 -12 521 -12 q 247 33 324 -12 q 126 176 169 79 q 83 422 83 272 q 139 719 83 594 q 297 913 194 844 q 539 982 400 982 q 690 963 611 982 l 681 878 q 613 888 646 885 q 550 892 579 892 q 354 834 432 892 q 238 672 276 776 q 200 421 200 567 q 258 162 200 246 q 426 78 317 78 q 581 136 524 78 q 638 296 638 194 q 610 410 638 365 q 537 477 582 456 q 433 499 492 499 q 308 475 374 499 q 183 404 242 451 z "},"7":{"ha":697,"x_min":33,"x_max":672,"o":"m 672 888 l 296 0 l 171 0 l 557 896 l 575 876 l 107 876 l 133 897 l 104 729 l 33 729 l 33 969 l 672 969 l 672 888 z "},"8":{"ha":835,"x_min":85,"x_max":746,"o":"m 404 -11 q 285 6 343 -11 q 183 55 228 22 q 111 136 138 88 q 85 249 85 185 q 108 356 85 310 q 171 434 132 401 q 254 488 210 467 q 339 519 299 508 l 410 483 q 342 457 379 474 q 272 415 306 440 q 218 351 239 389 q 197 263 197 314 q 226 161 197 204 q 303 95 254 118 q 413 72 353 72 q 524 97 475 72 q 603 165 574 121 q 633 265 633 208 q 605 358 633 321 q 530 418 576 394 q 427 460 483 442 q 315 499 371 479 q 212 547 258 519 q 137 619 165 575 q 108 729 108 663 q 154 870 108 814 q 273 954 200 926 q 428 982 346 982 q 578 956 510 982 q 690 876 647 929 q 733 743 733 822 q 710 645 733 686 q 651 576 688 604 q 571 530 614 547 q 486 503 528 513 l 407 540 q 485 565 446 550 q 555 601 524 579 q 605 656 586 624 q 624 733 624 689 q 596 825 624 789 q 523 880 568 861 q 424 899 478 899 q 323 880 369 899 q 248 825 276 861 q 219 735 219 789 q 248 646 219 681 q 324 588 276 611 q 427 547 371 565 q 539 509 483 529 q 641 460 594 489 q 717 385 688 431 q 746 271 746 340 q 717 150 746 203 q 639 61 688 97 q 530 7 590 25 q 404 -11 469 -11 z "},"9":{"ha":814,"x_min":58,"x_max":731,"o":"m 631 571 l 635 489 q 494 416 568 442 q 346 390 421 390 q 201 422 265 390 q 99 514 136 453 q 60 667 61 575 q 101 835 58 765 q 218 944 143 906 q 389 982 293 982 q 568 936 490 982 q 688 794 646 890 q 731 549 731 699 q 676 253 731 379 q 519 58 621 128 q 275 -11 417 -11 q 124 8 203 -11 l 133 92 q 202 81 169 85 q 263 78 235 78 q 460 135 382 78 q 576 299 538 193 q 614 549 614 404 q 556 808 614 724 q 388 892 499 892 q 234 834 292 892 q 176 675 176 776 q 203 560 176 604 q 276 494 231 515 q 376 474 321 474 q 506 499 440 474 q 631 571 571 524 z "},"\u0000":{"ha":0,"x_min":0,"x_max":0,"o":""},"\r":{"ha":278,"x_min":0,"x_max":0,"o":""}," ":{"ha":278,"x_min":0,"x_max":0,"o":""}," ":{"ha":278,"x_min":0,"x_max":0,"o":""},"A":{"ha":985,"x_min":6,"x_max":978,"o":"m 879 61 l 847 89 l 978 60 l 978 0 l 617 0 l 617 60 l 761 88 l 750 68 l 676 290 l 697 274 l 272 274 l 292 290 l 213 71 l 206 86 l 347 60 l 347 0 l 6 0 l 6 60 l 133 89 l 104 64 l 443 968 l 558 972 l 879 61 m 307 339 l 296 357 l 675 357 l 663 338 l 481 903 l 507 901 l 307 339 z "},"B":{"ha":896,"x_min":68,"x_max":807,"o":"m 508 489 l 517 501 q 676 472 611 500 q 774 390 742 443 q 807 263 807 338 q 770 126 807 185 q 655 33 733 67 q 454 0 576 0 l 68 0 l 68 60 l 206 89 l 188 64 l 188 903 l 210 876 l 68 903 l 68 963 l 297 969 l 469 969 q 636 942 569 969 q 736 861 703 914 q 769 732 769 808 q 708 569 769 632 q 508 489 647 507 m 446 886 l 281 886 l 301 907 l 301 517 l 281 536 l 411 536 q 547 557 493 536 q 628 618 601 578 q 654 717 654 658 q 631 811 654 774 q 561 867 607 849 q 446 886 515 886 m 446 83 q 582 106 528 83 q 663 169 636 128 q 690 269 690 210 q 666 369 690 328 q 595 432 642 410 q 483 454 549 454 l 281 454 l 301 476 l 301 64 l 281 83 l 446 83 z "},"C":{"ha":897,"x_min":85,"x_max":831,"o":"m 486 -12 q 283 44 375 -12 q 138 211 192 101 q 85 481 85 321 q 139 750 85 638 q 290 922 193 863 q 517 982 388 982 q 661 965 586 982 q 817 913 736 949 l 807 694 l 739 694 l 714 867 l 735 844 q 623 880 679 868 q 518 892 567 892 q 353 844 422 892 q 245 707 283 796 q 207 494 207 618 q 247 269 207 361 q 358 130 288 178 q 515 82 428 82 q 649 110 579 82 q 785 194 719 138 l 831 126 q 660 22 749 56 q 486 -12 571 -12 z "},"D":{"ha":997,"x_min":68,"x_max":915,"o":"m 482 969 q 653 941 575 969 q 790 855 732 913 q 882 709 849 797 q 915 500 915 621 q 856 225 915 336 q 694 57 797 114 q 460 0 592 0 l 68 0 l 68 60 l 207 89 l 188 64 l 188 903 l 207 876 l 68 903 l 68 963 l 329 969 l 482 969 m 464 85 q 586 106 528 85 q 692 173 644 126 q 766 298 739 219 q 793 490 793 376 q 767 678 793 603 q 696 799 740 754 q 596 865 651 844 q 479 885 540 885 l 281 885 l 301 906 l 301 64 l 281 85 l 464 85 z "},"E":{"ha":863,"x_min":68,"x_max":769,"o":"m 700 228 l 769 228 l 769 0 l 68 0 l 68 60 l 206 89 l 188 64 l 188 903 l 206 878 l 68 903 l 68 963 l 300 969 l 753 969 l 753 750 l 683 750 l 658 903 l 682 885 l 281 885 l 301 906 l 301 517 l 281 538 l 651 538 l 651 454 l 281 454 l 301 478 l 301 64 l 281 85 l 700 85 l 675 64 l 700 228 z "},"F":{"ha":783,"x_min":68,"x_max":742,"o":"m 68 0 l 68 60 l 203 88 l 188 68 l 188 903 l 207 878 l 68 903 l 68 963 l 300 969 l 740 969 l 742 749 l 672 749 l 647 900 l 671 885 l 281 885 l 301 906 l 301 507 l 281 526 l 638 526 l 638 442 l 281 442 l 301 461 l 301 68 l 285 88 l 451 60 l 451 0 l 68 0 z "},"G":{"ha":1025,"x_min":83,"x_max":979,"o":"m 528 -11 q 293 44 393 -11 q 138 208 193 99 q 83 475 83 317 q 139 749 83 636 q 298 922 194 863 q 543 982 401 982 q 701 965 618 982 q 868 911 783 947 l 858 694 l 789 694 l 765 865 l 783 846 q 663 879 725 867 q 544 892 600 892 q 364 843 440 892 q 247 702 288 794 q 206 478 206 610 q 294 183 206 286 q 542 79 383 79 q 652 91 594 79 q 772 126 710 103 l 757 100 l 757 400 l 778 379 l 636 397 l 636 460 l 979 467 l 979 404 l 849 378 l 864 400 l 864 63 q 689 7 774 25 q 528 -11 604 -11 z "},"H":{"ha":1106,"x_min":68,"x_max":1039,"o":"m 68 0 l 68 60 l 206 89 l 188 64 l 188 904 l 210 878 l 68 903 l 68 963 l 422 969 l 422 910 l 282 878 l 301 904 l 301 515 l 281 536 l 825 536 l 804 515 l 804 904 l 825 878 l 685 903 l 685 963 l 1039 969 l 1039 910 l 900 878 l 918 904 l 918 64 l 900 89 l 1039 60 l 1039 0 l 685 0 l 685 60 l 822 89 l 804 64 l 804 471 l 825 451 l 281 451 l 301 471 l 301 64 l 283 89 l 422 60 l 422 0 l 68 0 z "},"I":{"ha":489,"x_min":68,"x_max":422,"o":"m 422 910 l 286 879 l 301 899 l 301 68 l 286 88 l 422 60 l 422 0 l 68 0 l 68 60 l 203 88 l 188 68 l 188 899 l 206 878 l 68 903 l 68 963 l 422 969 l 422 910 z "},"J":{"ha":460,"x_min":-29,"x_max":408,"o":"m 42 963 l 408 969 l 408 910 l 272 878 l 288 904 l 288 76 q 274 -44 288 8 q 233 -131 261 -96 q 159 -183 204 -165 q 50 -201 114 -201 q 11 -199 31 -201 q -29 -194 -8 -197 l -19 -111 q 4 -113 -7 -112 q 28 -114 15 -114 q 140 -73 107 -114 q 174 56 174 -32 l 174 904 l 190 881 l 42 903 l 42 963 z "},"K":{"ha":985,"x_min":68,"x_max":964,"o":"m 868 64 l 833 88 l 964 60 l 964 0 l 618 0 l 618 60 l 742 88 l 736 67 l 456 476 l 492 454 l 281 454 l 301 478 l 301 64 l 283 90 l 419 60 l 419 0 l 68 0 l 68 60 l 204 88 l 188 64 l 188 904 l 203 881 l 68 903 l 68 963 l 419 969 l 419 910 l 285 879 l 301 907 l 301 518 l 281 539 l 493 539 l 460 518 l 693 903 l 704 883 l 571 903 l 571 963 l 908 969 l 908 910 l 775 879 l 804 901 l 547 488 l 547 519 l 868 64 z "},"L":{"ha":768,"x_min":68,"x_max":731,"o":"m 661 247 l 731 247 l 731 0 l 68 0 l 68 60 l 204 88 l 188 64 l 188 903 l 204 878 l 68 903 l 68 963 l 438 969 l 438 910 l 286 878 l 301 903 l 301 64 l 281 85 l 654 85 l 635 64 l 661 247 z "},"M":{"ha":1238,"x_min":68,"x_max":1171,"o":"m 1171 910 l 1032 878 l 1050 908 l 1050 64 l 1032 89 l 1171 60 l 1171 0 l 825 0 l 825 60 l 967 89 l 944 64 l 944 843 l 963 842 l 647 253 l 571 247 l 265 844 l 282 846 l 282 64 l 265 88 l 403 60 l 403 0 l 68 0 l 68 60 l 207 89 l 188 64 l 188 908 l 207 878 l 68 903 l 68 963 l 328 969 l 629 360 l 613 360 l 924 963 l 1171 969 l 1171 910 z "},"N":{"ha":1100,"x_min":68,"x_max":1050,"o":"m 713 963 l 1050 969 l 1050 910 l 911 878 l 929 904 l 929 0 l 801 0 l 268 849 l 285 850 l 285 64 l 264 89 l 404 60 l 404 0 l 68 0 l 68 60 l 208 89 l 188 64 l 188 904 l 203 879 l 68 903 l 68 963 l 324 969 l 850 135 l 833 133 l 833 904 l 853 879 l 713 903 l 713 963 z "},"O":{"ha":1035,"x_min":83,"x_max":951,"o":"m 503 -12 q 288 42 383 -12 q 138 205 193 96 q 83 475 83 314 q 117 697 83 601 q 213 856 151 792 q 353 951 274 919 q 525 982 433 982 q 692 952 614 982 q 828 862 769 922 q 919 711 886 801 q 951 501 951 621 q 892 223 951 338 q 732 48 833 108 q 503 -12 631 -12 m 510 78 q 669 122 596 78 q 785 257 742 165 q 829 494 829 349 q 788 721 829 633 q 677 850 747 808 q 519 892 607 892 q 363 849 435 892 q 249 716 292 807 q 206 479 206 625 q 247 251 206 340 q 356 120 288 163 q 510 78 425 78 z "},"P":{"ha":828,"x_min":68,"x_max":776,"o":"m 406 371 l 276 371 l 301 392 l 301 64 l 282 88 l 454 60 l 454 0 l 68 0 l 68 60 l 208 89 l 188 64 l 188 904 l 211 878 l 68 903 l 68 963 l 304 969 l 461 969 q 638 933 568 969 q 742 833 707 897 q 776 685 776 769 q 735 521 776 592 q 610 410 693 450 q 406 371 528 371 m 444 885 l 281 885 l 301 906 l 301 435 l 276 456 l 406 456 q 594 517 528 456 q 660 682 660 578 q 605 831 660 776 q 444 885 550 885 z "},"Q":{"ha":1047,"x_min":83,"x_max":1122,"o":"m 929 -242 q 826 -215 882 -242 q 686 -136 769 -189 q 472 -1 603 -83 l 503 -12 q 288 44 382 -11 q 138 207 193 99 q 83 475 83 315 q 117 697 83 601 q 213 855 151 792 q 356 950 274 918 q 531 982 438 982 q 702 952 624 982 q 839 862 781 922 q 931 712 897 801 q 964 501 964 622 q 916 249 964 356 q 783 78 868 142 q 590 -3 699 14 l 592 10 q 749 -78 688 -43 q 853 -131 811 -114 q 931 -149 894 -149 q 999 -135 964 -149 q 1081 -94 1033 -121 l 1122 -165 q 1017 -222 1061 -201 q 929 -242 972 -242 m 206 479 q 246 251 206 340 q 357 120 286 163 q 517 78 428 78 q 682 123 608 78 q 799 260 756 168 q 842 494 842 353 q 800 719 842 632 q 688 849 758 807 q 526 892 617 892 q 363 848 436 892 q 248 713 290 804 q 206 479 206 622 z "},"R":{"ha":914,"x_min":68,"x_max":886,"o":"m 68 0 l 68 60 l 206 89 l 188 64 l 188 903 l 211 876 l 68 903 l 68 963 l 306 969 l 468 969 q 706 904 625 969 q 786 715 786 839 q 715 529 786 601 q 497 442 643 457 l 496 456 q 584 431 550 450 q 642 381 618 413 q 688 304 665 350 l 804 68 l 769 92 l 886 60 l 886 0 l 715 0 l 588 274 q 537 366 561 333 q 477 413 513 399 q 376 426 442 426 l 281 425 l 301 444 l 301 64 l 283 89 l 444 60 l 444 0 l 68 0 m 301 478 l 281 508 l 413 508 q 603 559 536 508 q 669 708 669 610 q 615 840 669 794 q 454 885 561 885 l 281 885 l 301 906 l 301 478 z "},"S":{"ha":833,"x_min":97,"x_max":740,"o":"m 221 733 q 249 647 221 681 q 323 592 276 614 q 425 554 369 571 q 536 517 481 538 q 638 467 592 497 q 712 390 683 438 q 740 269 740 342 q 691 110 740 172 q 560 17 642 47 q 381 -12 478 -12 q 239 2 311 -12 q 97 46 167 17 l 106 274 l 174 274 l 197 96 l 183 119 q 285 86 232 97 q 388 75 338 75 q 507 95 453 75 q 594 155 561 115 q 628 254 628 194 q 599 344 628 310 q 525 400 571 378 q 424 439 479 422 q 313 474 368 456 q 211 522 257 493 q 137 598 165 551 q 108 717 108 644 q 152 865 108 806 q 272 953 196 924 q 440 982 347 982 q 576 968 506 982 q 715 925 647 954 l 704 707 l 635 707 l 614 874 l 631 857 q 540 885 589 875 q 443 894 492 894 q 335 878 386 894 q 252 827 283 863 q 221 733 221 792 z "},"T":{"ha":813,"x_min":38,"x_max":775,"o":"m 211 0 l 211 60 l 372 89 l 350 58 l 350 906 l 375 885 l 107 885 l 135 908 l 107 732 l 38 732 l 38 969 l 775 969 l 775 732 l 706 732 l 678 906 l 706 885 l 438 885 l 463 906 l 463 58 l 442 89 l 601 60 l 601 0 l 211 0 z "},"U":{"ha":1040,"x_min":40,"x_max":1001,"o":"m 647 963 l 1001 969 l 1001 910 l 864 879 l 881 908 l 881 367 q 872 261 881 315 q 842 158 864 207 q 779 71 819 110 q 674 10 739 32 q 515 -12 610 -12 q 342 14 410 -12 q 236 84 274 40 q 183 177 199 128 q 164 272 168 226 q 160 351 160 318 l 160 908 l 176 879 l 40 903 l 40 963 l 394 969 l 394 910 l 258 879 l 274 908 l 274 351 q 276 278 274 317 q 291 204 279 240 q 329 140 303 168 q 401 94 356 111 q 517 76 446 76 q 635 94 589 76 q 709 143 682 113 q 749 212 736 174 q 764 290 761 250 q 767 367 767 329 l 767 908 l 781 881 l 647 903 l 647 963 z "},"V":{"ha":963,"x_min":7,"x_max":957,"o":"m 414 -1 l 111 900 l 142 878 l 7 903 l 7 963 l 374 969 l 374 910 l 222 881 l 236 910 l 492 100 l 474 100 l 747 903 l 758 879 l 610 903 l 610 963 l 957 969 l 957 910 l 822 881 l 851 903 l 533 -1 l 414 -1 z "},"W":{"ha":1422,"x_min":7,"x_max":1415,"o":"m 1074 963 l 1415 969 l 1415 910 l 1282 881 l 1311 911 l 1053 -1 l 943 -1 l 700 829 l 721 828 l 464 -1 l 354 -1 l 115 904 l 131 882 l 7 903 l 7 963 l 361 969 l 361 910 l 215 881 l 232 904 l 431 104 l 407 104 l 665 964 l 769 969 l 1017 107 l 993 107 l 1210 903 l 1222 881 l 1074 903 l 1074 963 z "},"X":{"ha":968,"x_min":31,"x_max":939,"o":"m 850 61 l 813 88 l 939 60 l 939 0 l 578 0 l 578 60 l 717 86 l 718 65 l 460 450 l 489 451 l 228 63 l 221 89 l 364 60 l 364 0 l 31 0 l 31 60 l 157 88 l 124 61 l 433 511 l 432 476 l 143 903 l 174 883 l 49 903 l 49 963 l 403 969 l 403 910 l 271 882 l 278 900 l 513 547 l 485 551 l 719 900 l 728 881 l 593 903 l 593 963 l 921 969 l 921 910 l 793 876 l 825 903 l 535 486 l 538 519 l 850 61 z "},"Y":{"ha":890,"x_min":6,"x_max":886,"o":"m 264 0 l 264 60 l 406 89 l 386 64 l 386 378 l 399 332 l 106 900 l 132 879 l 6 903 l 6 963 l 361 969 l 361 910 l 213 882 l 224 904 l 464 418 l 440 418 l 683 900 l 693 879 l 544 903 l 544 963 l 886 969 l 886 910 l 760 882 l 785 903 l 490 332 l 500 378 l 500 64 l 481 89 l 622 60 l 622 0 l 264 0 z "},"Z":{"ha":857,"x_min":61,"x_max":785,"o":"m 61 0 l 61 78 l 653 899 l 665 883 l 161 883 l 190 899 l 163 729 l 93 729 l 93 969 l 776 969 l 776 893 l 188 67 l 182 86 l 717 86 l 688 68 l 714 240 l 785 240 l 781 0 l 61 0 z "},"a":{"ha":760,"x_min":71,"x_max":733,"o":"m 624 63 l 606 88 l 733 63 l 733 1 l 539 -7 l 522 126 l 532 122 q 400 22 471 56 q 263 -12 329 -12 q 126 39 182 -12 q 71 194 71 90 q 106 320 71 276 q 201 382 140 364 q 343 400 263 400 l 525 400 l 513 386 l 513 519 q 472 628 513 596 q 361 661 432 661 q 281 653 324 661 q 192 629 239 646 l 208 647 l 194 521 l 121 521 l 110 693 q 258 733 189 719 q 386 746 328 746 q 560 697 497 746 q 624 539 624 647 l 624 63 m 183 204 q 216 104 183 136 q 299 72 249 72 q 406 102 347 72 q 521 183 465 132 l 513 154 l 513 340 l 525 328 l 360 328 q 222 298 261 328 q 183 204 183 268 z "},"b":{"ha":804,"x_min":14,"x_max":738,"o":"m 347 -12 q 241 -6 297 -12 q 122 15 185 1 l 122 1007 l 144 975 l 14 1003 l 14 1063 l 233 1072 l 233 615 l 218 632 q 339 717 276 688 q 464 746 401 746 q 603 703 542 746 q 701 578 665 660 q 738 376 738 496 q 715 214 738 286 q 644 92 692 142 q 524 15 597 42 q 347 -12 450 -12 m 368 69 q 557 146 492 69 q 622 368 622 222 q 597 525 622 460 q 526 626 571 590 q 425 661 482 661 q 324 635 376 661 q 219 557 272 610 l 233 597 l 233 61 l 218 92 q 368 69 303 69 z "},"c":{"ha":713,"x_min":64,"x_max":663,"o":"m 378 -12 q 217 31 289 -12 q 105 158 146 75 q 64 358 64 242 q 92 533 64 460 q 169 653 121 606 q 281 723 218 700 q 413 746 344 746 q 531 731 468 746 q 642 689 594 715 l 636 515 l 561 515 l 543 646 l 554 633 q 481 657 519 650 q 411 664 442 664 q 287 627 339 664 q 207 524 235 590 q 179 365 179 457 q 208 206 179 271 q 288 107 238 140 q 403 74 339 74 q 508 94 453 74 q 624 157 564 115 l 663 96 q 518 14 590 40 q 378 -12 446 -12 z "},"d":{"ha":824,"x_min":67,"x_max":790,"o":"m 340 -12 q 201 30 264 -12 q 103 155 139 72 q 67 356 67 238 q 165 647 67 549 q 436 746 264 746 q 512 740 472 746 q 593 724 551 735 l 571 711 l 571 990 l 583 975 l 456 1003 l 456 1063 l 682 1072 l 682 68 l 665 88 l 790 63 l 790 1 l 596 -7 l 579 113 l 593 107 q 467 17 531 47 q 340 -12 404 -12 m 379 72 q 480 98 428 72 q 585 175 532 124 l 571 138 l 571 664 l 586 636 q 432 664 501 664 q 246 585 310 664 q 182 365 182 506 q 208 208 182 274 q 278 107 233 142 q 379 72 324 72 z "},"e":{"ha":760,"x_min":67,"x_max":692,"o":"m 383 -12 q 219 30 290 -12 q 107 154 147 72 q 67 354 67 236 q 108 563 67 475 q 226 698 150 650 q 406 746 303 746 q 566 705 503 746 q 660 592 629 664 q 692 426 692 519 q 690 396 692 411 q 686 358 689 381 l 151 358 l 151 438 l 589 438 l 576 429 q 561 544 578 492 q 504 629 544 597 q 397 661 464 661 q 278 624 326 661 q 206 521 229 586 q 182 369 182 456 q 208 212 182 278 q 285 110 235 146 q 410 74 336 74 q 522 94 461 74 q 649 156 583 114 l 689 93 q 533 14 611 40 q 383 -12 456 -12 z "},"f":{"ha":483,"x_min":51,"x_max":560,"o":"m 54 0 l 54 60 l 176 86 l 163 69 l 163 665 l 176 650 l 51 650 l 51 711 l 179 729 l 163 708 l 163 825 q 230 1017 163 956 q 407 1079 297 1079 q 481 1073 443 1079 q 560 1053 518 1067 l 542 976 q 481 992 510 986 q 424 997 451 997 q 315 958 356 997 q 274 835 274 919 l 274 708 l 256 728 l 468 728 l 465 650 l 260 650 l 274 665 l 274 71 l 260 86 l 406 60 l 406 0 l 54 0 z "},"g":{"ha":776,"x_min":43,"x_max":732,"o":"m 367 -332 q 124 -285 204 -332 q 43 -149 43 -237 q 85 -37 43 -86 q 207 47 126 11 l 208 25 q 140 44 164 28 q 117 89 117 60 q 119 111 117 100 q 130 142 122 122 q 153 197 138 163 q 194 286 169 231 l 197 267 q 106 353 138 299 q 74 483 74 408 q 153 675 74 604 q 374 746 233 746 q 536 713 468 746 l 506 719 l 724 729 l 725 663 l 596 638 l 606 654 q 650 586 635 626 q 665 494 665 546 q 583 301 665 372 q 365 231 501 231 q 222 257 288 231 l 247 269 l 211 88 l 188 101 l 460 101 q 663 49 593 101 q 732 -100 732 -3 q 640 -272 732 -212 q 367 -332 547 -332 m 376 -247 q 564 -212 503 -247 q 625 -108 625 -178 q 579 -16 625 -47 q 442 15 533 15 l 221 15 l 253 22 q 142 -128 142 -47 q 199 -217 142 -187 q 376 -247 257 -247 m 365 308 q 504 356 454 308 q 554 492 554 404 q 507 624 554 579 q 372 668 460 668 q 235 622 283 668 q 186 486 186 575 q 233 354 186 400 q 365 308 279 308 z "},"h":{"ha":861,"x_min":33,"x_max":838,"o":"m 33 0 l 33 60 l 160 88 l 143 67 l 143 997 l 160 975 l 33 1003 l 33 1063 l 254 1072 l 254 603 l 229 608 q 373 713 297 679 q 517 746 449 746 q 626 721 578 746 q 702 645 675 696 q 729 517 729 594 l 729 67 l 715 86 l 838 60 l 838 0 l 514 0 l 514 60 l 633 86 l 618 65 l 618 492 q 579 618 619 578 q 474 658 539 658 q 363 631 424 658 q 244 543 301 603 l 254 567 l 254 65 l 240 85 l 358 60 l 358 0 l 33 0 z "},"i":{"ha":414,"x_min":53,"x_max":381,"o":"m 272 71 l 260 86 l 381 60 l 381 0 l 53 0 l 53 60 l 174 86 l 161 71 l 161 657 l 172 644 l 53 669 l 53 729 l 272 738 l 272 71 m 208 888 q 156 908 176 888 q 135 965 135 929 q 156 1023 135 1003 q 210 1043 178 1043 q 264 1024 243 1043 q 285 965 285 1004 q 263 908 285 928 q 208 888 240 888 z "},"j":{"ha":376,"x_min":-57,"x_max":263,"o":"m 13 -332 q -21 -331 -4 -332 q -57 -326 -37 -329 l -47 -244 q -21 -247 -33 -246 q 1 -247 -8 -247 q 110 -210 78 -247 q 142 -82 142 -172 l 142 661 l 157 643 l 33 669 l 33 729 l 253 738 l 253 -46 q 240 -170 253 -117 q 197 -259 226 -224 q 122 -313 168 -294 q 13 -332 76 -332 m 186 888 q 133 908 154 888 q 113 965 113 929 q 134 1023 113 1003 q 188 1043 156 1043 q 242 1024 221 1043 q 263 965 263 1004 q 240 908 263 928 q 186 888 218 888 z "},"k":{"ha":788,"x_min":33,"x_max":781,"o":"m 33 0 l 33 60 l 160 88 l 143 64 l 143 994 l 154 978 l 33 1003 l 33 1063 l 254 1072 l 254 426 l 233 444 l 425 444 l 396 429 l 543 668 l 553 653 l 439 669 l 439 729 l 743 739 l 743 679 l 619 654 l 651 675 l 482 401 l 481 435 l 688 68 l 667 86 l 781 60 l 781 0 l 607 0 l 400 378 l 422 367 l 233 367 l 254 379 l 254 64 l 239 88 l 360 60 l 360 0 l 33 0 z "},"l":{"ha":396,"x_min":33,"x_max":363,"o":"m 254 71 l 242 86 l 363 60 l 363 0 l 33 0 l 33 60 l 154 86 l 143 71 l 143 990 l 154 978 l 33 1003 l 33 1063 l 254 1072 l 254 71 z "},"m":{"ha":1325,"x_min":53,"x_max":1301,"o":"m 721 607 l 706 604 q 850 710 774 675 q 993 746 926 746 q 1135 690 1078 746 q 1193 517 1193 633 l 1193 67 l 1179 86 l 1301 60 l 1301 0 l 979 0 l 979 60 l 1097 86 l 1082 65 l 1082 492 q 1045 618 1082 578 q 950 658 1008 658 q 840 629 900 658 q 721 540 779 600 l 731 567 q 733 543 732 554 q 733 521 733 532 l 733 67 l 719 86 l 835 60 l 835 0 l 521 0 l 521 60 l 639 86 l 622 65 l 622 492 q 585 618 622 578 q 490 658 549 658 q 381 631 440 658 q 263 544 321 603 l 272 565 l 272 65 l 258 85 l 374 60 l 374 0 l 53 0 l 53 60 l 178 88 l 161 67 l 161 664 l 178 643 l 53 669 l 53 729 l 247 739 l 263 603 l 247 608 q 391 713 315 679 q 535 746 467 746 q 649 712 599 746 q 721 607 699 678 z "},"n":{"ha":879,"x_min":53,"x_max":856,"o":"m 53 0 l 53 60 l 178 88 l 161 67 l 161 664 l 178 643 l 53 669 l 53 729 l 247 739 l 263 603 l 247 608 q 392 713 317 679 q 536 746 468 746 q 688 690 628 746 q 747 515 749 633 l 747 67 l 733 86 l 856 60 l 856 0 l 532 0 l 532 60 l 653 86 l 636 65 l 636 492 q 597 618 636 578 q 493 658 558 658 q 381 631 442 658 q 263 544 321 603 l 272 567 l 272 65 l 258 85 l 376 60 l 376 0 l 53 0 z "},"o":{"ha":799,"x_min":65,"x_max":735,"o":"m 408 746 q 648 650 561 746 q 735 379 735 554 q 692 173 735 261 q 572 36 650 85 q 385 -12 494 -12 q 150 81 235 -12 q 65 351 65 175 q 106 562 65 474 q 224 698 147 650 q 408 746 301 746 m 403 664 q 239 583 296 664 q 182 357 182 503 q 236 142 182 214 q 392 69 290 69 q 516 106 465 69 q 592 211 567 143 q 618 374 618 279 q 562 590 618 515 q 403 664 506 664 z "},"p":{"ha":828,"x_min":38,"x_max":761,"o":"m 38 -319 l 38 -260 l 164 -231 l 146 -251 l 146 661 l 163 643 l 38 669 l 38 729 l 232 739 l 246 618 l 233 626 q 361 716 297 686 q 488 746 425 746 q 627 703 565 746 q 725 578 689 660 q 761 379 761 497 q 717 164 761 251 q 594 31 674 76 q 408 -14 515 -14 q 328 -7 369 -14 q 240 11 286 0 l 257 26 l 257 -251 l 242 -232 l 385 -260 l 385 -319 l 38 -319 m 396 69 q 582 149 518 69 q 646 368 646 228 q 620 525 646 460 q 550 626 594 590 q 449 661 506 661 q 348 635 400 661 q 243 557 296 610 l 257 592 l 257 71 l 242 96 q 396 69 326 69 z "},"q":{"ha":803,"x_min":67,"x_max":790,"o":"m 442 -319 l 442 -257 l 586 -228 l 571 -250 l 571 104 l 593 107 q 467 16 531 46 q 340 -14 404 -14 q 201 28 264 -14 q 103 153 139 71 q 67 356 67 236 q 113 576 67 490 q 244 704 160 663 q 443 746 329 746 q 558 738 499 746 q 682 713 618 729 l 682 -250 l 665 -228 l 790 -257 l 790 -319 l 442 -319 m 379 71 q 480 97 428 71 q 585 175 532 122 l 571 138 l 571 665 l 586 636 q 432 664 501 664 q 246 585 310 664 q 182 365 182 506 q 208 207 182 272 q 278 106 233 142 q 379 71 324 71 z "},"r":{"ha":614,"x_min":53,"x_max":593,"o":"m 53 0 l 53 60 l 175 86 l 161 65 l 161 664 l 176 643 l 53 669 l 53 729 l 247 739 l 263 603 l 247 608 q 369 710 310 674 q 500 746 429 746 q 593 732 544 746 l 585 529 l 515 529 l 499 675 l 511 650 q 490 654 501 653 q 468 656 479 656 q 360 622 413 656 q 261 536 308 589 l 272 569 l 272 65 l 256 86 l 407 60 l 407 0 l 53 0 z "},"s":{"ha":664,"x_min":76,"x_max":596,"o":"m 193 556 q 222 486 193 511 q 297 445 251 461 q 394 414 343 429 q 492 376 446 399 q 567 315 538 354 q 596 213 596 276 q 556 89 596 139 q 447 13 515 39 q 293 -12 378 -12 q 188 -4 242 -12 q 76 19 133 4 l 86 206 l 157 206 l 171 69 l 158 85 q 228 71 190 76 q 297 65 265 65 q 390 80 347 65 q 458 123 432 94 q 485 194 485 151 q 456 267 485 240 q 382 310 428 293 q 285 341 336 326 q 189 378 235 356 q 114 439 143 401 q 85 542 85 476 q 122 658 85 613 q 219 724 158 703 q 349 746 279 746 q 453 736 396 746 q 569 707 510 726 l 563 550 l 492 550 l 471 665 l 488 646 q 351 667 415 667 q 238 638 283 667 q 193 556 193 610 z "},"t":{"ha":503,"x_min":18,"x_max":482,"o":"m 299 -12 q 185 33 226 -12 q 143 169 143 78 l 143 674 l 161 656 l 18 656 l 18 717 l 163 738 l 143 715 l 143 899 l 254 917 l 254 715 l 239 733 l 457 733 l 453 656 l 239 656 l 254 674 l 254 185 q 277 100 254 126 q 342 74 300 74 q 396 82 367 74 q 458 106 425 90 l 482 42 q 299 -12 383 -12 z "},"u":{"ha":861,"x_min":22,"x_max":826,"o":"m 343 -12 q 192 44 251 -12 q 132 219 132 101 l 132 663 l 146 643 l 22 669 l 22 729 l 243 738 l 243 239 q 282 115 243 156 q 386 75 321 75 q 497 103 438 75 q 615 189 557 131 l 607 164 l 607 665 l 621 643 l 497 669 l 497 729 l 718 739 l 718 68 l 701 86 l 826 63 l 826 1 l 632 -7 l 615 131 l 631 125 q 487 21 563 54 q 343 -12 411 -12 z "},"v":{"ha":732,"x_min":-7,"x_max":738,"o":"m 447 729 l 738 739 l 738 678 l 643 650 l 663 671 l 421 -3 l 290 -3 l 69 668 l 89 650 l -7 669 l -7 729 l 299 739 l 299 678 l 172 654 l 183 671 l 369 68 l 358 68 l 560 667 l 568 654 l 447 669 l 447 729 z "},"w":{"ha":1110,"x_min":-7,"x_max":1117,"o":"m 838 729 l 1117 739 l 1117 678 l 1019 654 l 1039 671 l 849 -3 l 726 -3 l 546 653 l 568 653 l 376 -3 l 254 -3 l 72 668 l 89 651 l -7 669 l -7 729 l 293 739 l 293 678 l 167 656 l 179 669 l 333 65 l 315 65 l 501 731 l 622 739 l 801 61 l 783 61 l 946 667 l 958 651 l 838 669 l 838 729 z "},"x":{"ha":769,"x_min":14,"x_max":747,"o":"m 14 0 l 14 60 l 135 82 l 104 64 l 328 389 l 354 394 l 578 729 l 733 739 l 733 678 l 614 651 l 649 674 l 431 364 l 407 358 l 169 0 l 14 0 m 438 0 l 438 60 l 540 76 l 533 60 l 336 347 l 108 674 l 136 651 l 29 669 l 29 729 l 326 739 l 326 678 l 218 658 l 228 678 l 413 408 l 653 64 l 629 81 l 747 60 l 747 0 l 438 0 z "},"y":{"ha":735,"x_min":-8,"x_max":740,"o":"m 21 -325 l 31 -243 q 62 -247 47 -246 q 89 -249 76 -249 q 199 -217 157 -249 q 271 -124 242 -186 q 331 32 300 -61 l 326 -10 l 67 667 l 82 654 l -8 669 l -8 729 l 296 739 l 296 678 l 171 657 l 179 669 l 386 79 l 361 85 l 560 667 l 568 654 l 446 669 l 446 729 l 740 739 l 740 678 l 643 656 l 663 668 l 418 -3 q 366 -132 393 -72 q 304 -237 339 -192 q 219 -307 269 -282 q 99 -332 169 -332 q 21 -325 67 -332 z "},"z":{"ha":668,"x_min":56,"x_max":608,"o":"m 607 200 l 608 1 l 56 0 l 56 67 l 489 679 l 506 656 l 122 656 l 156 682 l 138 550 l 68 550 l 67 733 l 597 733 l 597 665 l 163 47 l 157 78 l 542 79 l 510 46 l 538 200 l 607 200 z "},"¹":{"ha":383,"x_min":18,"x_max":363,"o":"m 261 533 l 246 553 l 363 531 l 363 481 l 53 481 l 53 531 l 189 551 l 174 533 l 174 990 l 199 989 l 47 900 l 18 957 l 192 1071 l 261 1071 l 261 533 z "},"²":{"ha":493,"x_min":46,"x_max":442,"o":"m 46 481 l 46 550 q 203 697 139 633 q 300 814 267 761 q 333 913 333 867 q 302 984 333 963 q 222 1006 271 1006 q 113 985 168 1006 l 125 1003 l 114 901 l 57 901 l 49 1046 q 144 1069 97 1060 q 236 1078 192 1078 q 374 1042 319 1078 q 429 928 429 1007 q 408 836 429 881 q 347 746 386 792 q 258 651 308 700 q 147 546 207 601 l 146 556 l 442 556 l 442 481 l 46 481 z "},"³":{"ha":510,"x_min":40,"x_max":447,"o":"m 226 471 q 131 483 179 471 q 40 519 83 496 l 69 581 q 144 551 106 561 q 218 542 182 542 q 313 568 274 542 q 351 651 351 594 q 322 724 351 696 q 219 753 293 753 l 142 753 l 142 815 l 215 815 q 311 842 282 815 q 340 914 340 868 q 309 988 340 967 q 228 1010 278 1010 q 174 1006 203 1010 q 117 992 146 1001 l 131 1006 l 121 910 l 64 910 l 57 1043 q 154 1068 106 1060 q 247 1076 203 1076 q 344 1062 301 1076 q 411 1015 386 1047 q 436 928 436 983 q 401 831 436 865 q 300 788 365 796 l 294 792 q 410 747 372 785 q 447 647 447 710 q 417 548 447 588 q 336 490 386 508 q 226 471 286 471 z "},"⁴":{"ha":499,"x_min":-4,"x_max":471,"o":"m 283 642 l 297 621 l 8 621 l -4 689 l 261 1078 l 375 1068 l 375 674 l 353 689 l 471 689 l 471 621 l 353 621 l 375 642 l 375 481 l 283 481 l 283 642 m 299 689 l 283 674 l 283 1024 l 299 1022 l 56 663 l 44 689 l 299 689 z "},"ª":{"ha":608,"x_min":64,"x_max":563,"o":"m 486 492 l 468 514 l 563 493 l 563 447 l 417 442 l 406 538 l 413 533 q 317 463 369 488 q 213 438 264 438 q 106 478 147 438 q 64 590 64 518 q 90 678 64 646 q 162 723 117 710 q 267 736 207 736 l 406 736 l 397 729 l 397 818 q 367 893 397 869 q 282 917 336 917 q 222 911 254 917 q 154 893 189 906 l 167 911 l 154 818 l 97 818 l 89 943 q 203 972 149 963 q 303 982 258 982 q 438 947 390 982 q 486 832 486 911 l 486 492 m 153 597 q 177 528 153 554 q 240 503 201 503 q 320 522 276 503 q 404 575 364 542 l 397 557 l 397 700 l 407 689 l 279 689 q 242 687 263 689 q 200 676 221 685 q 166 649 179 667 q 153 597 153 631 m 67 244 l 67 325 l 563 325 l 563 244 l 67 244 z "},"º":{"ha":668,"x_min":76,"x_max":592,"o":"m 321 435 q 142 506 207 435 q 76 697 76 576 q 108 846 76 782 q 200 946 140 910 q 342 982 260 982 q 525 910 458 982 q 592 721 592 839 q 560 573 592 638 q 467 472 528 508 q 321 435 406 435 m 94 244 l 94 325 l 575 325 l 575 244 l 94 244 m 328 504 q 421 531 383 504 q 477 605 458 557 q 496 715 496 653 q 455 861 496 808 q 336 914 414 914 q 213 856 254 914 q 172 703 172 799 q 212 556 172 608 q 328 504 251 504 z "},"½":{"ha":1189,"x_min":57,"x_max":1115,"o":"m 299 436 l 283 456 l 400 433 l 400 383 l 90 383 l 90 433 l 226 454 l 211 436 l 211 893 l 236 892 l 85 803 l 56 860 l 229 974 l 299 974 l 299 436 m 219 -10 l 822 979 l 914 979 l 311 -10 l 219 -10 m 719 0 l 719 69 q 876 217 813 153 q 974 333 940 281 q 1007 432 1007 386 q 976 503 1007 482 q 896 525 944 525 q 786 504 842 525 l 799 522 l 788 421 l 731 421 l 722 565 q 818 588 771 579 q 910 597 865 597 q 1048 562 993 597 q 1103 447 1103 526 q 1081 356 1103 400 q 1021 265 1060 311 q 931 170 982 219 q 821 65 881 121 l 819 75 l 1115 75 l 1115 0 l 719 0 z "},"¼":{"ha":1158,"x_min":50,"x_max":1107,"o":"m 293 436 l 278 456 l 394 433 l 394 383 l 85 383 l 85 433 l 221 454 l 206 436 l 206 893 l 231 892 l 79 803 l 50 860 l 224 974 l 293 974 l 293 436 m 215 -10 l 818 979 l 910 979 l 307 -10 l 215 -10 m 919 161 l 933 140 l 644 140 l 632 208 l 897 597 l 1011 588 l 1011 193 l 989 208 l 1107 208 l 1107 140 l 989 140 l 1011 161 l 1011 0 l 919 0 l 919 161 m 935 208 l 919 193 l 919 543 l 935 542 l 692 182 l 681 208 l 935 208 z "},"¾":{"ha":1211,"x_min":40,"x_max":1161,"o":"m 226 374 q 131 386 179 374 q 40 422 83 399 l 69 483 q 144 454 106 464 q 218 444 182 444 q 313 471 274 444 q 351 554 351 497 q 322 627 351 599 q 219 656 293 656 l 142 656 l 142 718 l 215 718 q 311 744 282 718 q 340 817 340 771 q 309 891 340 869 q 228 913 278 913 q 174 908 203 913 q 117 894 146 904 l 131 908 l 121 813 l 64 813 l 57 946 q 154 971 106 963 q 247 979 203 979 q 344 965 301 979 q 411 918 386 950 q 436 831 436 886 q 401 733 436 768 q 300 690 365 699 l 294 694 q 410 650 372 688 q 447 550 447 613 q 417 451 447 490 q 336 392 386 411 q 226 374 286 374 m 269 -10 l 872 979 l 964 979 l 361 -10 l 269 -10 m 975 161 l 989 140 l 700 140 l 688 208 l 953 597 l 1067 588 l 1067 193 l 1044 208 l 1163 208 l 1163 140 l 1044 140 l 1067 161 l 1067 0 l 975 0 l 975 161 m 990 208 l 975 193 l 975 543 l 990 542 l 747 182 l 736 208 l 990 208 z "},"ı":{"ha":414,"x_min":53,"x_max":381,"o":"m 272 71 l 260 86 l 381 60 l 381 0 l 53 0 l 53 60 l 174 86 l 161 71 l 161 657 l 172 644 l 53 669 l 53 729 l 272 738 l 272 71 z "},"ȷ":{"ha":376,"x_min":-57,"x_max":253,"o":"m 13 -332 q -21 -331 -4 -332 q -57 -326 -37 -329 l -47 -244 q -21 -247 -33 -246 q 1 -247 -8 -247 q 110 -210 78 -247 q 142 -82 142 -172 l 142 661 l 157 643 l 33 669 l 33 729 l 253 738 l 253 -46 q 240 -170 253 -117 q 197 -259 226 -224 q 122 -313 168 -294 q 13 -332 76 -332 z "},"Æ":{"ha":1314,"x_min":0,"x_max":1221,"o":"m 0 0 l 0 60 l 131 89 l 97 63 l 524 899 l 538 878 l 400 903 l 400 963 l 665 969 l 1203 969 l 1203 750 l 1133 750 l 1107 908 l 1131 885 l 738 885 l 758 906 l 758 529 l 738 549 l 1101 549 l 1101 467 l 738 467 l 758 489 l 758 64 l 738 85 l 1149 85 l 1125 63 l 1151 228 l 1221 228 l 1219 0 l 529 0 l 529 60 l 663 90 l 644 68 l 644 318 l 665 297 l 307 297 l 335 317 l 206 63 l 197 89 l 342 60 l 342 0 l 0 0 m 354 363 l 340 379 l 665 379 l 644 361 l 644 900 l 665 885 l 601 885 l 628 899 l 354 363 z "},"æ":{"ha":1206,"x_min":71,"x_max":1136,"o":"m 118 526 l 107 693 q 254 733 186 721 q 376 746 322 746 q 526 708 472 746 q 589 596 581 669 l 596 567 l 585 575 q 694 701 624 657 q 853 746 764 746 q 1062 660 988 746 q 1136 418 1136 574 q 1135 372 1136 392 q 1131 336 1133 351 l 615 336 l 628 365 l 629 343 q 692 146 631 218 q 856 74 753 74 q 1093 157 968 74 l 1133 93 q 981 15 1058 42 q 831 -12 904 -12 q 669 31 739 -12 q 563 154 599 75 l 593 153 q 452 27 533 68 q 293 -14 371 -14 q 183 10 233 -14 q 101 81 132 35 q 71 196 71 128 q 136 360 71 306 q 339 415 201 415 l 529 415 l 515 394 l 515 519 q 477 627 515 592 q 364 663 439 663 q 285 654 328 663 q 190 629 242 646 l 204 647 l 190 526 l 118 526 m 539 175 q 521 258 526 213 q 515 361 515 303 l 529 336 l 360 336 q 224 310 265 336 q 183 211 183 285 q 225 106 183 142 q 326 69 267 69 q 441 100 382 69 q 546 192 500 131 l 539 175 m 628 393 l 615 415 l 1035 415 l 1021 397 q 978 598 1024 532 q 843 664 933 664 q 689 593 746 664 q 628 393 632 522 z "},"Œ":{"ha":1300,"x_min":83,"x_max":1207,"o":"m 500 -6 q 284 47 378 -6 q 137 206 190 100 q 83 475 83 313 q 142 756 83 646 q 301 920 200 867 q 533 974 403 974 q 583 973 553 974 q 644 972 613 972 q 703 970 676 971 q 744 969 731 969 l 1189 969 l 1189 750 l 1119 750 l 1096 903 l 1119 885 l 725 885 l 746 906 l 746 529 l 725 549 l 1088 549 l 1088 467 l 725 467 l 746 488 l 746 64 l 725 85 l 1138 85 l 1113 64 l 1138 228 l 1207 228 l 1206 0 l 700 0 q 662 -1 686 0 q 608 -2 638 -1 q 551 -4 579 -3 q 500 -6 522 -6 m 632 61 l 632 910 l 656 878 q 620 881 642 879 q 575 883 599 882 q 532 883 551 883 q 400 861 460 883 q 297 791 340 839 q 230 666 254 743 q 206 478 206 589 q 244 252 206 339 q 353 125 283 165 q 515 85 422 85 q 565 86 538 85 q 617 90 593 88 q 650 93 642 92 l 632 61 z "},"œ":{"ha":1315,"x_min":65,"x_max":1247,"o":"m 388 -12 q 151 81 236 -12 q 67 353 65 175 q 109 563 67 475 q 228 697 151 650 q 413 744 306 744 q 606 689 532 744 q 706 531 681 633 l 672 532 q 781 690 706 633 q 964 746 856 746 q 1120 706 1057 746 q 1215 595 1183 667 q 1247 428 1247 524 q 1247 396 1247 413 q 1243 358 1246 379 l 715 358 l 742 382 q 742 367 742 375 q 742 349 742 360 q 769 203 742 265 q 849 108 797 142 q 968 74 900 74 q 1080 94 1019 74 q 1204 157 1140 114 l 1244 93 q 1091 14 1168 40 q 943 -12 1014 -12 q 764 45 838 -12 q 663 210 690 103 l 699 207 q 590 47 665 106 q 388 -12 515 -12 m 394 69 q 518 103 467 69 q 597 206 569 138 q 625 375 625 275 q 601 533 625 469 q 529 630 576 597 q 411 663 482 663 q 289 630 340 664 q 210 528 238 596 q 182 357 182 460 q 206 199 182 263 q 278 102 231 135 q 394 69 326 69 m 743 410 l 717 438 l 1144 438 l 1133 428 q 1118 542 1135 488 q 1062 630 1101 596 q 953 664 1022 664 q 841 631 886 664 q 772 540 796 597 q 743 410 747 483 z "},"ð":{"ha":813,"x_min":64,"x_max":732,"o":"m 381 -12 q 207 31 278 -12 q 100 152 136 74 q 64 336 64 231 q 105 538 64 454 q 218 667 146 622 q 383 713 290 713 q 533 672 469 713 q 635 556 597 632 l 624 560 q 549 792 604 694 q 402 942 493 889 q 188 997 311 996 l 197 1079 q 438 1025 338 1079 q 604 880 539 971 q 701 674 669 789 q 732 436 732 558 q 709 247 732 331 q 642 106 686 164 q 531 17 597 47 q 381 -12 465 -12 m 388 69 q 510 106 458 69 q 589 210 561 143 q 617 369 617 278 q 562 566 617 497 q 406 635 507 635 q 285 601 336 635 q 207 502 235 567 q 179 343 179 438 q 235 139 179 208 q 388 69 292 69 m 307 807 l 269 858 l 618 1081 l 656 1029 l 307 807 z "},"Þ":{"ha":808,"x_min":68,"x_max":758,"o":"m 68 0 l 68 60 l 206 89 l 188 64 l 188 904 l 206 878 l 68 903 l 68 963 l 422 969 l 422 910 l 285 876 l 301 901 l 301 751 l 281 774 l 461 774 q 682 706 606 774 q 758 511 758 639 q 665 287 758 364 q 408 210 571 210 l 281 210 l 301 233 l 301 64 l 283 89 l 451 60 l 451 0 l 68 0 m 301 272 l 281 293 l 389 293 q 524 316 467 293 q 612 385 581 339 q 643 504 643 432 q 617 610 643 568 q 543 672 592 651 q 426 692 494 692 l 281 692 l 301 711 l 301 272 z "},"þ":{"ha":807,"x_min":17,"x_max":740,"o":"m 17 -319 l 17 -260 l 143 -231 l 125 -253 l 125 996 l 143 974 l 17 1003 l 17 1063 l 236 1072 l 236 629 l 213 626 q 340 716 276 686 q 467 746 404 746 q 607 703 546 746 q 704 578 668 660 q 740 379 740 497 q 697 164 740 251 q 574 31 653 76 q 388 -14 494 -14 q 307 -7 349 -14 q 219 11 265 0 l 236 24 l 236 -253 l 222 -232 l 364 -260 l 364 -319 l 17 -319 m 375 69 q 561 149 497 69 q 625 368 625 228 q 599 525 625 460 q 530 626 574 590 q 428 661 486 661 q 327 635 379 661 q 222 557 275 610 l 236 585 l 236 76 l 221 96 q 375 69 306 69 z "},"ĸ":{"ha":811,"x_min":53,"x_max":804,"o":"m 53 0 l 53 60 l 178 88 l 161 64 l 161 661 l 174 644 l 53 669 l 53 729 l 272 739 l 272 425 l 251 440 l 443 440 l 414 426 l 561 668 l 568 653 l 454 669 l 454 729 l 763 739 l 763 679 l 635 654 l 671 675 l 499 399 l 501 429 l 706 68 l 685 86 l 804 60 l 804 0 l 625 0 l 419 376 l 440 363 l 251 363 l 272 378 l 272 64 l 257 88 l 392 60 l 392 0 l 53 0 z "},"ẞ":{"ha":1001,"x_min":67,"x_max":942,"o":"m 625 -12 q 524 -3 578 -12 q 414 21 469 6 l 424 217 l 488 217 l 510 75 l 490 96 q 624 75 563 75 q 768 126 711 75 q 825 276 825 178 q 785 401 825 357 q 673 467 746 446 q 497 494 600 488 l 497 568 l 763 921 l 763 885 l 281 883 l 300 906 l 300 0 l 67 0 l 67 60 l 204 89 l 188 65 l 188 903 l 204 878 l 67 903 l 67 963 l 299 969 l 844 969 l 844 882 l 586 535 l 574 561 q 717 538 650 554 q 834 491 783 522 q 913 408 885 460 q 942 278 942 357 q 900 117 942 182 q 787 20 858 53 q 625 -12 715 -12 z "},"ß":{"ha":904,"x_min":51,"x_max":879,"o":"m 540 578 q 565 511 540 538 q 628 465 589 485 q 710 425 667 446 q 792 377 753 404 q 855 310 831 350 q 879 210 879 271 q 843 85 879 133 q 745 12 807 36 q 608 -12 683 -12 q 517 -4 564 -12 q 421 19 469 4 l 429 200 l 500 199 l 515 63 l 500 86 q 558 69 528 75 q 614 63 588 63 q 692 77 657 63 q 750 121 728 92 q 772 194 772 150 q 748 269 772 239 q 685 323 724 300 q 603 367 646 346 q 522 413 560 388 q 459 474 483 438 q 435 564 435 510 q 457 646 435 615 q 512 698 479 676 q 577 739 544 719 q 632 785 610 758 q 654 857 654 813 q 631 933 654 903 q 566 981 607 964 q 475 997 525 997 q 330 953 386 997 q 274 813 274 908 l 274 0 l 54 0 l 54 60 l 181 88 l 163 65 l 163 661 l 181 650 l 51 650 l 51 711 l 178 729 l 163 711 l 163 804 q 187 931 163 878 q 254 1016 211 983 q 355 1064 297 1049 q 478 1079 413 1079 q 622 1055 558 1079 q 724 984 686 1031 q 763 867 763 938 q 740 780 763 813 q 685 725 718 747 q 619 684 653 703 q 563 641 586 665 q 540 578 540 617 z "},"Ə":{"ha":961,"x_min":81,"x_max":876,"o":"m 458 -12 q 268 36 354 -12 q 131 181 182 85 q 81 421 81 278 q 81 458 81 438 q 85 497 82 479 l 810 497 l 810 408 l 185 408 l 203 425 q 237 230 203 307 q 331 115 271 153 q 465 78 390 78 q 612 120 546 78 q 717 253 678 163 q 756 488 756 343 q 717 707 756 618 q 608 842 678 796 q 447 888 539 888 q 298 860 378 888 q 133 776 218 833 l 86 843 q 283 947 185 913 q 469 982 381 982 q 676 926 585 982 q 822 763 768 871 q 876 499 876 656 q 818 214 876 328 q 665 44 760 100 q 458 -12 569 -12 z "},"ə":{"ha":760,"x_min":69,"x_max":694,"o":"m 378 746 q 542 703 471 746 q 654 580 614 661 q 694 378 694 499 q 653 171 694 258 q 535 35 611 83 q 357 -12 460 -12 q 196 28 260 -12 q 101 142 132 69 q 69 307 69 214 q 71 342 69 324 q 75 385 72 361 l 610 385 l 608 306 l 160 306 l 185 335 q 200 201 183 261 q 257 105 217 140 q 364 69 297 69 q 484 107 436 69 q 556 211 532 144 q 581 363 581 278 q 554 522 581 454 q 477 625 528 589 q 353 661 426 661 q 240 641 301 661 q 113 578 178 621 l 74 640 q 228 720 151 694 q 378 746 306 746 z "},"µ":{"ha":907,"x_min":31,"x_max":835,"o":"m 182 183 l 211 110 q 228 -12 219 54 q 244 -155 238 -78 q 250 -319 250 -232 l 139 -319 l 139 664 l 153 644 l 31 669 l 31 729 l 250 735 l 250 235 q 289 114 250 153 q 392 75 328 75 q 504 103 443 75 q 624 190 565 131 l 614 168 l 614 667 l 628 644 l 506 669 l 506 729 l 725 736 l 725 68 l 708 88 l 835 63 l 835 1 l 639 -7 l 622 131 l 636 125 q 499 22 569 56 q 365 -12 429 -12 q 240 35 290 -12 q 182 183 190 83 z "},"ﬁ":{"ha":878,"x_min":51,"x_max":844,"o":"m 54 0 l 54 60 l 176 86 l 163 69 l 163 668 l 176 653 l 51 653 l 51 715 l 179 733 l 163 713 l 163 825 q 230 1017 163 956 q 407 1079 297 1079 q 451 1076 426 1079 q 500 1069 475 1074 q 546 1057 525 1065 l 535 979 q 479 992 506 988 q 429 997 453 997 q 314 958 354 997 q 274 835 274 918 l 274 713 l 258 732 l 736 738 l 736 71 l 724 86 l 844 60 l 844 0 l 517 0 l 517 60 l 638 86 l 625 71 l 625 671 l 644 653 l 260 653 l 274 668 l 274 71 l 260 86 l 406 60 l 406 0 l 54 0 m 676 888 q 624 908 644 888 q 603 965 603 929 q 624 1023 603 1003 q 678 1043 646 1043 q 732 1024 711 1043 q 753 965 753 1004 q 731 908 753 928 q 676 888 708 888 z "},"ﬂ":{"ha":892,"x_min":51,"x_max":857,"o":"m 54 0 l 54 60 l 178 86 l 163 65 l 163 667 l 178 650 l 51 650 l 51 711 l 176 729 l 163 710 l 163 819 q 202 971 163 914 q 311 1053 242 1028 q 471 1079 381 1079 q 574 1072 519 1079 q 686 1050 629 1064 l 589 1054 l 749 1064 l 749 65 l 733 86 l 857 60 l 857 0 l 528 0 l 528 60 l 653 86 l 638 65 l 638 996 l 660 976 q 564 992 610 988 q 481 997 518 997 q 360 978 403 997 q 299 928 318 958 q 277 870 281 899 q 274 824 274 842 l 274 710 l 258 728 l 467 728 l 464 650 l 258 650 l 274 667 l 274 65 l 258 86 l 406 60 l 406 0 l 54 0 z "},"$":{"ha":865,"x_min":117,"x_max":756,"o":"m 403 -192 l 403 28 l 432 6 q 415 4 424 4 q 396 4 406 4 q 261 18 335 4 q 117 63 188 32 l 122 290 l 193 290 l 213 132 q 309 102 260 113 q 406 92 358 92 q 524 111 469 92 q 610 169 578 131 q 642 264 642 207 q 614 350 642 317 q 540 405 586 383 q 440 442 494 426 q 331 477 386 458 q 229 524 275 496 q 156 596 183 551 q 128 708 128 640 q 169 847 128 792 q 282 933 211 903 q 440 964 353 963 l 403 940 l 403 1149 l 482 1149 l 482 942 l 450 965 l 467 965 q 553 958 507 965 q 645 938 599 950 q 731 908 692 925 l 718 692 l 649 692 l 631 846 q 549 869 593 861 q 460 878 504 878 q 351 862 401 878 q 271 812 301 846 q 240 724 240 778 q 268 640 240 672 q 342 588 296 608 q 443 550 388 567 q 553 515 499 533 q 653 467 607 496 q 727 392 699 438 q 756 276 756 347 q 713 134 756 192 q 601 44 671 76 q 446 6 531 13 l 482 32 l 482 -192 l 403 -192 z "},"¢":{"ha":794,"x_min":101,"x_max":692,"o":"m 692 251 q 560 176 625 201 q 429 147 494 150 l 460 172 l 460 -29 l 382 -29 l 382 171 l 415 147 q 253 188 324 146 q 142 307 182 229 q 101 490 101 385 q 143 677 101 600 q 255 797 185 754 q 413 844 325 840 l 382 818 l 382 1019 l 460 1019 l 460 822 l 418 844 q 512 840 465 847 q 598 820 558 833 q 668 790 638 807 l 663 625 l 594 625 l 578 742 q 508 763 544 757 q 442 769 471 769 q 317 734 369 769 q 238 638 265 699 q 210 497 210 576 q 237 353 210 414 q 315 260 264 293 q 433 226 365 226 q 540 247 485 226 q 654 308 596 267 l 692 251 z "},"€":{"ha":1010,"x_min":96,"x_max":894,"o":"m 311 568 l 293 594 l 697 594 l 697 535 l 96 535 l 96 594 l 215 594 l 190 571 q 314 875 210 768 q 592 982 418 982 q 729 965 658 982 q 881 914 800 949 l 869 711 l 800 711 l 778 868 l 796 846 q 592 892 683 892 q 444 853 504 892 q 352 742 385 814 q 311 568 319 669 m 189 413 l 213 382 l 96 382 l 96 442 l 697 442 l 697 382 l 290 382 l 310 418 q 353 236 318 311 q 445 122 388 161 q 576 83 503 83 q 705 110 636 83 q 847 194 774 138 l 894 126 q 719 22 806 56 q 557 -11 633 -11 q 378 38 458 -11 q 249 181 299 86 q 189 413 200 276 z "},"£":{"ha":944,"x_min":106,"x_max":804,"o":"m 106 0 l 106 60 l 246 96 l 208 71 q 260 150 246 100 q 274 263 274 200 q 267 375 274 315 q 251 496 260 435 l 274 474 l 106 474 l 106 536 l 263 547 l 249 528 q 236 631 242 581 q 231 721 231 682 q 269 876 231 819 q 375 958 307 933 q 531 982 443 982 q 657 972 590 982 q 794 946 724 963 l 785 735 l 715 735 l 693 896 l 708 875 q 617 891 660 886 q 539 896 574 896 q 397 858 447 896 q 346 722 346 819 q 351 635 346 688 q 364 531 357 582 l 340 547 l 619 547 l 619 474 l 349 474 l 368 499 q 381 394 375 446 q 388 296 388 343 q 369 169 388 226 q 301 75 351 113 l 288 88 l 731 85 l 708 63 l 735 238 l 804 238 l 804 0 l 106 0 z "},"¥":{"ha":1000,"x_min":63,"x_max":939,"o":"m 204 383 l 204 443 l 419 443 l 410 419 l 161 900 l 188 879 l 63 903 l 63 963 l 417 969 l 417 910 l 268 882 l 276 904 l 517 422 l 496 422 l 739 900 l 749 879 l 600 903 l 600 963 l 939 969 l 939 910 l 815 882 l 840 903 l 589 418 l 581 443 l 793 443 l 793 383 l 204 383 m 322 0 l 322 60 l 461 89 l 442 64 l 442 250 l 461 231 l 204 231 l 204 290 l 793 290 l 793 231 l 532 231 l 556 251 l 556 64 l 536 89 l 676 60 l 676 0 l 322 0 z "},"ƒ":{"ha":753,"x_min":43,"x_max":693,"o":"m 142 -282 q 94 -278 118 -282 q 43 -271 69 -275 l 54 -192 q 122 -196 93 -196 q 209 -179 178 -196 q 255 -128 240 -162 q 274 -40 269 -93 l 328 557 l 353 539 l 210 539 l 210 601 l 361 615 l 331 593 l 351 824 q 390 973 360 917 q 472 1054 421 1029 q 593 1079 522 1079 q 642 1076 618 1079 q 693 1069 667 1074 l 683 989 q 615 993 646 993 q 528 976 560 993 q 483 925 497 960 q 463 836 468 890 l 440 592 l 418 611 l 639 611 l 636 539 l 413 539 l 438 563 l 386 -25 q 346 -174 378 -117 q 262 -256 314 -231 q 142 -282 210 -282 z "},"₣":{"ha":903,"x_min":136,"x_max":814,"o":"m 140 0 l 140 60 l 275 88 l 260 68 l 260 276 l 276 258 l 136 258 l 136 319 l 276 319 l 260 304 l 260 903 l 279 878 l 140 903 l 140 963 l 372 969 l 813 969 l 814 749 l 744 749 l 719 900 l 743 885 l 353 885 l 374 906 l 374 535 l 353 553 l 710 553 l 710 481 l 353 481 l 374 500 l 374 304 l 354 319 l 554 319 l 554 258 l 354 258 l 374 276 l 374 68 l 357 88 l 524 60 l 524 0 l 140 0 z "},"₤":{"ha":967,"x_min":126,"x_max":825,"o":"m 126 0 l 126 60 l 264 96 l 218 64 q 278 143 263 90 q 294 263 294 196 q 291 339 294 299 q 282 422 288 379 l 311 392 l 126 392 l 126 451 l 635 451 l 635 392 l 371 392 l 400 410 q 406 347 403 376 q 408 289 408 318 q 399 203 407 243 q 372 130 392 163 q 317 71 353 97 l 304 88 l 750 85 l 731 64 l 756 233 l 825 233 l 825 0 l 126 0 m 126 544 l 126 604 l 288 604 l 263 575 q 255 653 258 614 q 251 726 251 692 q 290 876 251 821 q 396 957 328 932 q 553 982 464 982 q 678 972 611 982 q 815 944 746 963 l 806 739 l 736 739 l 715 899 l 729 875 q 561 897 639 897 q 421 861 475 897 q 367 731 367 825 q 369 682 367 708 q 374 628 371 656 q 379 578 376 601 l 349 604 l 635 604 l 635 544 l 126 544 z "},"₦":{"ha":1276,"x_min":106,"x_max":1186,"o":"m 154 0 l 154 60 l 294 89 l 275 64 l 275 429 l 371 429 l 371 64 l 351 89 l 492 60 l 492 0 l 154 0 m 888 0 l 626 429 l 743 429 l 938 135 l 919 133 l 919 429 l 1017 429 l 1017 0 l 888 0 m 106 389 l 106 447 l 1186 447 l 1186 389 l 106 389 m 106 542 l 106 600 l 1186 600 l 1186 542 l 106 542 m 919 561 l 919 904 l 940 879 l 800 903 l 800 963 l 1136 969 l 1136 910 l 997 878 l 1017 904 l 1017 561 l 919 561 m 275 561 l 275 904 l 289 879 l 154 903 l 154 963 l 410 969 l 660 561 l 544 561 l 354 849 l 371 850 l 371 561 l 275 561 z "},"₧":{"ha":956,"x_min":68,"x_max":894,"o":"m 68 0 l 68 60 l 213 89 l 190 61 l 190 651 l 222 635 l 68 635 l 68 708 l 222 708 l 190 683 l 190 907 l 215 878 l 68 903 l 68 963 l 307 969 l 463 969 q 638 934 568 969 q 744 835 708 899 q 779 686 779 771 l 779 667 l 749 708 l 894 708 l 894 635 l 743 635 l 778 657 q 728 508 772 572 q 604 407 685 443 q 407 371 524 371 l 282 371 l 304 393 l 304 61 l 283 88 l 457 60 l 457 0 l 68 0 m 304 433 l 282 456 l 408 456 q 589 509 524 456 q 661 657 654 563 l 674 635 l 282 635 l 304 657 l 304 433 m 446 885 l 282 885 l 304 907 l 304 686 l 282 708 l 685 708 l 661 683 q 608 831 661 778 q 446 885 554 885 z "},"₩":{"ha":1418,"x_min":7,"x_max":1411,"o":"m 357 -1 l 240 428 l 346 433 l 432 104 l 410 104 l 511 435 l 600 438 l 467 -1 l 357 -1 m 200 576 l 111 904 l 131 882 l 7 903 l 7 963 l 363 969 l 363 910 l 214 881 l 228 904 l 311 575 l 200 576 m 53 393 l 53 453 l 1358 453 l 1358 393 l 53 393 m 1213 574 l 1122 575 l 1208 903 l 1219 881 l 1075 903 l 1075 963 l 1411 969 l 1411 910 l 1281 881 l 1310 911 l 1213 574 m 53 546 l 53 606 l 1358 606 l 1358 546 l 53 546 m 881 576 l 778 554 l 696 824 l 721 824 l 638 557 l 554 582 l 668 964 l 765 969 l 881 576 m 940 -1 l 813 435 l 919 440 l 1019 107 l 996 107 l 1086 439 l 1174 436 l 1049 -1 l 940 -1 z "},"₫":{"ha":981,"x_min":122,"x_max":846,"o":"m 396 -14 q 256 28 318 -14 q 158 153 194 71 q 122 356 122 236 q 220 647 122 549 q 490 746 318 746 q 567 740 528 746 q 649 724 607 735 l 626 711 l 626 881 l 642 865 l 340 865 l 340 931 l 642 931 l 626 918 l 626 1067 l 738 1067 l 738 918 l 722 931 l 846 931 l 846 865 l 722 865 l 738 881 l 738 68 l 721 88 l 846 63 l 846 1 l 651 -7 l 635 113 l 647 107 q 522 16 585 46 q 396 -14 460 -14 m 143 -164 l 143 -97 l 846 -97 l 846 -164 l 143 -164 m 435 71 q 535 97 483 71 q 640 175 588 122 l 626 138 l 626 664 l 642 636 q 488 664 557 664 q 301 585 365 664 q 238 365 238 506 q 263 207 238 272 q 333 106 289 142 q 435 71 378 71 z "},"₭":{"ha":1101,"x_min":132,"x_max":1024,"o":"m 132 0 l 132 60 l 269 88 l 251 61 l 251 481 l 272 458 l 132 458 l 132 536 l 272 536 l 251 515 l 251 906 l 269 881 l 132 903 l 132 963 l 483 969 l 483 910 l 346 879 l 365 908 l 365 515 l 343 536 l 544 536 l 510 517 l 750 906 l 761 883 l 626 903 l 626 963 l 968 969 l 968 910 l 829 879 l 861 903 l 615 514 l 608 536 l 935 536 l 935 458 l 618 458 l 625 481 l 924 61 l 886 89 l 1024 60 l 1024 0 l 674 0 l 674 60 l 799 89 l 793 65 l 506 478 l 536 458 l 340 458 l 365 481 l 365 61 l 346 90 l 483 60 l 483 0 l 132 0 z "},"₱":{"ha":968,"x_min":68,"x_max":883,"o":"m 68 0 l 68 60 l 210 89 l 188 58 l 188 567 l 206 549 l 75 549 l 75 608 l 883 608 l 883 549 l 728 549 l 764 576 q 698 460 744 510 q 578 384 651 411 q 406 357 506 357 l 275 357 l 301 379 l 301 58 l 281 88 l 454 60 l 454 0 l 68 0 m 301 419 l 283 438 l 406 438 q 558 473 499 438 q 644 568 618 508 l 647 549 l 283 549 l 301 567 l 301 419 m 75 701 l 75 761 l 207 761 l 188 740 l 188 904 l 206 881 l 68 903 l 68 963 l 304 969 l 460 969 q 681 905 603 969 q 774 731 760 840 l 743 761 l 883 761 l 883 701 l 75 701 m 301 738 l 251 761 l 665 761 l 647 747 q 583 853 635 815 q 444 890 532 890 l 251 890 l 301 908 l 301 738 z "},"₲":{"ha":1068,"x_min":103,"x_max":990,"o":"m 990 467 l 990 404 l 865 378 l 882 401 l 882 67 q 711 10 793 29 q 558 -11 629 -8 l 586 8 l 586 -192 l 507 -192 l 507 10 l 540 -11 q 308 44 407 -11 q 156 207 210 99 q 103 474 103 315 q 159 749 103 638 q 314 919 215 861 q 540 982 413 978 l 507 961 l 507 1149 l 586 1149 l 586 963 l 557 982 q 711 965 629 982 q 876 911 793 947 l 867 696 l 797 696 l 774 867 l 793 844 q 672 878 735 867 q 557 890 608 890 q 382 843 457 890 q 266 704 307 796 q 225 479 225 613 q 310 183 225 286 q 550 81 396 81 q 793 129 657 81 l 776 100 l 776 403 l 799 378 l 649 397 l 649 460 l 990 467 z "},"₵":{"ha":968,"x_min":99,"x_max":874,"o":"m 874 142 q 708 44 792 78 q 544 4 624 11 l 572 31 l 572 -192 l 493 -192 l 493 28 l 528 4 q 301 63 397 4 q 151 229 204 122 q 99 481 99 336 q 152 733 99 626 q 302 899 206 839 q 526 965 399 960 l 493 935 l 493 1149 l 572 1149 l 572 938 l 539 967 q 697 949 618 967 q 860 896 775 932 l 849 681 l 779 681 l 758 833 q 651 864 706 853 q 547 875 596 875 q 375 828 449 875 q 261 696 301 782 q 221 493 221 610 q 263 283 221 371 q 377 147 304 194 q 540 99 450 99 q 679 126 607 99 q 826 211 751 153 l 874 142 z "},"₹":{"ha":901,"x_min":119,"x_max":789,"o":"m 614 0 l 469 272 q 419 356 442 325 q 376 403 397 388 q 326 423 354 418 q 258 428 297 428 l 119 428 l 119 499 l 304 499 q 494 551 428 499 q 560 714 560 604 q 551 779 560 749 l 583 757 l 119 757 l 119 817 l 789 817 l 789 757 l 647 757 l 669 772 q 674 747 672 760 q 675 721 675 735 q 603 531 674 603 q 390 444 533 458 l 386 461 q 468 435 438 456 q 521 382 499 415 q 569 303 543 349 l 704 67 l 665 92 l 783 60 l 783 0 l 614 0 m 119 910 l 119 969 l 789 969 l 789 910 l 119 910 z "},"₺":{"ha":946,"x_min":122,"x_max":849,"o":"m 151 0 l 151 60 l 292 89 l 272 61 l 272 499 l 293 479 l 122 417 l 122 478 l 689 688 l 689 626 l 360 506 l 385 540 l 385 67 l 365 89 l 385 89 q 516 110 453 89 q 628 176 579 131 q 707 293 678 221 q 736 468 736 365 l 849 468 q 813 269 849 357 q 715 122 778 182 q 567 31 653 63 q 379 0 481 0 l 151 0 m 122 575 l 122 636 l 294 700 l 272 665 l 272 969 l 385 969 l 385 714 l 358 724 l 689 846 l 689 785 l 122 575 z "},"₼":{"ha":1344,"x_min":61,"x_max":1282,"o":"m 61 0 l 61 60 l 172 83 l 154 50 q 208 446 165 281 q 319 717 251 611 q 471 875 386 822 q 649 935 556 928 l 631 910 l 631 1121 l 714 1121 l 714 911 l 699 936 q 879 883 794 933 q 1030 728 964 833 q 1138 455 1096 624 q 1189 46 1181 286 l 1171 79 l 1282 60 l 1282 0 l 1075 0 q 1035 390 1068 229 q 951 650 1003 550 q 833 797 899 750 q 694 846 767 843 l 714 865 l 714 167 l 631 167 l 631 865 l 647 844 q 513 787 578 836 q 394 638 447 738 q 308 381 342 539 q 265 0 274 224 l 61 0 z "},"₽":{"ha":904,"x_min":144,"x_max":853,"o":"m 151 396 l 151 457 l 288 457 l 264 440 l 264 907 l 289 878 l 144 903 l 144 963 l 381 969 l 536 969 q 772 895 692 969 q 853 694 853 821 q 761 476 853 557 q 504 396 669 396 l 151 396 m 144 0 l 144 60 l 286 89 l 264 61 l 264 264 l 288 244 l 151 244 l 151 303 l 625 303 l 625 244 l 354 244 l 378 264 l 378 61 l 357 88 l 531 60 l 531 0 l 144 0 m 378 440 l 351 457 l 485 457 q 672 517 607 457 q 736 682 736 578 q 681 832 736 779 q 521 885 626 885 l 356 885 l 378 907 l 378 440 z "},"₡":{"ha":969,"x_min":97,"x_max":872,"o":"m 310 -192 l 358 65 l 363 32 q 172 194 246 78 q 97 483 97 311 q 147 725 97 622 q 285 890 197 828 q 492 963 374 951 l 475 939 l 515 1149 l 575 1149 l 522 875 q 363 821 431 869 q 257 688 294 772 q 219 493 219 604 q 246 324 219 400 q 319 197 272 249 q 428 119 367 146 l 368 -192 l 310 -192 m 454 -192 l 508 100 q 523 99 515 99 q 539 99 531 99 q 682 127 610 99 q 825 211 754 156 l 872 142 q 700 42 788 75 q 531 4 613 8 l 557 36 l 514 -192 l 454 -192 m 779 681 l 754 851 l 776 828 q 691 856 733 844 q 607 871 649 867 l 660 1149 l 719 1149 l 676 925 l 664 954 q 758 933 710 947 q 858 896 807 918 l 849 681 l 779 681 z "},"¤":{"ha":931,"x_min":139,"x_max":790,"o":"m 790 174 l 735 113 l 600 238 l 644 238 q 567 187 613 206 q 463 168 521 168 q 359 188 404 168 q 283 239 314 207 l 331 242 l 193 114 l 143 168 l 278 294 l 274 249 q 231 322 246 279 q 217 410 217 364 q 232 502 217 458 q 276 582 247 546 l 274 540 l 139 665 l 196 726 l 333 599 l 292 596 q 371 644 325 626 q 475 663 417 663 q 573 647 531 663 q 644 603 615 631 l 606 603 l 735 725 l 786 669 l 654 549 l 654 593 q 701 516 685 560 q 717 425 717 472 q 701 332 717 376 q 657 253 686 288 l 653 300 l 790 174 m 465 240 q 552 264 518 240 q 603 328 586 288 q 622 415 621 368 q 586 542 624 493 q 472 590 549 590 q 382 566 418 590 q 328 501 346 542 q 311 413 311 461 q 349 290 311 339 q 465 240 388 240 z "},"!":{"ha":463,"x_min":158,"x_max":304,"o":"m 189 307 l 171 969 l 292 969 l 274 313 l 189 307 m 158 60 q 180 113 158 93 q 231 132 201 132 q 284 113 264 132 q 304 60 304 93 q 282 7 304 26 q 231 -12 260 -12 q 178 7 199 -12 q 158 60 158 26 z "},"¡":{"ha":463,"x_min":158,"x_max":304,"o":"m 274 371 l 290 -292 l 171 -292 l 188 365 l 274 371 m 304 618 q 282 566 304 586 q 231 546 260 546 q 178 566 199 546 q 158 618 158 586 q 180 671 158 651 q 231 690 201 690 q 284 671 264 690 q 304 618 304 651 z "},"?":{"ha":581,"x_min":58,"x_max":519,"o":"m 169 315 q 163 363 167 339 q 160 404 160 388 q 185 492 160 454 q 246 563 210 531 q 318 626 282 594 q 379 694 354 657 q 404 779 404 731 q 362 869 404 840 q 256 897 319 897 q 173 888 218 897 q 83 863 128 878 l 58 938 q 283 983 174 983 q 403 965 350 983 q 488 904 457 946 q 519 796 519 863 q 492 687 519 733 q 426 604 465 640 q 347 535 386 568 q 281 465 308 501 q 254 382 254 429 q 255 354 254 372 q 257 321 256 336 l 169 315 m 158 58 q 180 112 158 92 q 232 132 201 132 q 283 113 264 132 q 303 61 303 93 q 281 7 303 26 q 229 -12 260 -12 q 178 7 197 -12 q 158 58 158 26 z "},"¿":{"ha":583,"x_min":47,"x_max":507,"o":"m 397 418 q 403 371 401 396 q 406 329 406 346 q 381 241 406 279 q 319 171 356 203 q 247 108 283 139 q 186 40 211 76 q 161 -46 161 3 q 203 -135 161 -107 q 310 -164 246 -164 q 393 -154 349 -164 q 482 -129 438 -144 l 507 -204 q 282 -250 393 -250 q 163 -231 217 -250 q 78 -171 110 -212 q 47 -62 47 -129 q 74 47 47 0 q 140 129 100 93 q 219 199 179 165 q 285 268 258 232 q 311 351 311 304 q 310 379 311 361 q 308 413 310 397 l 397 418 m 408 675 q 387 622 408 642 q 333 601 365 601 q 283 621 303 601 q 263 672 263 640 q 284 726 263 707 q 336 746 306 746 q 388 726 368 746 q 408 675 408 707 z "},",":{"ha":324,"x_min":74,"x_max":250,"o":"m 74 -169 q 128 -75 115 -110 q 140 -25 140 -40 q 131 2 140 -10 q 114 28 122 14 q 106 65 106 43 q 128 119 106 100 q 178 138 151 138 q 213 129 197 138 q 240 103 229 121 q 250 57 250 86 q 220 -51 250 18 q 117 -200 190 -121 l 74 -169 z "},".":{"ha":293,"x_min":74,"x_max":219,"o":"m 74 65 q 96 118 74 99 q 147 138 118 138 q 200 118 181 138 q 219 65 219 99 q 198 13 219 32 q 147 -7 176 -7 q 94 13 114 -7 q 74 65 74 32 z "},":":{"ha":293,"x_min":74,"x_max":219,"o":"m 74 65 q 96 118 74 99 q 147 138 118 138 q 200 118 181 138 q 219 65 219 99 q 198 13 219 32 q 147 -7 176 -7 q 94 13 114 -7 q 74 65 74 32 m 74 568 q 96 621 74 601 q 147 640 118 640 q 200 621 181 640 q 219 568 219 601 q 198 515 219 535 q 147 496 176 496 q 94 515 114 496 q 74 568 74 535 z "},";":{"ha":324,"x_min":74,"x_max":250,"o":"m 74 -169 q 128 -75 115 -110 q 140 -25 140 -40 q 131 2 140 -10 q 114 28 122 14 q 106 65 106 43 q 128 119 106 100 q 178 138 151 138 q 213 129 197 138 q 240 103 229 121 q 250 57 250 86 q 220 -51 250 18 q 117 -200 190 -121 l 74 -169 m 103 568 q 125 621 103 601 q 176 640 147 640 q 229 621 210 640 q 249 568 249 601 q 227 515 249 535 q 176 496 206 496 q 123 515 143 496 q 103 568 103 535 z "},"…":{"ha":946,"x_min":74,"x_max":872,"o":"m 74 65 q 96 118 74 99 q 147 138 118 138 q 200 118 181 138 q 219 65 219 99 q 198 13 219 32 q 147 -7 176 -7 q 94 13 114 -7 q 74 65 74 32 m 400 65 q 422 118 400 99 q 474 138 444 138 q 526 118 507 138 q 546 65 546 99 q 524 13 546 32 q 474 -7 503 -7 q 420 13 440 -7 q 400 65 400 32 m 726 65 q 749 118 726 99 q 800 138 771 138 q 853 118 833 138 q 872 65 872 99 q 851 13 872 32 q 800 -7 829 -7 q 747 13 767 -7 q 726 65 726 32 z "},"·":{"ha":293,"x_min":74,"x_max":219,"o":"m 74 457 q 96 510 74 490 q 147 529 118 529 q 200 510 181 529 q 219 457 219 490 q 198 404 219 424 q 147 385 176 385 q 94 404 114 385 q 74 457 74 424 z "},"•":{"ha":526,"x_min":104,"x_max":422,"o":"m 104 435 q 126 519 104 483 q 185 574 149 554 q 264 594 222 594 q 348 574 313 594 q 403 519 383 554 q 422 435 422 483 q 400 351 422 388 q 342 296 378 315 q 264 276 306 276 q 147 319 190 276 q 104 435 104 363 z "},"_":{"ha":688,"x_min":-1,"x_max":689,"o":"m 689 -97 l 689 -174 l -1 -174 l -1 -97 l 689 -97 z "},"-":{"ha":636,"x_min":119,"x_max":517,"o":"m 517 451 l 517 364 l 119 364 l 119 451 l 517 451 z "},"‐":{"ha":599,"x_min":100,"x_max":499,"o":"m 499 451 l 499 364 l 101 364 l 101 451 l 499 451 z "},"­":{"ha":599,"x_min":100,"x_max":499,"o":"m 499 451 l 499 364 l 101 364 l 101 451 l 499 451 z "},"–":{"ha":858,"x_min":106,"x_max":753,"o":"m 753 451 l 753 364 l 106 364 l 106 451 l 753 451 z "},"—":{"ha":1206,"x_min":106,"x_max":1100,"o":"m 1100 447 l 1100 360 l 106 360 l 106 447 l 1100 447 z "},"'":{"ha":321,"x_min":107,"x_max":214,"o":"m 125 733 l 107 1067 l 214 1067 l 194 733 l 125 733 z "},"\"":{"ha":533,"x_min":107,"x_max":426,"o":"m 125 733 l 107 1067 l 214 1067 l 194 733 l 125 733 m 338 733 l 319 1067 l 426 1067 l 407 733 l 338 733 z "},"‘":{"ha":281,"x_min":60,"x_max":219,"o":"m 194 825 q 174 774 194 792 q 129 757 154 757 q 81 776 103 757 q 60 835 60 796 q 87 938 60 872 q 179 1085 114 1003 l 219 1057 q 175 963 186 996 q 164 914 164 931 q 172 886 164 899 q 187 860 179 874 q 194 825 194 846 z "},"’":{"ha":281,"x_min":60,"x_max":219,"o":"m 85 1015 q 105 1067 85 1050 q 150 1085 125 1085 q 199 1065 176 1085 q 221 1007 221 1046 q 194 904 221 969 q 100 757 167 839 l 60 783 q 105 879 94 846 q 115 928 115 913 q 108 956 115 944 q 92 981 100 968 q 85 1015 85 994 z "},"‚":{"ha":281,"x_min":61,"x_max":222,"o":"m 86 54 q 106 106 86 89 q 151 124 126 124 q 200 104 178 124 q 222 46 222 85 q 195 -57 222 8 q 101 -204 168 -122 l 61 -178 q 106 -82 96 -115 q 117 -33 117 -49 q 109 -5 117 -17 q 94 20 101 7 q 86 54 86 33 z "},"“":{"ha":493,"x_min":60,"x_max":432,"o":"m 194 846 q 174 794 194 811 q 129 778 154 778 q 81 797 103 778 q 60 854 60 815 q 87 958 60 893 q 179 1104 114 1022 l 219 1078 q 175 983 186 1017 q 164 933 164 950 q 172 906 164 918 q 187 881 179 894 q 194 846 194 867 m 407 846 q 387 794 407 811 q 342 778 367 778 q 293 797 315 778 q 271 854 271 815 q 299 958 271 893 q 392 1104 326 1022 l 432 1078 q 388 983 399 1017 q 376 933 376 950 q 384 906 376 918 q 399 881 392 894 q 407 846 407 867 z "},"”":{"ha":493,"x_min":61,"x_max":433,"o":"m 299 1015 q 319 1067 299 1050 q 364 1085 339 1085 q 413 1065 390 1085 q 435 1007 435 1046 q 408 904 435 969 q 314 757 381 839 l 274 783 q 319 879 308 846 q 329 928 329 913 q 322 956 329 944 q 306 981 314 968 q 299 1015 299 994 m 86 1015 q 106 1067 86 1050 q 151 1085 126 1085 q 200 1065 178 1085 q 222 1007 222 1046 q 195 904 222 969 q 101 757 168 839 l 61 783 q 106 879 96 846 q 117 928 117 913 q 109 956 117 944 q 94 981 101 968 q 86 1015 86 994 z "},"„":{"ha":493,"x_min":61,"x_max":433,"o":"m 299 54 q 319 106 299 89 q 364 124 339 124 q 413 104 390 124 q 435 46 435 85 q 408 -57 435 8 q 314 -204 381 -122 l 274 -178 q 319 -82 308 -115 q 329 -33 329 -49 q 322 -5 329 -17 q 306 20 314 7 q 299 54 299 33 m 86 54 q 106 106 86 89 q 151 124 126 124 q 200 104 178 124 q 222 46 222 85 q 195 -57 222 8 q 101 -204 168 -122 l 61 -178 q 106 -82 96 -115 q 117 -33 117 -49 q 109 -5 117 -17 q 94 20 101 7 q 86 54 86 33 z "},"ʼ":{"ha":281,"x_min":60,"x_max":219,"o":"m 85 1015 q 105 1067 85 1050 q 150 1085 125 1085 q 199 1065 176 1085 q 221 1007 221 1046 q 194 904 221 969 q 100 757 167 839 l 60 783 q 105 879 94 846 q 115 928 115 913 q 108 956 115 944 q 92 981 100 968 q 85 1015 85 994 z "},"′":{"ha":399,"x_min":107,"x_max":292,"o":"m 107 722 l 185 1067 l 292 1067 l 176 722 l 107 722 z "},"″":{"ha":594,"x_min":107,"x_max":488,"o":"m 107 722 l 185 1067 l 292 1067 l 176 722 l 107 722 m 303 722 l 381 1067 l 488 1067 l 372 722 l 303 722 z "},"(":{"ha":428,"x_min":76,"x_max":403,"o":"m 403 1160 q 238 847 293 1014 q 183 518 183 681 q 238 190 183 357 q 403 -124 293 22 l 331 -169 q 140 164 203 -15 q 76 518 76 343 q 140 872 76 693 q 331 1206 203 1051 l 403 1160 z "},")":{"ha":428,"x_min":26,"x_max":353,"o":"m 26 -124 q 190 190 135 24 q 244 518 244 357 q 190 847 244 681 q 26 1161 135 1014 l 97 1206 q 290 872 226 1051 q 353 518 353 693 q 290 165 353 344 q 97 -168 226 -14 l 26 -124 z "},"[":{"ha":478,"x_min":154,"x_max":458,"o":"m 154 -142 l 154 1179 l 458 1172 l 458 1103 l 251 1096 l 251 -58 l 458 -64 l 458 -135 l 154 -142 z "},"]":{"ha":478,"x_min":19,"x_max":324,"o":"m 324 1179 l 324 -142 l 19 -135 l 19 -64 l 226 -58 l 226 1096 l 19 1103 l 19 1172 l 324 1179 z "},"{":{"ha":474,"x_min":46,"x_max":432,"o":"m 368 -142 q 218 -92 263 -142 q 174 69 174 -42 l 174 332 q 147 439 174 399 q 46 479 119 479 l 46 558 q 147 599 121 558 q 174 706 174 640 l 174 969 q 219 1130 174 1081 q 368 1179 264 1179 l 432 1179 l 432 1110 q 331 1097 365 1110 q 285 1052 297 1085 q 272 960 272 1019 l 272 693 q 247 580 272 619 q 181 526 222 540 q 92 511 140 511 l 92 526 q 181 512 140 526 q 247 458 222 497 q 272 344 272 419 l 272 78 q 285 -15 272 18 q 331 -59 297 -47 q 432 -71 365 -71 l 432 -142 l 368 -142 z "},"}":{"ha":474,"x_min":42,"x_max":426,"o":"m 106 -142 q 256 -92 211 -142 q 300 69 300 -42 l 300 332 q 327 439 300 399 q 426 479 354 479 l 426 558 q 326 599 351 558 q 300 706 300 640 l 300 969 q 255 1130 300 1081 q 106 1179 210 1179 l 42 1179 l 42 1110 q 142 1097 108 1110 q 188 1052 176 1085 q 200 960 200 1019 l 200 693 q 226 580 200 619 q 292 526 251 540 q 382 511 333 511 l 382 526 q 292 512 333 526 q 226 458 251 497 q 200 344 200 419 l 200 78 q 188 -15 200 18 q 142 -59 176 -47 q 42 -71 108 -71 l 42 -142 l 106 -142 z "},"«":{"ha":692,"x_min":78,"x_max":607,"o":"m 290 89 l 78 343 l 78 407 l 292 661 l 346 621 l 156 353 l 156 400 l 344 132 l 290 89 m 553 89 l 340 343 l 340 407 l 554 661 l 608 621 l 418 353 l 418 400 l 607 132 l 553 89 z "},"»":{"ha":692,"x_min":85,"x_max":614,"o":"m 401 661 l 614 407 l 614 343 l 400 89 l 346 129 l 536 397 l 536 350 l 347 618 l 401 661 m 139 661 l 351 407 l 351 343 l 139 89 l 85 129 l 274 397 l 274 350 l 85 618 l 139 661 z "},"‹":{"ha":429,"x_min":78,"x_max":346,"o":"m 290 89 l 78 343 l 78 407 l 292 661 l 346 621 l 156 353 l 156 400 l 344 132 l 290 89 z "},"›":{"ha":429,"x_min":85,"x_max":351,"o":"m 139 661 l 351 407 l 351 343 l 139 89 l 85 129 l 274 397 l 274 350 l 85 618 l 139 661 z "},"+":{"ha":793,"x_min":72,"x_max":721,"o":"m 375 526 l 353 504 l 353 817 l 440 817 l 440 504 l 418 526 l 721 526 l 721 444 l 418 444 l 440 467 l 440 154 l 353 154 l 353 467 l 375 444 l 72 444 l 72 526 l 375 526 z "},"−":{"ha":765,"x_min":72,"x_max":693,"o":"m 693 526 l 693 444 l 72 444 l 72 526 l 693 526 z "},"±":{"ha":829,"x_min":104,"x_max":726,"o":"m 393 601 l 371 579 l 371 871 l 458 871 l 458 579 l 436 601 l 726 601 l 726 519 l 436 519 l 458 542 l 458 249 l 371 249 l 371 542 l 393 519 l 104 519 l 104 601 l 393 601 m 726 140 l 726 58 l 104 58 l 104 140 l 726 140 z "},"×":{"ha":703,"x_min":81,"x_max":622,"o":"m 142 215 l 81 276 l 306 500 l 307 468 l 81 694 l 143 756 l 369 529 l 336 531 l 561 756 l 622 694 l 397 469 l 396 503 l 622 276 l 560 214 l 333 440 l 367 440 l 142 215 z "},"÷":{"ha":765,"x_min":72,"x_max":693,"o":"m 693 526 l 693 444 l 72 444 l 72 526 l 693 526 m 310 249 q 332 301 310 282 q 383 321 354 321 q 436 301 417 321 q 456 249 456 282 q 434 196 456 215 q 383 176 413 176 q 330 196 350 176 q 310 249 310 215 m 310 726 q 332 779 310 760 q 383 799 354 799 q 436 779 417 799 q 456 726 456 760 q 434 674 456 693 q 383 654 413 654 q 330 674 350 654 q 310 726 310 693 z "},"=":{"ha":765,"x_min":72,"x_max":693,"o":"m 693 654 l 693 572 l 72 572 l 72 654 l 693 654 m 693 393 l 693 311 l 72 311 l 72 393 l 693 393 z "},"≠":{"ha":765,"x_min":72,"x_max":693,"o":"m 203 100 l 143 135 l 564 865 l 624 831 l 203 100 m 72 311 l 72 393 l 693 393 l 693 311 l 72 311 m 72 571 l 72 654 l 693 654 l 693 571 l 72 571 z "},"≈":{"ha":846,"x_min":83,"x_max":758,"o":"m 575 532 q 492 548 532 532 q 415 584 453 564 q 340 620 376 604 q 267 636 303 636 q 201 619 235 636 q 133 556 168 603 l 85 586 q 169 688 124 656 q 269 719 214 719 q 352 703 313 719 q 430 667 392 688 q 505 631 468 647 q 578 615 542 615 q 644 633 611 615 q 710 696 676 650 l 758 664 q 673 563 718 594 q 575 532 628 532 m 575 265 q 492 281 532 265 q 415 317 453 297 q 340 353 376 338 q 267 369 303 369 q 201 353 235 369 q 133 289 168 336 l 85 319 q 169 421 124 389 q 269 453 214 453 q 352 437 313 453 q 430 401 392 421 q 505 365 468 381 q 578 349 542 349 q 644 366 611 349 q 710 429 676 383 l 758 397 q 673 297 718 328 q 575 265 628 265 z "},"<":{"ha":781,"x_min":76,"x_max":685,"o":"m 653 181 l 76 444 l 76 531 l 654 810 l 685 731 l 157 478 l 157 501 l 685 263 l 653 181 z "},">":{"ha":772,"x_min":92,"x_max":696,"o":"m 122 781 l 696 544 l 696 458 l 121 208 l 92 286 l 614 511 l 614 486 l 92 694 l 122 781 z "},"≤":{"ha":860,"x_min":114,"x_max":736,"o":"m 693 246 l 114 493 l 114 579 l 693 817 l 722 738 l 196 524 l 196 553 l 724 331 l 693 246 m 736 140 l 736 58 l 114 58 l 114 140 l 736 140 z "},"≥":{"ha":856,"x_min":121,"x_max":742,"o":"m 164 815 l 742 579 l 742 493 l 163 244 l 133 322 l 660 549 l 660 519 l 133 729 l 164 815 m 742 140 l 742 58 l 121 58 l 121 140 l 742 140 z "},"∙":{"ha":365,"x_min":74,"x_max":219,"o":"m 74 457 q 96 510 74 490 q 147 529 118 529 q 200 510 181 529 q 219 457 219 490 q 198 404 219 424 q 147 385 176 385 q 94 404 114 385 q 74 457 74 424 z "},"¬":{"ha":853,"x_min":75,"x_max":739,"o":"m 647 157 l 647 463 l 663 444 l 75 444 l 75 526 l 739 526 l 739 157 l 647 157 z "},"∕":{"ha":214,"x_min":-240,"x_max":454,"o":"m -240 -10 l 363 979 l 454 979 l -149 -10 l -240 -10 z "},"/":{"ha":438,"x_min":1,"x_max":436,"o":"m 436 1114 l 81 -110 l 1 -110 l 356 1114 l 436 1114 z "},"\\":{"ha":444,"x_min":4,"x_max":442,"o":"m 4 1114 l 88 1114 l 442 -110 l 358 -110 l 4 1114 z "},"⁄":{"ha":214,"x_min":-240,"x_max":454,"o":"m -240 -10 l 363 979 l 454 979 l -149 -10 l -240 -10 z "},"%":{"ha":1175,"x_min":83,"x_max":1089,"o":"m 215 -12 l 865 982 l 961 982 l 310 -12 l 215 -12 m 308 486 q 140 553 196 486 q 83 731 83 619 q 142 913 83 843 q 319 982 200 982 q 488 917 435 982 q 540 747 540 853 q 482 558 540 629 q 308 486 424 486 m 311 553 q 421 603 389 553 q 454 739 453 654 q 423 871 454 826 q 318 915 392 915 q 203 867 238 915 q 169 731 169 818 q 203 600 169 647 q 311 553 236 553 m 857 -12 q 688 54 744 -12 q 632 231 632 121 q 690 413 632 343 q 868 482 749 482 q 1037 418 985 482 q 1089 247 1089 354 q 1031 59 1089 131 q 857 -12 974 -12 m 860 54 q 969 105 938 54 q 1003 239 1001 156 q 973 372 1004 326 q 867 417 942 417 q 753 367 788 417 q 719 232 719 318 q 753 101 719 149 q 860 54 786 54 z "},"‰":{"ha":1726,"x_min":83,"x_max":1640,"o":"m 1408 -12 q 1240 54 1296 -12 q 1183 231 1183 121 q 1242 413 1183 343 q 1419 482 1300 482 q 1588 417 1536 482 q 1640 247 1640 353 q 1583 59 1640 131 q 1408 -12 1525 -12 m 1411 53 q 1521 103 1489 53 q 1554 239 1553 154 q 1524 372 1556 326 q 1418 417 1493 417 q 1305 367 1339 417 q 1271 232 1271 318 q 1304 100 1271 147 q 1411 53 1338 53 m 215 -12 l 865 982 l 961 982 l 310 -12 l 215 -12 m 308 476 q 140 544 196 476 q 83 719 83 611 q 142 901 83 832 q 319 971 200 971 q 488 906 435 971 q 540 738 540 842 q 482 548 540 619 q 308 476 424 476 m 311 542 q 421 592 389 542 q 454 729 453 643 q 423 860 454 815 q 318 906 392 906 q 203 857 238 906 q 169 721 169 808 q 203 590 169 638 q 311 542 236 542 m 857 -12 q 688 54 744 -12 q 632 231 632 121 q 690 413 632 343 q 868 482 749 482 q 1037 417 985 482 q 1089 247 1089 353 q 1031 59 1089 131 q 857 -12 974 -12 m 860 53 q 969 103 938 53 q 1003 239 1001 154 q 973 372 1004 326 q 867 417 942 417 q 753 367 788 417 q 719 232 719 318 q 753 100 719 147 q 860 53 786 53 z "},"|":{"ha":458,"x_min":185,"x_max":274,"o":"m 185 1115 l 274 1115 l 274 -137 l 185 -137 l 185 1115 z "},"¦":{"ha":458,"x_min":185,"x_max":274,"o":"m 185 608 l 185 1115 l 274 1115 l 274 608 l 185 608 m 185 -137 l 185 369 l 274 369 l 274 -137 l 185 -137 z "},"†":{"ha":665,"x_min":44,"x_max":619,"o":"m 332 638 l 44 671 l 44 733 l 313 733 l 292 697 l 285 958 l 381 961 l 374 697 l 351 733 l 619 733 l 619 671 l 332 638 m 332 -85 l 285 -46 l 275 550 l 332 536 l 390 550 l 379 -46 l 332 -85 z "},"‡":{"ha":665,"x_min":44,"x_max":619,"o":"m 332 638 l 44 671 l 44 733 l 313 733 l 292 697 l 285 958 l 381 961 l 374 697 l 351 733 l 619 733 l 619 671 l 332 638 m 332 -85 l 285 -46 l 279 371 l 332 357 l 386 371 l 379 -46 l 332 -85 m 332 457 l 103 503 l 103 568 l 332 536 l 561 568 l 561 503 l 332 457 z "},"©":{"ha":1240,"x_min":113,"x_max":1128,"o":"m 617 218 q 452 287 518 218 q 386 481 386 356 q 419 629 386 568 q 508 722 451 690 q 635 753 564 753 q 803 713 717 753 l 800 583 l 742 583 l 729 676 l 740 668 q 690 683 715 679 q 642 688 664 688 q 519 633 563 688 q 476 486 476 578 q 521 335 476 386 q 633 285 565 285 q 710 299 669 285 q 792 343 750 314 l 824 296 q 719 237 772 256 q 617 218 665 218 m 604 -12 q 406 24 496 -12 q 250 124 315 60 q 149 278 185 189 q 113 474 113 368 q 151 678 113 585 q 258 839 189 771 q 422 944 328 907 q 625 982 515 982 q 825 946 733 982 q 985 844 917 910 q 1090 690 1053 779 q 1128 496 1128 601 q 1088 294 1128 388 q 977 133 1049 201 q 810 26 906 64 q 604 -12 715 -12 m 610 54 q 785 87 704 54 q 924 178 865 119 q 1016 316 983 236 q 1049 490 1049 396 q 994 710 1049 614 q 842 860 939 806 q 619 915 744 915 q 397 859 493 915 q 246 706 300 803 q 192 481 192 608 q 244 260 192 357 q 390 109 296 164 q 610 54 485 54 z "},"®":{"ha":1047,"x_min":115,"x_max":933,"o":"m 328 408 l 328 443 l 400 460 l 386 444 l 386 832 l 403 815 l 328 828 l 328 861 l 456 865 l 533 865 q 655 835 613 865 q 697 747 697 804 q 661 666 697 700 q 547 624 625 632 l 551 636 q 615 613 593 633 q 654 558 636 593 l 714 442 l 692 458 l 750 443 l 750 408 l 658 408 l 594 546 q 563 592 579 578 q 528 609 547 606 q 485 613 510 613 l 438 613 l 451 626 l 451 444 l 439 460 l 524 443 l 524 408 l 328 408 m 451 646 l 438 658 l 500 658 q 597 681 564 658 q 629 743 629 704 q 603 797 629 778 q 522 815 576 815 l 438 815 l 451 833 l 451 646 m 511 231 q 306 281 396 231 q 165 419 215 331 q 115 624 115 508 q 169 834 115 742 q 316 980 224 926 q 526 1033 408 1033 q 736 983 644 1033 q 881 844 828 933 q 933 640 933 756 q 901 478 933 553 q 812 348 869 404 q 677 261 754 292 q 511 231 600 231 m 514 285 q 697 331 615 285 q 825 456 778 376 q 872 639 872 536 q 827 816 872 739 q 703 936 782 893 q 525 979 625 979 q 345 933 424 979 q 222 808 267 888 q 178 626 178 729 q 220 448 178 525 q 338 328 263 371 q 514 285 414 285 z "},"™":{"ha":1457,"x_min":110,"x_max":1313,"o":"m 208 440 l 208 488 l 315 507 l 296 485 l 296 917 l 317 903 l 160 903 l 185 919 l 165 817 l 110 817 l 110 969 l 569 969 l 569 817 l 514 817 l 496 917 l 518 903 l 364 903 l 383 917 l 383 485 l 367 507 l 472 488 l 472 440 l 208 440 m 1313 922 l 1221 903 l 1238 928 l 1238 490 l 1221 507 l 1313 488 l 1313 440 l 1072 440 l 1072 488 l 1172 507 l 1154 490 l 1154 904 l 1172 900 l 993 578 l 939 575 l 765 896 l 782 904 l 782 490 l 769 506 l 864 488 l 864 440 l 642 440 l 639 488 l 729 506 l 714 490 l 714 928 l 729 903 l 639 919 l 639 967 l 819 971 l 994 633 l 957 633 l 1136 967 l 1313 971 l 1313 922 z "},"°":{"ha":618,"x_min":67,"x_max":483,"o":"m 275 610 q 124 665 182 610 q 67 815 67 719 q 93 922 67 876 q 167 994 119 968 q 276 1019 214 1019 q 426 965 369 1019 q 483 818 483 910 q 426 667 483 724 q 275 610 368 610 m 276 675 q 371 712 336 675 q 406 817 406 749 q 370 918 406 882 q 276 954 335 954 q 181 919 217 954 q 146 818 146 883 q 181 714 146 751 q 276 675 217 676 z "},"*":{"ha":667,"x_min":108,"x_max":556,"o":"m 440 631 l 333 790 l 343 828 l 379 822 l 499 676 l 440 631 m 232 629 l 169 674 l 289 825 l 326 828 l 333 790 l 232 629 m 289 825 l 108 865 l 131 939 l 307 878 l 321 843 l 289 825 m 335 853 l 307 878 l 294 1056 l 369 1057 l 364 878 l 335 853 m 379 822 l 350 844 l 364 878 l 532 940 l 556 868 l 379 822 z "},"#":{"ha":929,"x_min":74,"x_max":857,"o":"m 128 715 l 857 715 l 857 643 l 128 643 l 128 715 m 74 343 l 803 343 l 803 271 l 74 271 l 74 343 m 317 969 l 410 969 l 272 0 l 179 0 l 317 969 m 656 969 l 749 969 l 611 0 l 518 0 l 656 969 z "},"&":{"ha":958,"x_min":119,"x_max":896,"o":"m 449 -12 q 280 18 354 -12 q 163 111 206 49 q 119 265 119 174 q 147 384 119 329 q 231 476 174 439 q 375 524 288 514 l 378 511 q 203 586 261 524 q 146 732 146 649 q 188 874 146 819 q 302 956 229 929 q 467 982 375 982 q 608 969 539 982 q 744 932 678 956 l 735 732 l 663 732 l 642 883 l 665 865 q 571 888 617 881 q 474 896 525 896 q 318 856 375 896 q 261 724 261 815 q 323 601 261 646 q 492 557 385 557 l 896 557 l 896 494 l 774 469 l 789 492 l 789 301 q 746 128 789 199 q 626 23 703 58 q 449 -12 550 -12 m 460 78 q 619 131 560 78 q 678 292 678 185 l 678 490 l 700 474 l 479 474 q 341 447 394 474 q 262 376 288 419 q 236 282 236 333 q 299 131 236 185 q 460 78 361 78 z "},"@":{"ha":1214,"x_min":103,"x_max":1124,"o":"m 564 -151 q 322 -87 426 -151 q 160 92 218 -24 q 103 364 103 207 q 141 590 103 490 q 250 758 179 689 q 416 864 321 828 q 625 900 511 900 q 829 865 738 900 q 987 765 921 831 q 1088 610 1053 700 q 1124 407 1124 519 q 1060 174 1124 258 q 885 90 996 90 q 778 122 818 90 q 728 222 738 154 l 744 221 q 651 127 707 163 q 535 92 596 92 q 458 110 493 92 q 403 165 422 128 q 383 254 383 201 q 431 372 383 329 q 588 414 478 414 l 740 414 l 725 399 l 725 494 q 689 574 725 550 q 599 597 653 597 q 517 587 561 597 q 433 558 474 576 l 415 618 q 522 654 469 642 q 622 667 575 667 q 760 624 707 667 q 814 488 814 581 l 814 244 q 835 176 814 197 q 894 154 856 154 q 999 221 965 154 q 1032 389 1032 288 q 983 622 1032 524 q 842 773 933 719 q 621 826 750 826 q 394 772 490 826 q 247 614 299 717 q 194 365 194 511 q 240 131 194 231 q 372 -22 286 32 q 574 -76 457 -76 q 678 -66 624 -76 q 788 -35 733 -56 l 813 -100 q 688 -138 751 -125 q 564 -151 624 -151 m 567 160 q 657 190 611 160 q 736 269 703 219 l 725 235 l 725 381 l 740 363 l 608 363 q 506 337 535 363 q 476 261 476 311 q 501 186 476 213 q 567 160 526 160 z "},"§":{"ha":792,"x_min":128,"x_max":668,"o":"m 349 -249 q 249 -240 301 -249 q 143 -217 197 -232 l 151 -39 l 222 -39 l 236 -174 l 224 -153 q 289 -168 257 -162 q 350 -174 321 -174 q 476 -140 425 -174 q 526 -39 526 -106 q 497 49 526 13 q 423 114 468 85 q 327 170 378 143 q 231 229 276 197 q 156 304 185 261 q 128 407 128 347 q 155 506 128 464 q 226 574 182 547 q 322 614 271 601 l 343 581 q 290 546 317 569 q 244 490 263 522 q 226 421 226 458 q 256 338 226 372 q 331 274 285 303 q 428 218 376 246 q 526 157 481 190 q 601 77 572 124 q 631 -35 631 31 q 594 -153 631 -106 q 494 -224 557 -200 q 349 -249 431 -249 m 468 128 l 456 163 q 507 201 481 176 q 551 259 533 226 q 568 329 568 292 q 539 413 568 378 q 464 478 510 449 q 367 535 418 507 q 269 597 315 563 q 194 675 224 631 q 165 782 165 719 q 237 929 165 878 q 422 981 308 981 q 526 971 471 981 q 636 943 581 961 l 631 792 l 560 792 l 540 908 l 557 886 q 492 901 525 896 q 428 907 458 907 q 312 875 356 907 q 268 785 268 843 q 297 702 268 738 q 372 639 326 667 q 468 583 417 611 q 565 523 519 556 q 640 447 611 490 q 668 343 668 403 q 640 242 668 286 q 567 170 613 199 q 468 128 521 142 z "},"¶":{"ha":832,"x_min":76,"x_max":749,"o":"m 188 -236 l 188 -176 l 326 -147 l 308 -172 l 308 483 l 336 457 q 199 488 258 457 q 108 577 140 519 q 76 714 76 635 q 109 848 76 790 q 201 938 142 906 q 338 969 260 969 l 749 969 l 749 910 l 610 878 l 628 904 l 628 -236 l 533 -236 l 533 913 l 554 885 l 383 883 l 403 914 l 403 -236 l 188 -236 z "},"№":{"ha":1753,"x_min":68,"x_max":1642,"o":"m 1386 979 q 1574 908 1507 979 q 1642 714 1642 838 q 1609 563 1642 628 q 1515 460 1576 497 q 1367 424 1454 424 q 1183 493 1249 424 q 1117 690 1117 563 q 1149 844 1117 779 q 1242 944 1181 908 q 1386 979 1303 979 m 1381 908 q 1292 884 1329 908 q 1236 812 1256 860 q 1217 694 1217 764 q 1258 545 1217 596 q 1372 494 1299 494 q 1497 551 1451 494 q 1542 708 1542 607 q 1499 858 1542 807 q 1381 908 1456 908 m 1615 329 l 1615 247 l 1143 247 l 1143 329 l 1615 329 m 713 963 l 1050 969 l 1050 910 l 911 878 l 929 904 l 929 0 l 801 0 l 268 849 l 285 850 l 285 64 l 264 89 l 404 60 l 404 0 l 68 0 l 68 60 l 208 89 l 188 64 l 188 904 l 203 879 l 68 903 l 68 963 l 324 969 l 850 135 l 833 133 l 833 904 l 853 879 l 713 903 l 713 963 z "},"^":{"ha":758,"x_min":79,"x_max":679,"o":"m 79 733 l 339 1199 l 419 1199 l 679 733 l 575 733 l 351 1151 l 404 1151 l 181 733 l 79 733 z "},"~":{"ha":846,"x_min":86,"x_max":760,"o":"m 576 399 q 494 415 533 399 q 416 451 454 431 q 341 487 378 471 q 268 503 304 503 q 203 486 236 503 q 135 422 169 469 l 86 453 q 170 554 125 522 q 271 586 215 586 q 353 570 314 586 q 431 534 393 554 q 506 498 469 514 q 579 482 543 482 q 645 499 613 482 q 711 563 678 517 l 760 531 q 674 430 719 461 q 576 399 629 399 z "},"Á":{"ha":985,"x_min":6,"x_max":978,"o":"m 879 61 l 847 89 l 978 60 l 978 0 l 617 0 l 617 60 l 761 88 l 750 68 l 676 290 l 697 274 l 272 274 l 292 290 l 213 71 l 206 86 l 347 60 l 347 0 l 6 0 l 6 60 l 133 89 l 104 64 l 443 968 l 558 972 l 879 61 m 307 339 l 296 357 l 675 357 l 663 338 l 481 903 l 507 901 l 307 339 m 381 1042 l 346 1104 l 625 1268 l 674 1175 l 381 1042 z "},"Ă":{"ha":985,"x_min":6,"x_max":978,"o":"m 879 61 l 847 89 l 978 60 l 978 0 l 617 0 l 617 60 l 761 88 l 750 68 l 676 290 l 697 274 l 272 274 l 292 290 l 213 71 l 206 86 l 347 60 l 347 0 l 6 0 l 6 60 l 133 89 l 104 64 l 443 968 l 558 972 l 879 61 m 307 339 l 296 357 l 675 357 l 663 338 l 481 903 l 507 901 l 307 339 m 500 1057 q 410 1076 454 1057 q 339 1134 367 1096 q 310 1228 311 1172 l 378 1236 q 423 1158 385 1183 q 506 1133 461 1133 q 585 1158 550 1133 q 625 1231 621 1182 l 692 1235 q 664 1137 692 1176 q 592 1077 636 1097 q 500 1057 549 1057 z "},"Ắ":{"ha":985,"x_min":6,"x_max":978,"o":"m 879 61 l 847 89 l 978 60 l 978 0 l 617 0 l 617 60 l 761 88 l 750 68 l 676 290 l 697 274 l 272 274 l 292 290 l 213 71 l 206 86 l 347 60 l 347 0 l 6 0 l 6 60 l 133 89 l 104 64 l 443 968 l 558 972 l 879 61 m 307 339 l 296 357 l 675 357 l 663 338 l 481 903 l 507 901 l 307 339 m 500 1025 q 410 1044 454 1025 q 339 1102 367 1064 q 310 1196 311 1140 l 378 1204 q 423 1126 385 1151 q 506 1101 461 1101 q 585 1126 550 1101 q 625 1199 621 1150 l 692 1203 q 664 1105 692 1144 q 592 1045 636 1065 q 500 1025 549 1025 m 472 1182 l 425 1229 l 593 1411 l 661 1346 l 472 1182 z "},"Ặ":{"ha":985,"x_min":6,"x_max":978,"o":"m 879 61 l 847 89 l 978 60 l 978 0 l 617 0 l 617 60 l 761 88 l 750 68 l 676 290 l 697 274 l 272 274 l 292 290 l 213 71 l 206 86 l 347 60 l 347 0 l 6 0 l 6 60 l 133 89 l 104 64 l 443 968 l 558 972 l 879 61 m 307 339 l 296 357 l 675 357 l 663 338 l 481 903 l 507 901 l 307 339 m 483 -251 q 431 -231 451 -251 q 410 -174 410 -210 q 431 -116 410 -136 q 485 -96 453 -96 q 539 -115 518 -96 q 560 -174 560 -135 q 538 -231 560 -211 q 483 -251 515 -251 m 504 1051 q 415 1071 458 1051 q 343 1128 371 1090 q 314 1222 315 1167 l 382 1231 q 427 1153 389 1178 q 510 1128 465 1128 q 590 1152 554 1128 q 629 1225 625 1176 l 696 1229 q 668 1131 696 1171 q 597 1072 640 1092 q 504 1051 553 1051 z "},"Ằ":{"ha":985,"x_min":6,"x_max":978,"o":"m 879 61 l 847 89 l 978 60 l 978 0 l 617 0 l 617 60 l 761 88 l 750 68 l 676 290 l 697 274 l 272 274 l 292 290 l 213 71 l 206 86 l 347 60 l 347 0 l 6 0 l 6 60 l 133 89 l 104 64 l 443 968 l 558 972 l 879 61 m 307 339 l 296 357 l 675 357 l 663 338 l 481 903 l 507 901 l 307 339 m 529 1182 l 576 1231 l 408 1411 l 342 1346 l 529 1182 m 501 1025 q 411 1044 454 1025 q 340 1102 368 1064 q 311 1196 313 1140 l 378 1204 q 424 1126 385 1151 q 506 1101 463 1101 q 586 1126 550 1101 q 626 1199 622 1150 l 692 1201 q 665 1105 693 1144 q 593 1045 638 1065 q 501 1025 549 1025 z "},"Ẳ":{"ha":985,"x_min":6,"x_max":978,"o":"m 879 61 l 847 89 l 978 60 l 978 0 l 617 0 l 617 60 l 761 88 l 750 68 l 676 290 l 697 274 l 272 274 l 292 290 l 213 71 l 206 86 l 347 60 l 347 0 l 6 0 l 6 60 l 133 89 l 104 64 l 443 968 l 558 972 l 879 61 m 307 339 l 296 357 l 675 357 l 663 338 l 481 903 l 507 901 l 307 339 m 500 1025 q 410 1044 454 1025 q 339 1102 367 1064 q 310 1196 311 1140 l 378 1204 q 423 1126 385 1151 q 506 1101 461 1101 q 585 1126 550 1101 q 625 1199 621 1150 l 692 1203 q 664 1105 692 1144 q 592 1045 636 1065 q 500 1025 549 1025 m 456 1169 l 456 1254 q 531 1272 504 1257 q 557 1319 557 1288 q 537 1360 557 1349 q 488 1372 517 1372 q 449 1369 469 1372 q 407 1360 428 1367 l 392 1414 q 447 1431 418 1425 q 503 1436 476 1436 q 602 1410 561 1436 q 643 1325 643 1383 q 615 1253 643 1282 q 531 1214 588 1224 l 531 1169 l 456 1169 z "},"Ẵ":{"ha":985,"x_min":6,"x_max":978,"o":"m 879 61 l 847 89 l 978 60 l 978 0 l 617 0 l 617 60 l 761 88 l 750 68 l 676 290 l 697 274 l 272 274 l 292 290 l 213 71 l 206 86 l 347 60 l 347 0 l 6 0 l 6 60 l 133 89 l 104 64 l 443 968 l 558 972 l 879 61 m 307 339 l 296 357 l 675 357 l 663 338 l 481 903 l 507 901 l 307 339 m 339 1231 l 292 1253 q 343 1346 314 1318 q 410 1374 372 1374 q 474 1359 443 1374 q 533 1329 504 1344 q 586 1314 561 1314 q 626 1328 608 1314 q 663 1376 644 1343 l 711 1354 q 658 1261 689 1289 q 589 1233 626 1233 q 528 1248 558 1233 q 470 1278 499 1263 q 414 1293 442 1293 q 374 1278 392 1293 q 339 1231 357 1263 m 503 1025 q 413 1044 456 1025 q 342 1102 369 1064 q 313 1196 314 1140 l 379 1204 q 425 1126 386 1151 q 507 1101 464 1101 q 588 1126 551 1101 q 628 1199 624 1150 l 693 1201 q 667 1105 694 1144 q 594 1045 639 1065 q 503 1025 550 1025 z "},"Â":{"ha":985,"x_min":6,"x_max":978,"o":"m 879 61 l 847 89 l 978 60 l 978 0 l 617 0 l 617 60 l 761 88 l 750 68 l 676 290 l 697 274 l 272 274 l 292 290 l 213 71 l 206 86 l 347 60 l 347 0 l 6 0 l 6 60 l 133 89 l 104 64 l 443 968 l 558 972 l 879 61 m 307 339 l 296 357 l 675 357 l 663 338 l 481 903 l 507 901 l 307 339 m 310 1035 l 271 1082 l 463 1247 l 528 1253 l 731 1082 l 690 1035 l 460 1185 l 533 1183 l 310 1035 z "},"Ấ":{"ha":985,"x_min":6,"x_max":978,"o":"m 879 61 l 847 89 l 978 60 l 978 0 l 617 0 l 617 60 l 761 88 l 750 68 l 676 290 l 697 274 l 272 274 l 292 290 l 213 71 l 206 86 l 347 60 l 347 0 l 6 0 l 6 60 l 133 89 l 104 64 l 443 968 l 558 972 l 879 61 m 307 339 l 296 357 l 675 357 l 663 338 l 481 903 l 507 901 l 307 339 m 674 1164 l 629 1215 l 810 1385 l 872 1315 l 674 1164 m 313 1017 l 274 1064 l 465 1229 l 531 1233 l 733 1064 l 693 1017 l 463 1165 l 536 1165 l 313 1017 z "},"Ậ":{"ha":985,"x_min":6,"x_max":978,"o":"m 879 61 l 847 89 l 978 60 l 978 0 l 617 0 l 617 60 l 761 88 l 750 68 l 676 290 l 697 274 l 272 274 l 292 290 l 213 71 l 206 86 l 347 60 l 347 0 l 6 0 l 6 60 l 133 89 l 104 64 l 443 968 l 558 972 l 879 61 m 307 339 l 296 357 l 675 357 l 663 338 l 481 903 l 507 901 l 307 339 m 310 1035 l 271 1082 l 463 1247 l 528 1253 l 731 1082 l 690 1035 l 460 1185 l 533 1183 l 310 1035 m 483 -253 q 431 -232 451 -253 q 410 -175 410 -211 q 431 -117 410 -137 q 485 -97 453 -97 q 539 -117 518 -97 q 560 -175 560 -136 q 538 -233 560 -212 q 483 -253 515 -253 z "},"Ầ":{"ha":985,"x_min":6,"x_max":978,"o":"m 879 61 l 847 89 l 978 60 l 978 0 l 617 0 l 617 60 l 761 88 l 750 68 l 676 290 l 697 274 l 272 274 l 292 290 l 213 71 l 206 86 l 347 60 l 347 0 l 6 0 l 6 60 l 133 89 l 104 64 l 443 968 l 558 972 l 879 61 m 307 339 l 296 357 l 675 357 l 663 338 l 481 903 l 507 901 l 307 339 m 733 1158 l 551 1328 l 622 1390 l 783 1201 l 733 1158 m 313 1017 l 274 1064 l 465 1229 l 531 1233 l 733 1064 l 693 1017 l 463 1165 l 536 1165 l 313 1017 z "},"Ẩ":{"ha":985,"x_min":6,"x_max":978,"o":"m 879 61 l 847 89 l 978 60 l 978 0 l 617 0 l 617 60 l 761 88 l 750 68 l 676 290 l 697 274 l 272 274 l 292 290 l 213 71 l 206 86 l 347 60 l 347 0 l 6 0 l 6 60 l 133 89 l 104 64 l 443 968 l 558 972 l 879 61 m 307 339 l 296 357 l 675 357 l 663 338 l 481 903 l 507 901 l 307 339 m 313 1011 l 274 1058 l 465 1224 l 531 1229 l 733 1058 l 693 1011 l 463 1161 l 536 1160 l 313 1011 m 636 1181 l 636 1265 q 711 1283 685 1268 q 738 1331 738 1299 q 717 1372 738 1360 q 668 1383 697 1383 q 629 1381 650 1383 q 588 1371 608 1378 l 572 1425 q 628 1442 599 1436 q 683 1447 657 1447 q 783 1421 742 1447 q 824 1336 824 1394 q 796 1264 824 1293 q 711 1225 768 1235 l 711 1181 l 636 1181 z "},"Ẫ":{"ha":985,"x_min":6,"x_max":978,"o":"m 879 61 l 847 89 l 978 60 l 978 0 l 617 0 l 617 60 l 761 88 l 750 68 l 676 290 l 697 274 l 272 274 l 292 290 l 213 71 l 206 86 l 347 60 l 347 0 l 6 0 l 6 60 l 133 89 l 104 64 l 443 968 l 558 972 l 879 61 m 307 339 l 296 357 l 675 357 l 663 338 l 481 903 l 507 901 l 307 339 m 328 1249 l 279 1272 q 333 1365 301 1336 q 404 1393 364 1393 q 471 1378 438 1393 q 534 1348 504 1363 q 589 1333 564 1333 q 632 1347 613 1333 q 671 1396 651 1361 l 721 1374 q 665 1281 697 1308 q 592 1253 632 1253 q 527 1267 558 1253 q 466 1297 496 1282 q 407 1311 436 1311 q 366 1297 385 1311 q 328 1249 347 1282 m 313 1017 l 272 1064 l 464 1229 l 531 1233 l 732 1064 l 692 1017 l 461 1165 l 535 1165 l 313 1017 z "},"Ȁ":{"ha":985,"x_min":6,"x_max":978,"o":"m 879 61 l 847 89 l 978 60 l 978 0 l 617 0 l 617 60 l 761 88 l 750 68 l 676 290 l 697 274 l 272 274 l 292 290 l 213 71 l 206 86 l 347 60 l 347 0 l 6 0 l 6 60 l 133 89 l 104 64 l 443 968 l 558 972 l 879 61 m 307 339 l 296 357 l 675 357 l 663 338 l 481 903 l 507 901 l 307 339 m 401 1033 l 463 1064 l 360 1290 l 276 1246 l 401 1033 m 593 1033 l 654 1063 l 558 1290 l 474 1249 l 593 1033 z "},"Ä":{"ha":985,"x_min":6,"x_max":978,"o":"m 879 61 l 847 89 l 978 60 l 978 0 l 617 0 l 617 60 l 761 88 l 750 68 l 676 290 l 697 274 l 272 274 l 292 290 l 213 71 l 206 86 l 347 60 l 347 0 l 6 0 l 6 60 l 133 89 l 104 64 l 443 968 l 558 972 l 879 61 m 307 339 l 296 357 l 675 357 l 663 338 l 481 903 l 507 901 l 307 339 m 639 1064 q 591 1083 608 1064 q 572 1136 574 1103 q 592 1189 572 1169 q 639 1208 611 1208 q 687 1189 669 1208 q 704 1136 704 1169 q 685 1083 704 1103 q 639 1064 665 1064 m 363 1064 q 315 1083 332 1064 q 297 1136 297 1103 q 316 1189 297 1169 q 363 1208 335 1208 q 411 1189 393 1208 q 429 1136 429 1169 q 410 1083 429 1103 q 363 1064 390 1064 z "},"Ạ":{"ha":985,"x_min":6,"x_max":978,"o":"m 879 61 l 847 89 l 978 60 l 978 0 l 617 0 l 617 60 l 761 88 l 750 68 l 676 290 l 697 274 l 272 274 l 292 290 l 213 71 l 206 86 l 347 60 l 347 0 l 6 0 l 6 60 l 133 89 l 104 64 l 443 968 l 558 972 l 879 61 m 307 339 l 296 357 l 675 357 l 663 338 l 481 903 l 507 901 l 307 339 m 483 -253 q 431 -232 451 -253 q 410 -175 410 -211 q 431 -117 410 -137 q 485 -97 453 -97 q 539 -117 518 -97 q 560 -175 560 -136 q 538 -233 560 -212 q 483 -253 515 -253 z "},"À":{"ha":985,"x_min":6,"x_max":978,"o":"m 879 61 l 847 89 l 978 60 l 978 0 l 617 0 l 617 60 l 761 88 l 750 68 l 676 290 l 697 274 l 272 274 l 292 290 l 213 71 l 206 86 l 347 60 l 347 0 l 6 0 l 6 60 l 133 89 l 104 64 l 443 968 l 558 972 l 879 61 m 307 339 l 296 357 l 675 357 l 663 338 l 481 903 l 507 901 l 307 339 m 633 1042 l 336 1174 l 389 1268 l 665 1106 l 633 1042 z "},"Ả":{"ha":985,"x_min":6,"x_max":978,"o":"m 879 61 l 847 89 l 978 60 l 978 0 l 617 0 l 617 60 l 761 88 l 750 68 l 676 290 l 697 274 l 272 274 l 292 290 l 213 71 l 206 86 l 347 60 l 347 0 l 6 0 l 6 60 l 133 89 l 104 64 l 443 968 l 558 972 l 879 61 m 307 339 l 296 357 l 675 357 l 663 338 l 481 903 l 507 901 l 307 339 m 458 1026 l 458 1111 q 533 1129 507 1114 q 560 1176 560 1144 q 540 1217 560 1206 q 490 1229 519 1229 q 451 1226 472 1229 q 410 1217 431 1224 l 394 1271 q 450 1288 421 1282 q 506 1293 479 1293 q 605 1267 564 1293 q 646 1182 646 1240 q 618 1110 646 1139 q 533 1071 590 1081 l 533 1026 l 458 1026 z "},"Ȃ":{"ha":985,"x_min":6,"x_max":978,"o":"m 879 61 l 847 89 l 978 60 l 978 0 l 617 0 l 617 60 l 761 88 l 750 68 l 676 290 l 697 274 l 272 274 l 292 290 l 213 71 l 206 86 l 347 60 l 347 0 l 6 0 l 6 60 l 133 89 l 104 64 l 443 968 l 558 972 l 879 61 m 307 339 l 296 357 l 675 357 l 663 338 l 481 903 l 507 901 l 307 339 m 500 1231 q 596 1208 554 1231 q 662 1145 638 1186 q 688 1051 686 1104 l 617 1043 q 578 1121 611 1092 q 497 1150 546 1150 q 418 1123 449 1150 q 383 1049 388 1096 l 315 1046 q 338 1142 315 1100 q 403 1207 361 1183 q 500 1231 444 1231 z "},"Ā":{"ha":985,"x_min":6,"x_max":978,"o":"m 879 61 l 847 89 l 978 60 l 978 0 l 617 0 l 617 60 l 761 88 l 750 68 l 676 290 l 697 274 l 272 274 l 292 290 l 213 71 l 206 86 l 347 60 l 347 0 l 6 0 l 6 60 l 133 89 l 104 64 l 443 968 l 558 972 l 879 61 m 307 339 l 296 357 l 675 357 l 663 338 l 481 903 l 507 901 l 307 339 m 686 1175 l 686 1093 l 317 1093 l 317 1175 l 686 1175 z "},"Ą":{"ha":985,"x_min":6,"x_max":978,"o":"m 879 61 l 847 89 l 978 60 l 978 0 l 769 0 l 676 290 l 697 274 l 272 274 l 292 290 l 213 71 l 206 86 l 347 60 l 347 0 l 6 0 l 6 60 l 133 89 l 104 64 l 443 968 l 558 972 l 879 61 m 307 339 l 296 357 l 675 357 l 663 338 l 481 903 l 507 901 l 307 339 m 722 -306 q 599 -267 642 -306 q 557 -176 557 -229 q 583 -87 557 -135 q 667 0 610 -40 q 815 57 725 40 l 835 0 q 689 -63 738 -19 q 640 -150 640 -107 q 671 -208 640 -186 q 754 -231 701 -231 q 787 -228 769 -231 q 824 -222 804 -226 l 831 -287 q 773 -301 800 -296 q 722 -306 746 -306 z "},"Å":{"ha":985,"x_min":6,"x_max":978,"o":"m 879 61 l 847 89 l 978 60 l 978 0 l 617 0 l 617 60 l 761 88 l 750 68 l 676 290 l 697 274 l 272 274 l 292 290 l 213 71 l 206 86 l 347 60 l 347 0 l 6 0 l 6 60 l 133 89 l 104 64 l 443 968 l 558 972 l 879 61 m 307 339 l 296 357 l 675 357 l 663 338 l 481 903 l 507 901 l 307 339 m 500 1018 q 425 1034 458 1018 q 373 1080 392 1050 q 354 1150 354 1110 q 373 1221 354 1190 q 426 1269 392 1251 q 503 1286 460 1286 q 578 1270 546 1286 q 629 1224 610 1254 q 649 1154 649 1194 q 630 1083 649 1114 q 578 1035 611 1053 q 500 1018 544 1018 m 500 1075 q 556 1097 536 1075 q 575 1153 575 1119 q 556 1208 575 1186 q 501 1229 538 1229 q 447 1207 465 1229 q 428 1151 428 1185 q 447 1097 428 1118 q 500 1075 465 1075 z "},"Ǻ":{"ha":985,"x_min":6,"x_max":978,"o":"m 879 61 l 847 89 l 978 60 l 978 0 l 617 0 l 617 60 l 761 88 l 750 68 l 676 290 l 697 274 l 272 274 l 292 290 l 213 71 l 206 86 l 347 60 l 347 0 l 6 0 l 6 60 l 133 89 l 104 64 l 443 968 l 558 972 l 879 61 m 307 339 l 296 357 l 675 357 l 663 338 l 481 903 l 507 901 l 307 339 m 360 1276 l 326 1340 l 611 1492 l 658 1397 l 360 1276 m 500 1013 q 426 1028 458 1013 q 374 1074 393 1044 q 356 1144 356 1104 q 374 1215 356 1185 q 426 1263 393 1246 q 504 1281 460 1281 q 579 1265 547 1281 q 630 1219 611 1249 q 649 1149 649 1189 q 630 1078 649 1108 q 578 1030 611 1047 q 500 1013 546 1013 m 501 1069 q 557 1092 538 1069 q 576 1147 576 1114 q 557 1202 576 1181 q 503 1224 538 1224 q 447 1201 467 1224 q 428 1146 428 1179 q 447 1091 428 1113 q 501 1069 465 1069 z "},"Ã":{"ha":985,"x_min":6,"x_max":978,"o":"m 879 61 l 847 89 l 978 60 l 978 0 l 617 0 l 617 60 l 761 88 l 750 68 l 676 290 l 697 274 l 272 274 l 292 290 l 213 71 l 206 86 l 347 60 l 347 0 l 6 0 l 6 60 l 133 89 l 104 64 l 443 968 l 558 972 l 879 61 m 307 339 l 296 357 l 675 357 l 663 338 l 481 903 l 507 901 l 307 339 m 324 1075 l 274 1099 q 329 1191 297 1163 q 403 1219 361 1219 q 472 1204 438 1219 q 536 1174 506 1189 q 593 1160 567 1160 q 638 1174 617 1160 q 678 1222 658 1188 l 729 1200 q 671 1107 704 1135 q 596 1079 638 1079 q 529 1094 561 1079 q 467 1123 497 1108 q 406 1138 436 1138 q 363 1123 381 1138 q 324 1075 344 1108 z "},"Ǽ":{"ha":1314,"x_min":0,"x_max":1221,"o":"m 0 0 l 0 60 l 131 89 l 97 63 l 524 899 l 538 878 l 400 903 l 400 963 l 665 969 l 1203 969 l 1203 750 l 1133 750 l 1107 908 l 1131 885 l 738 885 l 758 906 l 758 529 l 738 549 l 1101 549 l 1101 467 l 738 467 l 758 489 l 758 64 l 738 85 l 1149 85 l 1125 63 l 1151 228 l 1221 228 l 1219 0 l 529 0 l 529 60 l 663 90 l 644 68 l 644 318 l 665 297 l 307 297 l 335 317 l 206 63 l 197 89 l 342 60 l 342 0 l 0 0 m 354 363 l 340 379 l 665 379 l 644 361 l 644 900 l 665 885 l 601 885 l 628 899 l 354 363 m 672 1042 l 638 1104 l 917 1268 l 965 1175 l 672 1042 z "},"Ć":{"ha":897,"x_min":85,"x_max":831,"o":"m 486 -12 q 283 44 375 -12 q 138 211 192 101 q 85 481 85 321 q 139 750 85 638 q 290 922 193 863 q 517 982 388 982 q 661 965 586 982 q 817 913 736 949 l 807 694 l 739 694 l 714 867 l 735 844 q 623 880 679 868 q 518 892 567 892 q 353 844 422 892 q 245 707 283 796 q 207 494 207 618 q 247 269 207 361 q 358 130 288 178 q 515 82 428 82 q 649 110 579 82 q 785 194 719 138 l 831 126 q 660 22 749 56 q 486 -12 571 -12 m 372 1042 l 338 1104 l 617 1268 l 665 1175 l 372 1042 z "},"Č":{"ha":897,"x_min":85,"x_max":831,"o":"m 486 -12 q 283 44 375 -12 q 138 211 192 101 q 85 481 85 321 q 139 750 85 638 q 290 922 193 863 q 517 982 388 982 q 661 965 586 982 q 817 913 736 949 l 807 694 l 739 694 l 714 867 l 735 844 q 623 880 679 868 q 518 892 567 892 q 353 844 422 892 q 245 707 283 796 q 207 494 207 618 q 247 269 207 361 q 358 130 288 178 q 515 82 428 82 q 649 110 579 82 q 785 194 719 138 l 831 126 q 660 22 749 56 q 486 -12 571 -12 m 682 1265 l 721 1218 l 529 1054 l 464 1049 l 263 1218 l 303 1265 l 532 1117 l 458 1118 l 682 1265 z "},"Ç":{"ha":897,"x_min":85,"x_max":831,"o":"m 486 -12 q 283 44 375 -12 q 138 211 192 101 q 85 481 85 321 q 139 750 85 638 q 290 922 193 863 q 517 982 388 982 q 661 965 586 982 q 817 913 736 949 l 807 694 l 739 694 l 714 867 l 735 844 q 623 880 679 868 q 518 892 567 892 q 353 844 422 892 q 245 707 283 796 q 207 494 207 618 q 247 269 207 361 q 358 130 288 178 q 515 82 428 82 q 649 110 579 82 q 785 194 719 138 l 831 126 q 660 22 749 56 q 486 -12 571 -12 m 504 -324 q 441 -317 474 -324 q 378 -296 408 -310 l 403 -237 q 453 -251 426 -246 q 504 -257 481 -257 q 563 -243 539 -257 q 586 -200 586 -229 q 569 -165 586 -179 q 521 -143 551 -151 q 446 -135 490 -135 l 454 0 l 525 0 l 525 -81 q 637 -119 603 -87 q 671 -196 671 -150 q 648 -267 671 -239 q 588 -310 625 -296 q 504 -324 550 -324 z "},"Ĉ":{"ha":897,"x_min":85,"x_max":831,"o":"m 486 -12 q 283 44 375 -12 q 138 211 192 101 q 85 481 85 321 q 139 750 85 638 q 290 922 193 863 q 517 982 388 982 q 661 965 586 982 q 817 913 736 949 l 807 694 l 739 694 l 714 867 l 735 844 q 623 880 679 868 q 518 892 567 892 q 353 844 422 892 q 245 707 283 796 q 207 494 207 618 q 247 269 207 361 q 358 130 288 178 q 515 82 428 82 q 649 110 579 82 q 785 194 719 138 l 831 126 q 660 22 749 56 q 486 -12 571 -12 m 301 1035 l 263 1082 l 454 1247 l 519 1253 l 722 1082 l 682 1035 l 451 1185 l 525 1183 l 301 1035 z "},"Ċ":{"ha":897,"x_min":85,"x_max":831,"o":"m 486 -12 q 283 44 375 -12 q 138 211 192 101 q 85 481 85 321 q 139 750 85 638 q 290 922 193 863 q 517 982 388 982 q 661 965 586 982 q 817 913 736 949 l 807 694 l 739 694 l 714 867 l 735 844 q 623 880 679 868 q 518 892 567 892 q 353 844 422 892 q 245 707 283 796 q 207 494 207 618 q 247 269 207 361 q 358 130 288 178 q 515 82 428 82 q 649 110 579 82 q 785 194 719 138 l 831 126 q 660 22 749 56 q 486 -12 571 -12 m 490 1064 q 438 1085 458 1064 q 417 1142 417 1106 q 438 1199 417 1179 q 492 1219 460 1219 q 546 1200 525 1219 q 567 1142 567 1181 q 544 1084 567 1104 q 490 1064 522 1064 z "},"Ď":{"ha":997,"x_min":68,"x_max":915,"o":"m 482 969 q 653 941 575 969 q 790 855 732 913 q 882 709 849 797 q 915 500 915 621 q 856 225 915 336 q 694 57 797 114 q 460 0 592 0 l 68 0 l 68 60 l 207 89 l 188 64 l 188 903 l 207 876 l 68 903 l 68 963 l 329 969 l 482 969 m 464 85 q 586 106 528 85 q 692 173 644 126 q 766 298 739 219 q 793 490 793 376 q 767 678 793 603 q 696 799 740 754 q 596 865 651 844 q 479 885 540 885 l 281 885 l 301 906 l 301 64 l 281 85 l 464 85 m 644 1265 l 683 1218 l 492 1054 l 426 1049 l 225 1218 l 265 1265 l 494 1117 l 421 1118 l 644 1265 z "},"Đ":{"ha":997,"x_min":68,"x_max":915,"o":"m 68 456 l 68 535 l 531 535 l 531 456 l 68 456 m 482 969 q 653 941 575 969 q 790 855 732 913 q 882 709 849 797 q 915 500 915 621 q 856 225 915 336 q 694 57 797 114 q 460 0 592 0 l 68 0 l 68 60 l 207 89 l 188 64 l 188 903 l 207 876 l 68 903 l 68 963 l 329 969 l 482 969 m 464 85 q 586 106 528 85 q 692 173 644 126 q 766 298 739 219 q 793 490 793 376 q 767 678 793 603 q 696 799 740 754 q 596 865 651 844 q 479 885 540 885 l 281 885 l 301 906 l 301 64 l 281 85 l 464 85 z "},"É":{"ha":863,"x_min":68,"x_max":769,"o":"m 700 228 l 769 228 l 769 0 l 68 0 l 68 60 l 206 89 l 188 64 l 188 903 l 206 878 l 68 903 l 68 963 l 300 969 l 753 969 l 753 750 l 683 750 l 658 903 l 682 885 l 281 885 l 301 906 l 301 517 l 281 538 l 651 538 l 651 454 l 281 454 l 301 478 l 301 64 l 281 85 l 700 85 l 675 64 l 700 228 m 325 1042 l 290 1104 l 569 1268 l 618 1175 l 325 1042 z "},"Ĕ":{"ha":863,"x_min":68,"x_max":769,"o":"m 700 228 l 769 228 l 769 0 l 68 0 l 68 60 l 206 89 l 188 64 l 188 903 l 206 878 l 68 903 l 68 963 l 300 969 l 753 969 l 753 750 l 683 750 l 658 903 l 682 885 l 281 885 l 301 906 l 301 517 l 281 538 l 651 538 l 651 454 l 281 454 l 301 478 l 301 64 l 281 85 l 700 85 l 675 64 l 700 228 m 444 1057 q 355 1076 399 1057 q 283 1134 311 1096 q 254 1228 256 1172 l 322 1236 q 367 1158 329 1183 q 450 1133 406 1133 q 530 1158 494 1133 q 569 1231 565 1182 l 636 1235 q 608 1137 636 1176 q 537 1077 581 1097 q 444 1057 493 1057 z "},"Ě":{"ha":863,"x_min":68,"x_max":769,"o":"m 700 228 l 769 228 l 769 0 l 68 0 l 68 60 l 206 89 l 188 64 l 188 903 l 206 878 l 68 903 l 68 963 l 300 969 l 753 969 l 753 750 l 683 750 l 658 903 l 682 885 l 281 885 l 301 906 l 301 517 l 281 538 l 651 538 l 651 454 l 281 454 l 301 478 l 301 64 l 281 85 l 700 85 l 675 64 l 700 228 m 635 1265 l 674 1218 l 482 1054 l 417 1049 l 215 1218 l 256 1265 l 485 1117 l 411 1118 l 635 1265 z "},"Ê":{"ha":863,"x_min":68,"x_max":769,"o":"m 700 228 l 769 228 l 769 0 l 68 0 l 68 60 l 206 89 l 188 64 l 188 903 l 206 878 l 68 903 l 68 963 l 300 969 l 753 969 l 753 750 l 683 750 l 658 903 l 682 885 l 281 885 l 301 906 l 301 517 l 281 538 l 651 538 l 651 454 l 281 454 l 301 478 l 301 64 l 281 85 l 700 85 l 675 64 l 700 228 m 254 1035 l 215 1082 l 407 1247 l 472 1253 l 675 1082 l 635 1035 l 404 1185 l 478 1183 l 254 1035 z "},"Ế":{"ha":863,"x_min":68,"x_max":817,"o":"m 700 228 l 769 228 l 769 0 l 68 0 l 68 60 l 206 89 l 188 64 l 188 903 l 206 878 l 68 903 l 68 963 l 300 969 l 753 969 l 753 750 l 683 750 l 658 903 l 682 885 l 281 885 l 301 906 l 301 517 l 281 538 l 651 538 l 651 454 l 281 454 l 301 478 l 301 64 l 281 85 l 700 85 l 675 64 l 700 228 m 618 1164 l 574 1215 l 754 1385 l 817 1315 l 618 1164 m 257 1017 l 218 1064 l 410 1229 l 475 1233 l 678 1064 l 638 1017 l 407 1165 l 481 1165 l 257 1017 z "},"Ệ":{"ha":863,"x_min":68,"x_max":769,"o":"m 700 228 l 769 228 l 769 0 l 68 0 l 68 60 l 206 89 l 188 64 l 188 903 l 206 878 l 68 903 l 68 963 l 300 969 l 753 969 l 753 750 l 683 750 l 658 903 l 682 885 l 281 885 l 301 906 l 301 517 l 281 538 l 651 538 l 651 454 l 281 454 l 301 478 l 301 64 l 281 85 l 700 85 l 675 64 l 700 228 m 254 1035 l 215 1082 l 407 1247 l 472 1253 l 675 1082 l 635 1035 l 404 1185 l 478 1183 l 254 1035 m 438 -253 q 385 -232 406 -253 q 364 -175 364 -211 q 385 -117 364 -137 q 439 -97 407 -97 q 493 -117 472 -97 q 514 -175 514 -136 q 492 -233 514 -212 q 438 -253 469 -253 z "},"Ề":{"ha":863,"x_min":68,"x_max":769,"o":"m 700 228 l 769 228 l 769 0 l 68 0 l 68 60 l 206 89 l 188 64 l 188 903 l 206 878 l 68 903 l 68 963 l 300 969 l 753 969 l 753 750 l 683 750 l 658 903 l 682 885 l 281 885 l 301 906 l 301 517 l 281 538 l 651 538 l 651 454 l 281 454 l 301 478 l 301 64 l 281 85 l 700 85 l 675 64 l 700 228 m 676 1158 l 494 1328 l 565 1390 l 726 1201 l 676 1158 m 256 1017 l 217 1064 l 408 1229 l 474 1233 l 676 1064 l 636 1017 l 406 1165 l 479 1165 l 256 1017 z "},"Ể":{"ha":863,"x_min":68,"x_max":769,"o":"m 700 228 l 769 228 l 769 0 l 68 0 l 68 60 l 206 89 l 188 64 l 188 903 l 206 878 l 68 903 l 68 963 l 300 969 l 753 969 l 753 750 l 683 750 l 658 903 l 682 885 l 281 885 l 301 906 l 301 517 l 281 538 l 651 538 l 651 454 l 281 454 l 301 478 l 301 64 l 281 85 l 700 85 l 675 64 l 700 228 m 257 1011 l 218 1058 l 410 1224 l 475 1229 l 678 1058 l 638 1011 l 407 1161 l 481 1160 l 257 1011 m 581 1181 l 581 1265 q 656 1283 629 1268 q 682 1331 682 1299 q 662 1372 682 1360 q 613 1383 642 1383 q 574 1381 594 1383 q 532 1371 553 1378 l 517 1425 q 572 1442 543 1436 q 628 1447 601 1447 q 727 1421 686 1447 q 768 1336 768 1394 q 740 1264 768 1293 q 656 1225 713 1235 l 656 1181 l 581 1181 z "},"Ễ":{"ha":863,"x_min":68,"x_max":769,"o":"m 700 228 l 769 228 l 769 0 l 68 0 l 68 60 l 206 89 l 188 64 l 188 903 l 206 878 l 68 903 l 68 963 l 300 969 l 753 969 l 753 750 l 683 750 l 658 903 l 682 885 l 281 885 l 301 906 l 301 517 l 281 538 l 651 538 l 651 454 l 281 454 l 301 478 l 301 64 l 281 85 l 700 85 l 675 64 l 700 228 m 272 1249 l 224 1272 q 277 1365 246 1336 q 349 1393 308 1393 q 415 1378 382 1393 q 478 1348 449 1363 q 533 1333 508 1333 q 576 1347 557 1333 q 615 1396 596 1361 l 665 1374 q 609 1281 642 1308 q 536 1253 576 1253 q 472 1267 503 1253 q 410 1297 440 1282 q 351 1311 381 1311 q 310 1297 329 1311 q 272 1249 292 1282 m 257 1017 l 217 1064 l 408 1229 l 475 1233 l 676 1064 l 636 1017 l 406 1165 l 479 1165 l 257 1017 z "},"Ȅ":{"ha":863,"x_min":68,"x_max":769,"o":"m 700 228 l 769 228 l 769 0 l 68 0 l 68 60 l 206 89 l 188 64 l 188 903 l 206 878 l 68 903 l 68 963 l 300 969 l 753 969 l 753 750 l 683 750 l 658 903 l 682 885 l 281 885 l 301 906 l 301 517 l 281 538 l 651 538 l 651 454 l 281 454 l 301 478 l 301 64 l 281 85 l 700 85 l 675 64 l 700 228 m 346 1033 l 407 1064 l 304 1290 l 221 1246 l 346 1033 m 538 1033 l 599 1063 l 503 1290 l 418 1249 l 538 1033 z "},"Ë":{"ha":863,"x_min":68,"x_max":769,"o":"m 700 228 l 769 228 l 769 0 l 68 0 l 68 60 l 206 89 l 188 64 l 188 903 l 206 878 l 68 903 l 68 963 l 300 969 l 753 969 l 753 750 l 683 750 l 658 903 l 682 885 l 281 885 l 301 906 l 301 517 l 281 538 l 651 538 l 651 454 l 281 454 l 301 478 l 301 64 l 281 85 l 700 85 l 675 64 l 700 228 m 583 1064 q 535 1083 553 1064 q 517 1136 518 1103 q 536 1189 517 1169 q 583 1208 556 1208 q 631 1189 614 1208 q 649 1136 649 1169 q 629 1083 649 1103 q 583 1064 610 1064 m 307 1064 q 259 1083 276 1064 q 242 1136 242 1103 q 260 1189 242 1169 q 307 1208 279 1208 q 356 1189 338 1208 q 374 1136 374 1169 q 354 1083 374 1103 q 307 1064 335 1064 z "},"Ė":{"ha":863,"x_min":68,"x_max":769,"o":"m 700 228 l 769 228 l 769 0 l 68 0 l 68 60 l 206 89 l 188 64 l 188 903 l 206 878 l 68 903 l 68 963 l 300 969 l 753 969 l 753 750 l 683 750 l 658 903 l 682 885 l 281 885 l 301 906 l 301 517 l 281 538 l 651 538 l 651 454 l 281 454 l 301 478 l 301 64 l 281 85 l 700 85 l 675 64 l 700 228 m 443 1064 q 390 1085 411 1064 q 369 1142 369 1106 q 391 1199 369 1179 q 444 1219 413 1219 q 499 1200 478 1219 q 519 1142 519 1181 q 497 1084 519 1104 q 443 1064 475 1064 z "},"Ẹ":{"ha":863,"x_min":68,"x_max":769,"o":"m 700 228 l 769 228 l 769 0 l 68 0 l 68 60 l 206 89 l 188 64 l 188 903 l 206 878 l 68 903 l 68 963 l 300 969 l 753 969 l 753 750 l 683 750 l 658 903 l 682 885 l 281 885 l 301 906 l 301 517 l 281 538 l 651 538 l 651 454 l 281 454 l 301 478 l 301 64 l 281 85 l 700 85 l 675 64 l 700 228 m 438 -253 q 385 -232 406 -253 q 364 -175 364 -211 q 385 -117 364 -137 q 439 -97 407 -97 q 493 -117 472 -97 q 514 -175 514 -136 q 492 -233 514 -212 q 438 -253 469 -253 z "},"È":{"ha":863,"x_min":68,"x_max":769,"o":"m 700 228 l 769 228 l 769 0 l 68 0 l 68 60 l 206 89 l 188 64 l 188 903 l 206 878 l 68 903 l 68 963 l 300 969 l 753 969 l 753 750 l 683 750 l 658 903 l 682 885 l 281 885 l 301 906 l 301 517 l 281 538 l 651 538 l 651 454 l 281 454 l 301 478 l 301 64 l 281 85 l 700 85 l 675 64 l 700 228 m 578 1042 l 281 1174 l 333 1268 l 610 1106 l 578 1042 z "},"Ẻ":{"ha":863,"x_min":68,"x_max":769,"o":"m 700 228 l 769 228 l 769 0 l 68 0 l 68 60 l 206 89 l 188 64 l 188 903 l 206 878 l 68 903 l 68 963 l 300 969 l 753 969 l 753 750 l 683 750 l 658 903 l 682 885 l 281 885 l 301 906 l 301 517 l 281 538 l 651 538 l 651 454 l 281 454 l 301 478 l 301 64 l 281 85 l 700 85 l 675 64 l 700 228 m 403 1026 l 403 1111 q 478 1129 451 1114 q 504 1176 504 1144 q 484 1217 504 1206 q 435 1229 464 1229 q 396 1226 417 1229 q 354 1217 375 1224 l 339 1271 q 394 1288 365 1282 q 450 1293 424 1293 q 549 1267 508 1293 q 590 1182 590 1240 q 563 1110 590 1139 q 478 1071 535 1081 l 478 1026 l 403 1026 z "},"Ȇ":{"ha":863,"x_min":68,"x_max":769,"o":"m 700 228 l 769 228 l 769 0 l 68 0 l 68 60 l 206 89 l 188 64 l 188 903 l 206 878 l 68 903 l 68 963 l 300 969 l 753 969 l 753 750 l 683 750 l 658 903 l 682 885 l 281 885 l 301 906 l 301 517 l 281 538 l 651 538 l 651 454 l 281 454 l 301 478 l 301 64 l 281 85 l 700 85 l 675 64 l 700 228 m 444 1231 q 540 1208 499 1231 q 606 1145 582 1186 q 632 1051 631 1104 l 561 1043 q 523 1121 556 1092 q 442 1150 490 1150 q 363 1123 393 1150 q 328 1049 332 1096 l 260 1046 q 283 1142 260 1100 q 347 1207 306 1183 q 444 1231 389 1231 z "},"Ē":{"ha":863,"x_min":68,"x_max":769,"o":"m 700 228 l 769 228 l 769 0 l 68 0 l 68 60 l 206 89 l 188 64 l 188 903 l 206 878 l 68 903 l 68 963 l 300 969 l 753 969 l 753 750 l 683 750 l 658 903 l 682 885 l 281 885 l 301 906 l 301 517 l 281 538 l 651 538 l 651 454 l 281 454 l 301 478 l 301 64 l 281 85 l 700 85 l 675 64 l 700 228 m 631 1175 l 631 1093 l 261 1093 l 261 1175 l 631 1175 z "},"Ŋ":{"ha":1111,"x_min":68,"x_max":1060,"o":"m 693 -332 q 656 -331 674 -332 q 619 -326 638 -329 l 629 -244 q 656 -247 643 -246 q 682 -247 669 -247 q 789 -215 756 -247 q 822 -110 822 -183 l 822 19 l 832 -18 l 272 835 l 288 836 l 288 64 l 268 89 l 426 60 l 426 0 l 68 0 l 68 60 l 213 89 l 193 64 l 193 904 l 207 879 l 68 903 l 68 963 l 324 969 l 854 146 l 839 146 l 839 904 l 860 879 l 700 901 l 700 963 l 1060 969 l 1060 910 l 915 878 l 935 904 l 935 -96 q 900 -237 935 -186 q 810 -310 865 -289 q 693 -332 754 -332 z "},"Ę":{"ha":863,"x_min":68,"x_max":769,"o":"m 700 228 l 769 228 l 769 0 l 68 0 l 68 60 l 206 89 l 188 64 l 188 903 l 206 878 l 68 903 l 68 963 l 300 969 l 753 969 l 753 750 l 683 750 l 658 903 l 682 885 l 281 885 l 301 906 l 301 517 l 281 538 l 651 538 l 651 454 l 281 454 l 301 478 l 301 64 l 281 85 l 700 85 l 675 64 l 700 228 m 656 -306 q 533 -267 575 -306 q 490 -176 490 -229 q 517 -87 490 -135 q 601 0 543 -40 q 749 57 658 40 l 768 0 q 622 -63 671 -19 q 574 -150 574 -107 q 604 -208 574 -186 q 688 -231 635 -231 q 720 -228 703 -231 q 757 -222 738 -226 l 764 -287 q 706 -301 733 -296 q 656 -306 679 -306 z "},"Ð":{"ha":997,"x_min":68,"x_max":915,"o":"m 68 456 l 68 535 l 531 535 l 531 456 l 68 456 m 482 969 q 653 941 575 969 q 790 855 732 913 q 882 709 849 797 q 915 500 915 621 q 856 225 915 336 q 694 57 797 114 q 460 0 592 0 l 68 0 l 68 60 l 207 89 l 188 64 l 188 903 l 207 876 l 68 903 l 68 963 l 329 969 l 482 969 m 464 85 q 586 106 528 85 q 692 173 644 126 q 766 298 739 219 q 793 490 793 376 q 767 678 793 603 q 696 799 740 754 q 596 865 651 844 q 479 885 540 885 l 281 885 l 301 906 l 301 64 l 281 85 l 464 85 z "},"Ẽ":{"ha":863,"x_min":68,"x_max":769,"o":"m 700 228 l 769 228 l 769 0 l 68 0 l 68 60 l 206 89 l 188 64 l 188 903 l 206 878 l 68 903 l 68 963 l 300 969 l 753 969 l 753 750 l 683 750 l 658 903 l 682 885 l 281 885 l 301 906 l 301 517 l 281 538 l 651 538 l 651 454 l 281 454 l 301 478 l 301 64 l 281 85 l 700 85 l 675 64 l 700 228 m 268 1075 l 218 1099 q 274 1191 242 1163 q 347 1219 306 1219 q 416 1204 382 1219 q 481 1174 450 1189 q 538 1160 511 1160 q 582 1174 561 1160 q 622 1222 603 1188 l 674 1200 q 615 1107 649 1135 q 540 1079 582 1079 q 474 1094 506 1079 q 411 1123 442 1108 q 350 1138 381 1138 q 307 1123 325 1138 q 268 1075 289 1108 z "},"Ğ":{"ha":1025,"x_min":83,"x_max":979,"o":"m 528 -11 q 293 44 393 -11 q 138 208 193 99 q 83 475 83 317 q 139 749 83 636 q 298 922 194 863 q 543 982 401 982 q 701 965 618 982 q 868 911 783 947 l 858 694 l 789 694 l 765 865 l 783 846 q 663 879 725 867 q 544 892 600 892 q 364 843 440 892 q 247 702 288 794 q 206 478 206 610 q 294 183 206 286 q 542 79 383 79 q 652 91 594 79 q 772 126 710 103 l 757 100 l 757 400 l 778 379 l 636 397 l 636 460 l 979 467 l 979 404 l 849 378 l 864 400 l 864 63 q 689 7 774 25 q 528 -11 604 -11 m 525 1057 q 435 1076 479 1057 q 364 1134 392 1096 q 335 1228 336 1172 l 403 1236 q 448 1158 410 1183 q 531 1133 486 1133 q 610 1158 575 1133 q 650 1231 646 1182 l 717 1235 q 689 1137 717 1176 q 617 1077 661 1097 q 525 1057 574 1057 z "},"Ǧ":{"ha":1025,"x_min":83,"x_max":979,"o":"m 528 -11 q 293 44 393 -11 q 138 208 193 99 q 83 475 83 317 q 139 749 83 636 q 298 922 194 863 q 543 982 401 982 q 701 965 618 982 q 868 911 783 947 l 858 694 l 789 694 l 765 865 l 783 846 q 663 879 725 867 q 544 892 600 892 q 364 843 440 892 q 247 702 288 794 q 206 478 206 610 q 294 183 206 286 q 542 79 383 79 q 652 91 594 79 q 772 126 710 103 l 757 100 l 757 400 l 778 379 l 636 397 l 636 460 l 979 467 l 979 404 l 849 378 l 864 400 l 864 63 q 689 7 774 25 q 528 -11 604 -11 m 715 1265 l 754 1218 l 563 1054 l 497 1049 l 296 1218 l 336 1265 l 565 1117 l 492 1118 l 715 1265 z "},"Ĝ":{"ha":1025,"x_min":83,"x_max":979,"o":"m 528 -11 q 293 44 393 -11 q 138 208 193 99 q 83 475 83 317 q 139 749 83 636 q 298 922 194 863 q 543 982 401 982 q 701 965 618 982 q 868 911 783 947 l 858 694 l 789 694 l 765 865 l 783 846 q 663 879 725 867 q 544 892 600 892 q 364 843 440 892 q 247 702 288 794 q 206 478 206 610 q 294 183 206 286 q 542 79 383 79 q 652 91 594 79 q 772 126 710 103 l 757 100 l 757 400 l 778 379 l 636 397 l 636 460 l 979 467 l 979 404 l 849 378 l 864 400 l 864 63 q 689 7 774 25 q 528 -11 604 -11 m 335 1035 l 296 1082 l 488 1247 l 553 1253 l 756 1082 l 715 1035 l 485 1185 l 558 1183 l 335 1035 z "},"Ģ":{"ha":1025,"x_min":83,"x_max":979,"o":"m 528 -11 q 293 44 393 -11 q 138 208 193 99 q 83 475 83 317 q 139 749 83 636 q 298 922 194 863 q 543 982 401 982 q 701 965 618 982 q 868 911 783 947 l 858 694 l 789 694 l 765 865 l 783 846 q 663 879 725 867 q 544 892 600 892 q 364 843 440 892 q 247 702 288 794 q 206 478 206 610 q 294 183 206 286 q 542 79 383 79 q 652 91 594 79 q 772 126 710 103 l 757 100 l 757 400 l 778 379 l 636 397 l 636 460 l 979 467 l 979 404 l 849 378 l 864 400 l 864 63 q 689 7 774 25 q 528 -11 604 -11 m 485 -382 l 443 -356 q 478 -285 469 -312 q 488 -244 488 -258 q 480 -219 488 -229 q 465 -196 472 -208 q 457 -162 457 -183 q 478 -114 457 -131 q 525 -97 500 -97 q 572 -115 550 -97 q 593 -169 593 -132 q 567 -260 593 -206 q 485 -382 542 -314 z "},"Ġ":{"ha":1025,"x_min":83,"x_max":979,"o":"m 528 -11 q 293 44 393 -11 q 138 208 193 99 q 83 475 83 317 q 139 749 83 636 q 298 922 194 863 q 543 982 401 982 q 701 965 618 982 q 868 911 783 947 l 858 694 l 789 694 l 765 865 l 783 846 q 663 879 725 867 q 544 892 600 892 q 364 843 440 892 q 247 702 288 794 q 206 478 206 610 q 294 183 206 286 q 542 79 383 79 q 652 91 594 79 q 772 126 710 103 l 757 100 l 757 400 l 778 379 l 636 397 l 636 460 l 979 467 l 979 404 l 849 378 l 864 400 l 864 63 q 689 7 774 25 q 528 -11 604 -11 m 525 1064 q 472 1085 493 1064 q 451 1142 451 1106 q 473 1199 451 1179 q 526 1219 494 1219 q 581 1200 560 1219 q 601 1142 601 1181 q 579 1084 601 1104 q 525 1064 557 1064 z "},"Ħ":{"ha":1119,"x_min":75,"x_max":1046,"o":"m 75 685 l 75 746 l 1046 746 l 1046 685 l 75 685 m 75 0 l 75 60 l 213 89 l 194 64 l 194 904 l 217 878 l 75 903 l 75 963 l 429 969 l 429 910 l 289 878 l 308 904 l 308 506 l 288 526 l 832 526 l 811 506 l 811 904 l 832 878 l 692 903 l 692 963 l 1046 969 l 1046 910 l 907 878 l 925 904 l 925 64 l 907 89 l 1046 60 l 1046 0 l 692 0 l 692 60 l 829 89 l 811 64 l 811 464 l 832 444 l 288 444 l 308 464 l 308 64 l 290 89 l 429 60 l 429 0 l 75 0 z "},"Ĥ":{"ha":1106,"x_min":68,"x_max":1039,"o":"m 68 0 l 68 60 l 206 89 l 188 64 l 188 904 l 210 878 l 68 903 l 68 963 l 422 969 l 422 910 l 282 878 l 301 904 l 301 515 l 281 536 l 825 536 l 804 515 l 804 904 l 825 878 l 685 903 l 685 963 l 1039 969 l 1039 910 l 900 878 l 918 904 l 918 64 l 900 89 l 1039 60 l 1039 0 l 685 0 l 685 60 l 822 89 l 804 64 l 804 471 l 825 451 l 281 451 l 301 471 l 301 64 l 283 89 l 422 60 l 422 0 l 68 0 m 361 1035 l 322 1082 l 514 1247 l 579 1253 l 782 1082 l 742 1035 l 511 1185 l 585 1183 l 361 1035 z "},"Í":{"ha":489,"x_min":68,"x_max":422,"o":"m 422 910 l 286 879 l 301 899 l 301 68 l 286 88 l 422 60 l 422 0 l 68 0 l 68 60 l 203 88 l 188 68 l 188 899 l 206 878 l 68 903 l 68 963 l 422 969 l 422 910 m 124 1042 l 89 1104 l 368 1268 l 417 1175 l 124 1042 z "},"Ĭ":{"ha":489,"x_min":54,"x_max":436,"o":"m 422 910 l 286 879 l 301 899 l 301 68 l 286 88 l 422 60 l 422 0 l 68 0 l 68 60 l 203 88 l 188 68 l 188 899 l 206 878 l 68 903 l 68 963 l 422 969 l 422 910 m 243 1057 q 153 1076 197 1057 q 82 1134 110 1096 q 53 1228 54 1172 l 121 1236 q 166 1158 128 1183 q 249 1133 204 1133 q 328 1158 293 1133 q 368 1231 364 1182 l 435 1235 q 407 1137 435 1176 q 335 1077 379 1097 q 243 1057 292 1057 z "},"Î":{"ha":489,"x_min":14,"x_max":474,"o":"m 422 910 l 286 879 l 301 899 l 301 68 l 286 88 l 422 60 l 422 0 l 68 0 l 68 60 l 203 88 l 188 68 l 188 899 l 206 878 l 68 903 l 68 963 l 422 969 l 422 910 m 53 1035 l 14 1082 l 206 1247 l 271 1253 l 474 1082 l 433 1035 l 203 1185 l 276 1183 l 53 1035 z "},"Ȉ":{"ha":489,"x_min":19,"x_max":422,"o":"m 422 910 l 286 879 l 301 899 l 301 68 l 286 88 l 422 60 l 422 0 l 68 0 l 68 60 l 203 88 l 188 68 l 188 899 l 206 878 l 68 903 l 68 963 l 422 969 l 422 910 m 144 1033 l 206 1064 l 103 1290 l 19 1246 l 144 1033 m 336 1033 l 397 1063 l 301 1290 l 217 1249 l 336 1033 z "},"Ï":{"ha":489,"x_min":40,"x_max":447,"o":"m 422 910 l 286 879 l 301 899 l 301 68 l 286 88 l 422 60 l 422 0 l 68 0 l 68 60 l 203 88 l 188 68 l 188 899 l 206 878 l 68 903 l 68 963 l 422 969 l 422 910 m 382 1064 q 334 1083 351 1064 q 315 1136 317 1103 q 335 1189 315 1169 q 382 1208 354 1208 q 430 1189 413 1208 q 447 1136 447 1169 q 428 1083 447 1103 q 382 1064 408 1064 m 106 1064 q 58 1083 75 1064 q 40 1136 40 1103 q 59 1189 40 1169 q 106 1208 78 1208 q 154 1189 136 1208 q 172 1136 172 1169 q 153 1083 172 1103 q 106 1064 133 1064 z "},"İ":{"ha":489,"x_min":68,"x_max":422,"o":"m 422 910 l 286 879 l 301 899 l 301 68 l 286 88 l 422 60 l 422 0 l 68 0 l 68 60 l 203 88 l 188 68 l 188 899 l 206 878 l 68 903 l 68 963 l 422 969 l 422 910 m 243 1064 q 190 1085 211 1064 q 169 1142 169 1106 q 191 1199 169 1179 q 244 1219 213 1219 q 299 1200 278 1219 q 319 1142 319 1181 q 297 1084 319 1104 q 243 1064 275 1064 z "},"Ị":{"ha":489,"x_min":68,"x_max":422,"o":"m 422 910 l 286 879 l 301 899 l 301 68 l 286 88 l 422 60 l 422 0 l 68 0 l 68 60 l 203 88 l 188 68 l 188 899 l 206 878 l 68 903 l 68 963 l 422 969 l 422 910 m 243 -253 q 190 -232 211 -253 q 169 -175 169 -211 q 191 -117 169 -137 q 244 -97 213 -97 q 299 -117 278 -97 q 319 -175 319 -136 q 297 -233 319 -212 q 243 -253 275 -253 z "},"Ì":{"ha":489,"x_min":68,"x_max":422,"o":"m 422 910 l 286 879 l 301 899 l 301 68 l 286 88 l 422 60 l 422 0 l 68 0 l 68 60 l 203 88 l 188 68 l 188 899 l 206 878 l 68 903 l 68 963 l 422 969 l 422 910 m 376 1042 l 79 1174 l 132 1268 l 408 1106 l 376 1042 z "},"Ỉ":{"ha":489,"x_min":68,"x_max":422,"o":"m 422 910 l 286 879 l 301 899 l 301 68 l 286 88 l 422 60 l 422 0 l 68 0 l 68 60 l 203 88 l 188 68 l 188 899 l 206 878 l 68 903 l 68 963 l 422 969 l 422 910 m 201 1026 l 201 1111 q 276 1129 250 1114 q 303 1176 303 1144 q 283 1217 303 1206 q 233 1229 263 1229 q 194 1226 215 1229 q 153 1217 174 1224 l 138 1271 q 193 1288 164 1282 q 249 1293 222 1293 q 348 1267 307 1293 q 389 1182 389 1240 q 361 1110 389 1139 q 276 1071 333 1081 l 276 1026 l 201 1026 z "},"Ȋ":{"ha":489,"x_min":58,"x_max":431,"o":"m 422 910 l 286 879 l 301 899 l 301 68 l 286 88 l 422 60 l 422 0 l 68 0 l 68 60 l 203 88 l 188 68 l 188 899 l 206 878 l 68 903 l 68 963 l 422 969 l 422 910 m 243 1231 q 339 1208 297 1231 q 405 1145 381 1186 q 431 1051 429 1104 l 360 1043 q 322 1121 354 1092 q 240 1150 289 1150 q 161 1123 192 1150 q 126 1049 131 1096 l 58 1046 q 81 1142 58 1100 q 146 1207 104 1183 q 243 1231 188 1231 z "},"Ī":{"ha":489,"x_min":60,"x_max":429,"o":"m 422 910 l 286 879 l 301 899 l 301 68 l 286 88 l 422 60 l 422 0 l 68 0 l 68 60 l 203 88 l 188 68 l 188 899 l 206 878 l 68 903 l 68 963 l 422 969 l 422 910 m 429 1175 l 429 1093 l 60 1093 l 60 1175 l 429 1175 z "},"Į":{"ha":489,"x_min":68,"x_max":422,"o":"m 422 910 l 286 879 l 301 899 l 301 68 l 286 88 l 422 60 l 422 0 l 68 0 l 68 60 l 203 88 l 188 68 l 188 899 l 206 878 l 68 903 l 68 963 l 422 969 l 422 910 m 285 -306 q 169 -270 213 -306 q 125 -176 125 -235 q 151 -91 125 -135 q 227 -10 176 -47 q 354 53 278 28 l 368 0 q 250 -72 290 -29 q 210 -153 210 -114 q 239 -208 210 -186 q 317 -231 268 -231 q 343 -228 329 -231 q 371 -224 357 -226 l 379 -290 q 330 -301 353 -297 q 285 -306 307 -306 z "},"Ĩ":{"ha":489,"x_min":17,"x_max":472,"o":"m 422 910 l 286 879 l 301 899 l 301 68 l 286 88 l 422 60 l 422 0 l 68 0 l 68 60 l 203 88 l 188 68 l 188 899 l 206 878 l 68 903 l 68 963 l 422 969 l 422 910 m 67 1075 l 17 1099 q 72 1191 40 1163 q 146 1219 104 1219 q 215 1204 181 1219 q 279 1174 249 1189 q 336 1160 310 1160 q 381 1174 360 1160 q 421 1222 401 1188 l 472 1200 q 414 1107 447 1135 q 339 1079 381 1079 q 272 1094 304 1079 q 210 1123 240 1108 q 149 1138 179 1138 q 106 1123 124 1138 q 67 1075 88 1108 z "},"Ĵ":{"ha":460,"x_min":-29,"x_max":457,"o":"m 42 963 l 408 969 l 408 910 l 272 878 l 288 904 l 288 76 q 274 -44 288 8 q 233 -131 261 -96 q 159 -183 204 -165 q 50 -201 114 -201 q 11 -199 31 -201 q -29 -194 -8 -197 l -19 -111 q 4 -113 -7 -112 q 28 -114 15 -114 q 140 -73 107 -114 q 174 56 174 -32 l 174 904 l 190 881 l 42 903 l 42 963 m 36 1035 l -3 1082 l 189 1247 l 254 1253 l 457 1082 l 417 1035 l 186 1185 l 260 1183 l 36 1035 z "},"Ķ":{"ha":985,"x_min":68,"x_max":964,"o":"m 868 64 l 833 88 l 964 60 l 964 0 l 618 0 l 618 60 l 742 88 l 736 67 l 456 476 l 492 454 l 281 454 l 301 478 l 301 64 l 283 90 l 419 60 l 419 0 l 68 0 l 68 60 l 204 88 l 188 64 l 188 904 l 203 881 l 68 903 l 68 963 l 419 969 l 419 910 l 285 879 l 301 907 l 301 518 l 281 539 l 493 539 l 460 518 l 693 903 l 704 883 l 571 903 l 571 963 l 908 969 l 908 910 l 775 879 l 804 901 l 547 488 l 547 519 l 868 64 m 443 -382 l 401 -356 q 437 -285 428 -312 q 446 -244 446 -258 q 438 -219 446 -229 q 423 -196 431 -208 q 415 -162 415 -183 q 437 -114 415 -131 q 483 -97 458 -97 q 530 -115 508 -97 q 551 -169 551 -132 q 526 -260 551 -206 q 443 -382 500 -314 z "},"Ĺ":{"ha":768,"x_min":68,"x_max":731,"o":"m 661 247 l 731 247 l 731 0 l 68 0 l 68 60 l 204 88 l 188 64 l 188 903 l 204 878 l 68 903 l 68 963 l 438 969 l 438 910 l 286 878 l 301 903 l 301 64 l 281 85 l 654 85 l 635 64 l 661 247 m 124 1042 l 89 1104 l 368 1268 l 417 1175 l 124 1042 z "},"Ľ":{"ha":768,"x_min":68,"x_max":731,"o":"m 661 247 l 731 247 l 731 0 l 68 0 l 68 60 l 204 88 l 188 64 l 188 903 l 204 878 l 68 903 l 68 963 l 438 969 l 438 910 l 286 878 l 301 903 l 301 64 l 281 85 l 654 85 l 635 64 l 661 247 m 613 704 l 546 715 q 570 856 561 789 q 578 982 579 922 l 682 976 q 658 853 675 922 q 613 704 640 785 z "},"Ļ":{"ha":768,"x_min":68,"x_max":731,"o":"m 661 247 l 731 247 l 731 0 l 68 0 l 68 60 l 204 88 l 188 64 l 188 903 l 204 878 l 68 903 l 68 963 l 438 969 l 438 910 l 286 878 l 301 903 l 301 64 l 281 85 l 654 85 l 635 64 l 661 247 m 388 -382 l 346 -356 q 381 -285 372 -312 q 390 -244 390 -258 q 383 -219 390 -229 q 367 -196 375 -208 q 360 -162 360 -183 q 381 -114 360 -131 q 428 -97 403 -97 q 474 -115 453 -97 q 496 -169 496 -132 q 470 -260 496 -206 q 388 -382 444 -314 z "},"Ŀ":{"ha":793,"x_min":68,"x_max":731,"o":"m 661 247 l 731 247 l 731 0 l 68 0 l 68 60 l 204 88 l 188 64 l 188 903 l 204 878 l 68 903 l 68 963 l 438 969 l 438 910 l 286 878 l 301 903 l 301 64 l 281 85 l 654 85 l 635 64 l 661 247 m 551 540 q 574 593 551 574 q 625 613 596 613 q 678 593 658 613 q 697 540 697 574 q 676 488 697 507 q 625 468 654 468 q 572 488 592 468 q 551 540 551 507 z "},"Ł":{"ha":790,"x_min":68,"x_max":753,"o":"m 68 392 l 550 669 l 579 607 l 96 329 l 68 392 m 683 247 l 753 247 l 753 0 l 90 0 l 90 60 l 228 88 l 211 64 l 211 903 l 228 878 l 90 903 l 90 963 l 460 969 l 460 910 l 310 878 l 325 903 l 325 64 l 304 85 l 676 85 l 657 64 l 683 247 z "},"Ń":{"ha":1100,"x_min":68,"x_max":1050,"o":"m 713 963 l 1050 969 l 1050 910 l 911 878 l 929 904 l 929 0 l 801 0 l 268 849 l 285 850 l 285 64 l 264 89 l 404 60 l 404 0 l 68 0 l 68 60 l 208 89 l 188 64 l 188 904 l 203 879 l 68 903 l 68 963 l 324 969 l 850 135 l 833 133 l 833 904 l 853 879 l 713 903 l 713 963 m 447 1042 l 413 1104 l 692 1268 l 740 1175 l 447 1042 z "},"Ň":{"ha":1100,"x_min":68,"x_max":1050,"o":"m 713 963 l 1050 969 l 1050 910 l 911 878 l 929 904 l 929 0 l 801 0 l 268 849 l 285 850 l 285 64 l 264 89 l 404 60 l 404 0 l 68 0 l 68 60 l 208 89 l 188 64 l 188 904 l 203 879 l 68 903 l 68 963 l 324 969 l 850 135 l 833 133 l 833 904 l 853 879 l 713 903 l 713 963 m 757 1265 l 796 1218 l 604 1054 l 539 1049 l 338 1218 l 378 1265 l 607 1117 l 533 1118 l 757 1265 z "},"Ņ":{"ha":1100,"x_min":68,"x_max":1050,"o":"m 713 963 l 1050 969 l 1050 910 l 911 878 l 929 904 l 929 0 l 801 0 l 268 849 l 285 850 l 285 64 l 264 89 l 404 60 l 404 0 l 68 0 l 68 60 l 208 89 l 188 64 l 188 904 l 203 879 l 68 903 l 68 963 l 324 969 l 850 135 l 833 133 l 833 904 l 853 879 l 713 903 l 713 963 m 514 -382 l 472 -356 q 508 -285 499 -312 q 517 -244 517 -258 q 509 -219 517 -229 q 494 -196 501 -208 q 486 -162 486 -183 q 508 -114 486 -131 q 554 -97 529 -97 q 601 -115 579 -97 q 622 -169 622 -132 q 597 -260 622 -206 q 514 -382 571 -314 z "},"Ñ":{"ha":1100,"x_min":68,"x_max":1050,"o":"m 713 963 l 1050 969 l 1050 910 l 911 878 l 929 904 l 929 0 l 801 0 l 268 849 l 285 850 l 285 64 l 264 89 l 404 60 l 404 0 l 68 0 l 68 60 l 208 89 l 188 64 l 188 904 l 203 879 l 68 903 l 68 963 l 324 969 l 850 135 l 833 133 l 833 904 l 853 879 l 713 903 l 713 963 m 390 1075 l 340 1099 q 396 1191 364 1163 q 469 1219 428 1219 q 538 1204 504 1219 q 603 1174 572 1189 q 660 1160 633 1160 q 704 1174 683 1160 q 744 1222 725 1188 l 796 1200 q 738 1107 771 1135 q 663 1079 704 1079 q 596 1094 628 1079 q 533 1123 564 1108 q 472 1138 503 1138 q 429 1123 447 1138 q 390 1075 411 1108 z "},"Ó":{"ha":1035,"x_min":83,"x_max":951,"o":"m 503 -12 q 288 42 383 -12 q 138 205 193 96 q 83 475 83 314 q 117 697 83 601 q 213 856 151 792 q 353 951 274 919 q 525 982 433 982 q 692 952 614 982 q 828 862 769 922 q 919 711 886 801 q 951 501 951 621 q 892 223 951 338 q 732 48 833 108 q 503 -12 631 -12 m 510 78 q 669 122 596 78 q 785 257 742 165 q 829 494 829 349 q 788 721 829 633 q 677 850 747 808 q 519 892 607 892 q 363 849 435 892 q 249 716 292 807 q 206 479 206 625 q 247 251 206 340 q 356 120 288 163 q 510 78 425 78 m 401 1042 l 367 1104 l 646 1268 l 694 1175 l 401 1042 z "},"Ŏ":{"ha":1035,"x_min":83,"x_max":951,"o":"m 503 -12 q 288 42 383 -12 q 138 205 193 96 q 83 475 83 314 q 117 697 83 601 q 213 856 151 792 q 353 951 274 919 q 525 982 433 982 q 692 952 614 982 q 828 862 769 922 q 919 711 886 801 q 951 501 951 621 q 892 223 951 338 q 732 48 833 108 q 503 -12 631 -12 m 510 78 q 669 122 596 78 q 785 257 742 165 q 829 494 829 349 q 788 721 829 633 q 677 850 747 808 q 519 892 607 892 q 363 849 435 892 q 249 716 292 807 q 206 479 206 625 q 247 251 206 340 q 356 120 288 163 q 510 78 425 78 m 522 1057 q 433 1076 476 1057 q 361 1134 389 1096 q 332 1228 333 1172 l 400 1236 q 445 1158 407 1183 q 528 1133 483 1133 q 608 1158 572 1133 q 647 1231 643 1182 l 714 1235 q 686 1137 714 1176 q 615 1077 658 1097 q 522 1057 571 1057 z "},"Ô":{"ha":1035,"x_min":83,"x_max":951,"o":"m 503 -12 q 288 42 383 -12 q 138 205 193 96 q 83 475 83 314 q 117 697 83 601 q 213 856 151 792 q 353 951 274 919 q 525 982 433 982 q 692 952 614 982 q 828 862 769 922 q 919 711 886 801 q 951 501 951 621 q 892 223 951 338 q 732 48 833 108 q 503 -12 631 -12 m 510 78 q 669 122 596 78 q 785 257 742 165 q 829 494 829 349 q 788 721 829 633 q 677 850 747 808 q 519 892 607 892 q 363 849 435 892 q 249 716 292 807 q 206 479 206 625 q 247 251 206 340 q 356 120 288 163 q 510 78 425 78 m 332 1035 l 293 1082 l 485 1247 l 550 1253 l 753 1082 l 713 1035 l 482 1185 l 556 1183 l 332 1035 z "},"Ố":{"ha":1035,"x_min":83,"x_max":951,"o":"m 503 -12 q 288 42 383 -12 q 138 205 193 96 q 83 475 83 314 q 117 697 83 601 q 213 856 151 792 q 353 951 274 919 q 525 982 433 982 q 692 952 614 982 q 828 862 769 922 q 919 711 886 801 q 951 501 951 621 q 892 223 951 338 q 732 48 833 108 q 503 -12 631 -12 m 510 78 q 669 122 596 78 q 785 257 742 165 q 829 494 829 349 q 788 721 829 633 q 677 850 747 808 q 519 892 607 892 q 363 849 435 892 q 249 716 292 807 q 206 479 206 625 q 247 251 206 340 q 356 120 288 163 q 510 78 425 78 m 696 1164 l 651 1215 l 832 1385 l 894 1315 l 696 1164 m 335 1017 l 296 1064 l 488 1229 l 553 1233 l 756 1064 l 715 1017 l 485 1165 l 558 1165 l 335 1017 z "},"Ộ":{"ha":1035,"x_min":83,"x_max":951,"o":"m 503 -12 q 288 42 383 -12 q 138 205 193 96 q 83 475 83 314 q 117 697 83 601 q 213 856 151 792 q 353 951 274 919 q 525 982 433 982 q 692 952 614 982 q 828 862 769 922 q 919 711 886 801 q 951 501 951 621 q 892 223 951 338 q 732 48 833 108 q 503 -12 631 -12 m 510 78 q 669 122 596 78 q 785 257 742 165 q 829 494 829 349 q 788 721 829 633 q 677 850 747 808 q 519 892 607 892 q 363 849 435 892 q 249 716 292 807 q 206 479 206 625 q 247 251 206 340 q 356 120 288 163 q 510 78 425 78 m 332 1035 l 293 1082 l 485 1247 l 550 1253 l 753 1082 l 713 1035 l 482 1185 l 556 1183 l 332 1035 m 515 -253 q 463 -232 483 -253 q 442 -175 442 -211 q 463 -117 442 -137 q 517 -97 485 -97 q 571 -117 550 -97 q 592 -175 592 -136 q 569 -233 592 -212 q 515 -253 547 -253 z "},"Ồ":{"ha":1035,"x_min":83,"x_max":951,"o":"m 503 -12 q 288 42 383 -12 q 138 205 193 96 q 83 475 83 314 q 117 697 83 601 q 213 856 151 792 q 353 951 274 919 q 525 982 433 982 q 692 952 614 982 q 828 862 769 922 q 919 711 886 801 q 951 501 951 621 q 892 223 951 338 q 732 48 833 108 q 503 -12 631 -12 m 510 78 q 669 122 596 78 q 785 257 742 165 q 829 494 829 349 q 788 721 829 633 q 677 850 747 808 q 519 892 607 892 q 363 849 435 892 q 249 716 292 807 q 206 479 206 625 q 247 251 206 340 q 356 120 288 163 q 510 78 425 78 m 754 1158 l 572 1328 l 643 1390 l 804 1201 l 754 1158 m 333 1017 l 294 1064 l 486 1229 l 551 1233 l 754 1064 l 714 1017 l 483 1165 l 557 1165 l 333 1017 z "},"Ổ":{"ha":1035,"x_min":83,"x_max":951,"o":"m 503 -12 q 288 42 383 -12 q 138 205 193 96 q 83 475 83 314 q 117 697 83 601 q 213 856 151 792 q 353 951 274 919 q 525 982 433 982 q 692 952 614 982 q 828 862 769 922 q 919 711 886 801 q 951 501 951 621 q 892 223 951 338 q 732 48 833 108 q 503 -12 631 -12 m 510 78 q 669 122 596 78 q 785 257 742 165 q 829 494 829 349 q 788 721 829 633 q 677 850 747 808 q 519 892 607 892 q 363 849 435 892 q 249 716 292 807 q 206 479 206 625 q 247 251 206 340 q 356 120 288 163 q 510 78 425 78 m 335 1011 l 296 1058 l 488 1224 l 553 1229 l 756 1058 l 715 1011 l 485 1161 l 558 1160 l 335 1011 m 657 1181 l 657 1265 q 732 1283 706 1268 q 758 1331 758 1299 q 738 1372 758 1360 q 689 1383 718 1383 q 650 1381 671 1383 q 608 1371 629 1378 l 593 1425 q 649 1442 619 1436 q 704 1447 678 1447 q 803 1421 763 1447 q 844 1336 844 1394 q 817 1264 844 1293 q 732 1225 789 1235 l 732 1181 l 657 1181 z "},"Ỗ":{"ha":1035,"x_min":83,"x_max":951,"o":"m 503 -12 q 288 42 383 -12 q 138 205 193 96 q 83 475 83 314 q 117 697 83 601 q 213 856 151 792 q 353 951 274 919 q 525 982 433 982 q 692 952 614 982 q 828 862 769 922 q 919 711 886 801 q 951 501 951 621 q 892 223 951 338 q 732 48 833 108 q 503 -12 631 -12 m 510 78 q 669 122 596 78 q 785 257 742 165 q 829 494 829 349 q 788 721 829 633 q 677 850 747 808 q 519 892 607 892 q 363 849 435 892 q 249 716 292 807 q 206 479 206 625 q 247 251 206 340 q 356 120 288 163 q 510 78 425 78 m 350 1249 l 301 1272 q 355 1365 324 1336 q 426 1393 386 1393 q 493 1378 460 1393 q 556 1348 526 1363 q 611 1333 586 1333 q 654 1347 635 1333 q 693 1396 674 1361 l 743 1374 q 687 1281 719 1308 q 614 1253 654 1253 q 549 1267 581 1253 q 488 1297 518 1282 q 429 1311 458 1311 q 388 1297 407 1311 q 350 1249 369 1282 m 335 1017 l 294 1064 l 486 1229 l 553 1233 l 754 1064 l 714 1017 l 483 1165 l 557 1165 l 335 1017 z "},"Ȍ":{"ha":1035,"x_min":83,"x_max":951,"o":"m 503 -12 q 288 42 383 -12 q 138 205 193 96 q 83 475 83 314 q 117 697 83 601 q 213 856 151 792 q 353 951 274 919 q 525 982 433 982 q 692 952 614 982 q 828 862 769 922 q 919 711 886 801 q 951 501 951 621 q 892 223 951 338 q 732 48 833 108 q 503 -12 631 -12 m 510 78 q 669 122 596 78 q 785 257 742 165 q 829 494 829 349 q 788 721 829 633 q 677 850 747 808 q 519 892 607 892 q 363 849 435 892 q 249 716 292 807 q 206 479 206 625 q 247 251 206 340 q 356 120 288 163 q 510 78 425 78 m 424 1033 l 485 1064 l 382 1290 l 299 1246 l 424 1033 m 615 1033 l 676 1063 l 581 1290 l 496 1249 l 615 1033 z "},"Ö":{"ha":1035,"x_min":83,"x_max":951,"o":"m 503 -12 q 288 42 383 -12 q 138 205 193 96 q 83 475 83 314 q 117 697 83 601 q 213 856 151 792 q 353 951 274 919 q 525 982 433 982 q 692 952 614 982 q 828 862 769 922 q 919 711 886 801 q 951 501 951 621 q 892 223 951 338 q 732 48 833 108 q 503 -12 631 -12 m 510 78 q 669 122 596 78 q 785 257 742 165 q 829 494 829 349 q 788 721 829 633 q 677 850 747 808 q 519 892 607 892 q 363 849 435 892 q 249 716 292 807 q 206 479 206 625 q 247 251 206 340 q 356 120 288 163 q 510 78 425 78 m 660 1064 q 612 1083 629 1064 q 593 1136 594 1103 q 613 1189 593 1169 q 660 1208 632 1208 q 708 1189 690 1208 q 725 1136 725 1169 q 706 1083 725 1103 q 660 1064 686 1064 m 383 1064 q 335 1083 353 1064 q 318 1136 318 1103 q 337 1189 318 1169 q 383 1208 356 1208 q 432 1189 414 1208 q 450 1136 450 1169 q 431 1083 450 1103 q 383 1064 411 1064 z "},"Ȫ":{"ha":1035,"x_min":83,"x_max":951,"o":"m 503 -12 q 288 42 383 -12 q 138 205 193 96 q 83 475 83 314 q 117 697 83 601 q 213 856 151 792 q 353 951 274 919 q 525 982 433 982 q 692 952 614 982 q 828 862 769 922 q 919 711 886 801 q 951 501 951 621 q 892 223 951 338 q 732 48 833 108 q 503 -12 631 -12 m 510 78 q 669 122 596 78 q 785 257 742 165 q 829 494 829 349 q 788 721 829 633 q 677 850 747 808 q 519 892 607 892 q 363 849 435 892 q 249 716 292 807 q 206 479 206 625 q 247 251 206 340 q 356 120 288 163 q 510 78 425 78 m 660 1038 q 612 1057 629 1038 q 593 1110 594 1076 q 613 1163 593 1143 q 660 1182 632 1182 q 708 1163 690 1182 q 725 1110 725 1143 q 706 1057 725 1076 q 660 1038 686 1038 m 383 1038 q 335 1057 353 1038 q 318 1110 318 1076 q 337 1163 318 1143 q 383 1182 356 1182 q 432 1163 414 1182 q 450 1110 450 1143 q 431 1057 450 1076 q 383 1038 411 1038 m 707 1329 l 707 1247 l 338 1247 l 338 1329 l 707 1329 z "},"Ȱ":{"ha":1035,"x_min":83,"x_max":951,"o":"m 503 -12 q 288 42 383 -12 q 138 205 193 96 q 83 475 83 314 q 117 697 83 601 q 213 856 151 792 q 353 951 274 919 q 525 982 433 982 q 692 952 614 982 q 828 862 769 922 q 919 711 886 801 q 951 501 951 621 q 892 223 951 338 q 732 48 833 108 q 503 -12 631 -12 m 510 78 q 669 122 596 78 q 785 257 742 165 q 829 494 829 349 q 788 721 829 633 q 677 850 747 808 q 519 892 607 892 q 363 849 435 892 q 249 716 292 807 q 206 479 206 625 q 247 251 206 340 q 356 120 288 163 q 510 78 425 78 m 521 1033 q 468 1054 489 1033 q 447 1111 447 1075 q 469 1169 447 1149 q 522 1189 490 1189 q 576 1169 556 1189 q 597 1111 597 1150 q 575 1053 597 1074 q 521 1033 553 1033 m 707 1329 l 707 1247 l 338 1247 l 338 1329 l 707 1329 z "},"Ọ":{"ha":1035,"x_min":83,"x_max":951,"o":"m 503 -12 q 288 42 383 -12 q 138 205 193 96 q 83 475 83 314 q 117 697 83 601 q 213 856 151 792 q 353 951 274 919 q 525 982 433 982 q 692 952 614 982 q 828 862 769 922 q 919 711 886 801 q 951 501 951 621 q 892 223 951 338 q 732 48 833 108 q 503 -12 631 -12 m 510 78 q 669 122 596 78 q 785 257 742 165 q 829 494 829 349 q 788 721 829 633 q 677 850 747 808 q 519 892 607 892 q 363 849 435 892 q 249 716 292 807 q 206 479 206 625 q 247 251 206 340 q 356 120 288 163 q 510 78 425 78 m 515 -253 q 463 -232 483 -253 q 442 -175 442 -211 q 463 -117 442 -137 q 517 -97 485 -97 q 571 -117 550 -97 q 592 -175 592 -136 q 569 -233 592 -212 q 515 -253 547 -253 z "},"Ò":{"ha":1035,"x_min":83,"x_max":951,"o":"m 503 -12 q 288 42 383 -12 q 138 205 193 96 q 83 475 83 314 q 117 697 83 601 q 213 856 151 792 q 353 951 274 919 q 525 982 433 982 q 692 952 614 982 q 828 862 769 922 q 919 711 886 801 q 951 501 951 621 q 892 223 951 338 q 732 48 833 108 q 503 -12 631 -12 m 510 78 q 669 122 596 78 q 785 257 742 165 q 829 494 829 349 q 788 721 829 633 q 677 850 747 808 q 519 892 607 892 q 363 849 435 892 q 249 716 292 807 q 206 479 206 625 q 247 251 206 340 q 356 120 288 163 q 510 78 425 78 m 656 1042 l 358 1174 l 411 1268 l 688 1106 l 656 1042 z "},"Ỏ":{"ha":1035,"x_min":83,"x_max":951,"o":"m 503 -12 q 288 42 383 -12 q 138 205 193 96 q 83 475 83 314 q 117 697 83 601 q 213 856 151 792 q 353 951 274 919 q 525 982 433 982 q 692 952 614 982 q 828 862 769 922 q 919 711 886 801 q 951 501 951 621 q 892 223 951 338 q 732 48 833 108 q 503 -12 631 -12 m 510 78 q 669 122 596 78 q 785 257 742 165 q 829 494 829 349 q 788 721 829 633 q 677 850 747 808 q 519 892 607 892 q 363 849 435 892 q 249 716 292 807 q 206 479 206 625 q 247 251 206 340 q 356 120 288 163 q 510 78 425 78 m 479 1026 l 479 1111 q 554 1129 528 1114 q 581 1176 581 1144 q 560 1217 581 1206 q 511 1229 540 1229 q 472 1226 493 1229 q 431 1217 451 1224 l 415 1271 q 471 1288 442 1282 q 526 1293 500 1293 q 626 1267 585 1293 q 667 1182 667 1240 q 639 1110 667 1139 q 554 1071 611 1081 l 554 1026 l 479 1026 z "},"Ơ":{"ha":1051,"x_min":83,"x_max":965,"o":"m 503 -12 q 288 42 383 -12 q 138 205 193 96 q 83 475 83 314 q 117 697 83 601 q 213 856 151 792 q 353 951 274 919 q 525 982 433 982 q 692 952 614 982 q 828 862 769 922 q 919 711 886 801 q 951 501 951 621 q 892 223 951 338 q 732 48 833 108 q 503 -12 631 -12 m 510 78 q 669 122 596 78 q 785 257 742 165 q 829 494 829 349 q 788 721 829 633 q 677 850 747 808 q 519 892 607 892 q 363 849 435 892 q 249 716 292 807 q 206 479 206 625 q 247 251 206 340 q 356 120 288 163 q 510 78 425 78 m 726 886 l 679 944 q 821 972 769 946 q 872 1051 872 999 q 867 1090 872 1067 q 853 1142 863 1114 l 938 1161 q 959 1097 953 1126 q 965 1043 965 1067 q 900 928 965 969 q 726 886 835 886 z "},"Ớ":{"ha":1051,"x_min":83,"x_max":965,"o":"m 503 -12 q 288 42 383 -12 q 138 205 193 96 q 83 475 83 314 q 117 697 83 601 q 213 856 151 792 q 353 951 274 919 q 525 982 433 982 q 692 952 614 982 q 828 862 769 922 q 919 711 886 801 q 951 501 951 621 q 892 223 951 338 q 732 48 833 108 q 503 -12 631 -12 m 510 78 q 669 122 596 78 q 785 257 742 165 q 829 494 829 349 q 788 721 829 633 q 677 850 747 808 q 519 892 607 892 q 363 849 435 892 q 249 716 292 807 q 206 479 206 625 q 247 251 206 340 q 356 120 288 163 q 510 78 425 78 m 726 886 l 679 944 q 821 972 769 946 q 872 1051 872 999 q 867 1090 872 1067 q 853 1142 863 1114 l 938 1161 q 959 1097 953 1126 q 965 1043 965 1067 q 900 928 965 969 q 726 886 835 886 m 401 1042 l 367 1104 l 646 1268 l 694 1175 l 401 1042 z "},"Ợ":{"ha":1051,"x_min":83,"x_max":965,"o":"m 503 -12 q 288 42 383 -12 q 138 205 193 96 q 83 475 83 314 q 117 697 83 601 q 213 856 151 792 q 353 951 274 919 q 525 982 433 982 q 692 952 614 982 q 828 862 769 922 q 919 711 886 801 q 951 501 951 621 q 892 223 951 338 q 732 48 833 108 q 503 -12 631 -12 m 510 78 q 669 122 596 78 q 785 257 742 165 q 829 494 829 349 q 788 721 829 633 q 677 850 747 808 q 519 892 607 892 q 363 849 435 892 q 249 716 292 807 q 206 479 206 625 q 247 251 206 340 q 356 120 288 163 q 510 78 425 78 m 726 886 l 679 944 q 821 972 769 946 q 872 1051 872 999 q 867 1090 872 1067 q 853 1142 863 1114 l 938 1161 q 959 1097 953 1126 q 965 1043 965 1067 q 900 928 965 969 q 726 886 835 886 m 515 -253 q 463 -232 483 -253 q 442 -175 442 -211 q 463 -117 442 -137 q 517 -97 485 -97 q 571 -117 550 -97 q 592 -175 592 -136 q 569 -233 592 -212 q 515 -253 547 -253 z "},"Ờ":{"ha":1051,"x_min":83,"x_max":965,"o":"m 503 -12 q 288 42 383 -12 q 138 205 193 96 q 83 475 83 314 q 117 697 83 601 q 213 856 151 792 q 353 951 274 919 q 525 982 433 982 q 692 952 614 982 q 828 862 769 922 q 919 711 886 801 q 951 501 951 621 q 892 223 951 338 q 732 48 833 108 q 503 -12 631 -12 m 510 78 q 669 122 596 78 q 785 257 742 165 q 829 494 829 349 q 788 721 829 633 q 677 850 747 808 q 519 892 607 892 q 363 849 435 892 q 249 716 292 807 q 206 479 206 625 q 247 251 206 340 q 356 120 288 163 q 510 78 425 78 m 726 886 l 679 944 q 821 972 769 946 q 872 1051 872 999 q 867 1090 872 1067 q 853 1142 863 1114 l 938 1161 q 959 1097 953 1126 q 965 1043 965 1067 q 900 928 965 969 q 726 886 835 886 m 656 1042 l 358 1174 l 411 1268 l 688 1106 l 656 1042 z "},"Ở":{"ha":1051,"x_min":83,"x_max":965,"o":"m 503 -12 q 288 42 383 -12 q 138 205 193 96 q 83 475 83 314 q 117 697 83 601 q 213 856 151 792 q 353 951 274 919 q 525 982 433 982 q 692 952 614 982 q 828 862 769 922 q 919 711 886 801 q 951 501 951 621 q 892 223 951 338 q 732 48 833 108 q 503 -12 631 -12 m 510 78 q 669 122 596 78 q 785 257 742 165 q 829 494 829 349 q 788 721 829 633 q 677 850 747 808 q 519 892 607 892 q 363 849 435 892 q 249 716 292 807 q 206 479 206 625 q 247 251 206 340 q 356 120 288 163 q 510 78 425 78 m 726 886 l 679 944 q 821 972 769 946 q 872 1051 872 999 q 867 1090 872 1067 q 853 1142 863 1114 l 938 1161 q 959 1097 953 1126 q 965 1043 965 1067 q 900 928 965 969 q 726 886 835 886 m 479 1026 l 479 1111 q 554 1129 528 1114 q 581 1176 581 1144 q 560 1217 581 1206 q 511 1229 540 1229 q 472 1226 493 1229 q 431 1217 451 1224 l 415 1271 q 471 1288 442 1282 q 526 1293 500 1293 q 626 1267 585 1293 q 667 1182 667 1240 q 639 1110 667 1139 q 554 1071 611 1081 l 554 1026 l 479 1026 z "},"Ỡ":{"ha":1051,"x_min":83,"x_max":965,"o":"m 503 -12 q 288 42 383 -12 q 138 205 193 96 q 83 475 83 314 q 117 697 83 601 q 213 856 151 792 q 353 951 274 919 q 525 982 433 982 q 692 952 614 982 q 828 862 769 922 q 919 711 886 801 q 951 501 951 621 q 892 223 951 338 q 732 48 833 108 q 503 -12 631 -12 m 510 78 q 669 122 596 78 q 785 257 742 165 q 829 494 829 349 q 788 721 829 633 q 677 850 747 808 q 519 892 607 892 q 363 849 435 892 q 249 716 292 807 q 206 479 206 625 q 247 251 206 340 q 356 120 288 163 q 510 78 425 78 m 726 886 l 679 944 q 821 972 769 946 q 872 1051 872 999 q 867 1090 872 1067 q 853 1142 863 1114 l 938 1161 q 959 1097 953 1126 q 965 1043 965 1067 q 900 928 965 969 q 726 886 835 886 m 344 1075 l 294 1099 q 350 1191 318 1163 q 424 1219 382 1219 q 492 1204 458 1219 q 557 1174 526 1189 q 614 1160 588 1160 q 658 1174 638 1160 q 699 1222 679 1188 l 750 1200 q 692 1107 725 1135 q 617 1079 658 1079 q 550 1094 582 1079 q 488 1123 518 1108 q 426 1138 457 1138 q 383 1123 401 1138 q 344 1075 365 1108 z "},"Ő":{"ha":1035,"x_min":83,"x_max":951,"o":"m 503 -12 q 288 42 383 -12 q 138 205 193 96 q 83 475 83 314 q 117 697 83 601 q 213 856 151 792 q 353 951 274 919 q 525 982 433 982 q 692 952 614 982 q 828 862 769 922 q 919 711 886 801 q 951 501 951 621 q 892 223 951 338 q 732 48 833 108 q 503 -12 631 -12 m 510 78 q 669 122 596 78 q 785 257 742 165 q 829 494 829 349 q 788 721 829 633 q 677 850 747 808 q 519 892 607 892 q 363 849 435 892 q 249 716 292 807 q 206 479 206 625 q 247 251 206 340 q 356 120 288 163 q 510 78 425 78 m 633 1033 l 572 1064 l 675 1290 l 758 1246 l 633 1033 m 442 1033 l 379 1063 l 475 1290 l 561 1250 l 442 1033 z "},"Ȏ":{"ha":1035,"x_min":83,"x_max":951,"o":"m 503 -12 q 288 42 383 -12 q 138 205 193 96 q 83 475 83 314 q 117 697 83 601 q 213 856 151 792 q 353 951 274 919 q 525 982 433 982 q 692 952 614 982 q 828 862 769 922 q 919 711 886 801 q 951 501 951 621 q 892 223 951 338 q 732 48 833 108 q 503 -12 631 -12 m 510 78 q 669 122 596 78 q 785 257 742 165 q 829 494 829 349 q 788 721 829 633 q 677 850 747 808 q 519 892 607 892 q 363 849 435 892 q 249 716 292 807 q 206 479 206 625 q 247 251 206 340 q 356 120 288 163 q 510 78 425 78 m 522 1231 q 618 1208 576 1231 q 684 1145 660 1186 q 710 1051 708 1104 l 639 1043 q 601 1121 633 1092 q 519 1150 568 1150 q 440 1123 471 1150 q 406 1049 410 1096 l 338 1046 q 360 1142 338 1100 q 425 1207 383 1183 q 522 1231 467 1231 z "},"Ō":{"ha":1035,"x_min":83,"x_max":951,"o":"m 503 -12 q 288 42 383 -12 q 138 205 193 96 q 83 475 83 314 q 117 697 83 601 q 213 856 151 792 q 353 951 274 919 q 525 982 433 982 q 692 952 614 982 q 828 862 769 922 q 919 711 886 801 q 951 501 951 621 q 892 223 951 338 q 732 48 833 108 q 503 -12 631 -12 m 510 78 q 669 122 596 78 q 785 257 742 165 q 829 494 829 349 q 788 721 829 633 q 677 850 747 808 q 519 892 607 892 q 363 849 435 892 q 249 716 292 807 q 206 479 206 625 q 247 251 206 340 q 356 120 288 163 q 510 78 425 78 m 707 1175 l 707 1093 l 338 1093 l 338 1175 l 707 1175 z "},"Ǫ":{"ha":1035,"x_min":83,"x_max":951,"o":"m 503 -12 q 288 42 383 -12 q 138 205 193 96 q 83 475 83 314 q 117 697 83 601 q 213 856 151 792 q 353 951 274 919 q 525 982 433 982 q 692 952 614 982 q 828 862 769 922 q 919 711 886 801 q 951 501 951 621 q 892 223 951 338 q 732 48 833 108 q 503 -12 631 -12 m 510 78 q 669 122 596 78 q 785 257 742 165 q 829 494 829 349 q 788 721 829 633 q 677 850 747 808 q 519 892 607 892 q 363 849 435 892 q 249 716 292 807 q 206 479 206 625 q 247 251 206 340 q 356 120 288 163 q 510 78 425 78 m 528 -306 q 412 -270 456 -306 q 368 -176 368 -235 q 394 -91 368 -135 q 470 -10 419 -47 q 597 53 521 28 l 611 0 q 493 -72 533 -29 q 453 -153 453 -114 q 482 -208 453 -186 q 560 -231 511 -231 q 586 -228 572 -231 q 614 -224 600 -226 l 622 -290 q 573 -301 596 -297 q 528 -306 550 -306 z "},"Ø":{"ha":1036,"x_min":85,"x_max":953,"o":"m 844 1071 l 907 1033 l 797 861 l 779 838 l 317 104 l 308 86 l 189 -103 l 125 -65 l 244 125 l 258 142 l 726 881 l 733 897 l 844 1071 m 504 -12 q 290 42 385 -12 q 140 205 194 96 q 85 475 85 314 q 119 697 85 601 q 214 856 153 792 q 355 951 275 919 q 526 982 435 982 q 693 952 615 982 q 829 862 771 922 q 920 711 888 801 q 953 501 953 621 q 894 223 953 338 q 733 48 835 108 q 504 -12 632 -12 m 511 78 q 670 122 597 78 q 787 257 743 165 q 831 494 831 349 q 790 721 831 633 q 678 850 749 808 q 521 892 608 892 q 365 849 436 892 q 250 716 293 807 q 207 479 207 625 q 248 251 207 340 q 358 120 289 163 q 511 78 426 78 z "},"Ǿ":{"ha":1036,"x_min":85,"x_max":953,"o":"m 844 1071 l 907 1033 l 797 861 l 779 838 l 317 104 l 308 86 l 189 -103 l 125 -65 l 244 125 l 258 142 l 726 881 l 733 897 l 844 1071 m 504 -12 q 290 42 385 -12 q 140 205 194 96 q 85 475 85 314 q 119 697 85 601 q 214 856 153 792 q 355 951 275 919 q 526 982 435 982 q 693 952 615 982 q 829 862 771 922 q 920 711 888 801 q 953 501 953 621 q 894 223 953 338 q 733 48 835 108 q 504 -12 632 -12 m 511 78 q 670 122 597 78 q 787 257 743 165 q 831 494 831 349 q 790 721 831 633 q 678 850 749 808 q 521 892 608 892 q 365 849 436 892 q 250 716 293 807 q 207 479 207 625 q 248 251 207 340 q 358 120 289 163 q 511 78 426 78 m 403 1042 l 368 1104 l 647 1268 l 696 1175 l 403 1042 z "},"Õ":{"ha":1035,"x_min":83,"x_max":951,"o":"m 503 -12 q 288 42 383 -12 q 138 205 193 96 q 83 475 83 314 q 117 697 83 601 q 213 856 151 792 q 353 951 274 919 q 525 982 433 982 q 692 952 614 982 q 828 862 769 922 q 919 711 886 801 q 951 501 951 621 q 892 223 951 338 q 732 48 833 108 q 503 -12 631 -12 m 510 78 q 669 122 596 78 q 785 257 742 165 q 829 494 829 349 q 788 721 829 633 q 677 850 747 808 q 519 892 607 892 q 363 849 435 892 q 249 716 292 807 q 206 479 206 625 q 247 251 206 340 q 356 120 288 163 q 510 78 425 78 m 344 1075 l 294 1099 q 350 1191 318 1163 q 424 1219 382 1219 q 492 1204 458 1219 q 557 1174 526 1189 q 614 1160 588 1160 q 658 1174 638 1160 q 699 1222 679 1188 l 750 1200 q 692 1107 725 1135 q 617 1079 658 1079 q 550 1094 582 1079 q 488 1123 518 1108 q 426 1138 457 1138 q 383 1123 401 1138 q 344 1075 365 1108 z "},"Ȭ":{"ha":1035,"x_min":83,"x_max":951,"o":"m 503 -12 q 288 42 383 -12 q 138 205 193 96 q 83 475 83 314 q 117 697 83 601 q 213 856 151 792 q 353 951 274 919 q 525 982 433 982 q 692 952 614 982 q 828 862 769 922 q 919 711 886 801 q 951 501 951 621 q 892 223 951 338 q 732 48 833 108 q 503 -12 631 -12 m 510 78 q 669 122 596 78 q 785 257 742 165 q 829 494 829 349 q 788 721 829 633 q 677 850 747 808 q 519 892 607 892 q 363 849 435 892 q 249 716 292 807 q 206 479 206 625 q 247 251 206 340 q 356 120 288 163 q 510 78 425 78 m 343 1026 l 293 1050 q 349 1142 317 1114 q 422 1171 381 1171 q 491 1156 457 1171 q 556 1126 525 1140 q 613 1111 586 1111 q 657 1125 636 1111 q 697 1174 678 1139 l 749 1151 q 690 1058 724 1086 q 615 1031 657 1031 q 549 1045 581 1031 q 486 1074 517 1060 q 425 1089 456 1089 q 382 1074 400 1089 q 343 1026 364 1060 m 704 1317 l 704 1235 l 335 1235 l 335 1317 l 704 1317 z "},"Ŕ":{"ha":914,"x_min":68,"x_max":886,"o":"m 68 0 l 68 60 l 206 89 l 188 64 l 188 903 l 211 876 l 68 903 l 68 963 l 306 969 l 468 969 q 706 904 625 969 q 786 715 786 839 q 715 529 786 601 q 497 442 643 457 l 496 456 q 584 431 550 450 q 642 381 618 413 q 688 304 665 350 l 804 68 l 769 92 l 886 60 l 886 0 l 715 0 l 588 274 q 537 366 561 333 q 477 413 513 399 q 376 426 442 426 l 281 425 l 301 444 l 301 64 l 283 89 l 444 60 l 444 0 l 68 0 m 301 478 l 281 508 l 413 508 q 603 559 536 508 q 669 708 669 610 q 615 840 669 794 q 454 885 561 885 l 281 885 l 301 906 l 301 478 m 311 1042 l 276 1104 l 556 1268 l 604 1175 l 311 1042 z "},"Ř":{"ha":914,"x_min":68,"x_max":886,"o":"m 68 0 l 68 60 l 206 89 l 188 64 l 188 903 l 211 876 l 68 903 l 68 963 l 306 969 l 468 969 q 706 904 625 969 q 786 715 786 839 q 715 529 786 601 q 497 442 643 457 l 496 456 q 584 431 550 450 q 642 381 618 413 q 688 304 665 350 l 804 68 l 769 92 l 886 60 l 886 0 l 715 0 l 588 274 q 537 366 561 333 q 477 413 513 399 q 376 426 442 426 l 281 425 l 301 444 l 301 64 l 283 89 l 444 60 l 444 0 l 68 0 m 301 478 l 281 508 l 413 508 q 603 559 536 508 q 669 708 669 610 q 615 840 669 794 q 454 885 561 885 l 281 885 l 301 906 l 301 478 m 622 1265 l 661 1218 l 469 1054 l 404 1049 l 203 1218 l 243 1265 l 472 1117 l 399 1118 l 622 1265 z "},"Ŗ":{"ha":914,"x_min":68,"x_max":886,"o":"m 68 0 l 68 60 l 206 89 l 188 64 l 188 903 l 211 876 l 68 903 l 68 963 l 306 969 l 468 969 q 706 904 625 969 q 786 715 786 839 q 715 529 786 601 q 497 442 643 457 l 496 456 q 584 431 550 450 q 642 381 618 413 q 688 304 665 350 l 804 68 l 769 92 l 886 60 l 886 0 l 715 0 l 588 274 q 537 366 561 333 q 477 413 513 399 q 376 426 442 426 l 281 425 l 301 444 l 301 64 l 283 89 l 444 60 l 444 0 l 68 0 m 301 478 l 281 508 l 413 508 q 603 559 536 508 q 669 708 669 610 q 615 840 669 794 q 454 885 561 885 l 281 885 l 301 906 l 301 478 m 435 -382 l 393 -356 q 428 -285 419 -312 q 438 -244 438 -258 q 430 -219 438 -229 q 415 -196 422 -208 q 407 -162 407 -183 q 428 -114 407 -131 q 475 -97 450 -97 q 522 -115 500 -97 q 543 -169 543 -132 q 517 -260 543 -206 q 435 -382 492 -314 z "},"Ȑ":{"ha":914,"x_min":68,"x_max":886,"o":"m 68 0 l 68 60 l 206 89 l 188 64 l 188 903 l 211 876 l 68 903 l 68 963 l 306 969 l 468 969 q 706 904 625 969 q 786 715 786 839 q 715 529 786 601 q 497 442 643 457 l 496 456 q 584 431 550 450 q 642 381 618 413 q 688 304 665 350 l 804 68 l 769 92 l 886 60 l 886 0 l 715 0 l 588 274 q 537 366 561 333 q 477 413 513 399 q 376 426 442 426 l 281 425 l 301 444 l 301 64 l 283 89 l 444 60 l 444 0 l 68 0 m 301 478 l 281 508 l 413 508 q 603 559 536 508 q 669 708 669 610 q 615 840 669 794 q 454 885 561 885 l 281 885 l 301 906 l 301 478 m 333 1033 l 394 1064 l 292 1290 l 208 1246 l 333 1033 m 525 1033 l 586 1063 l 490 1290 l 406 1249 l 525 1033 z "},"Ȓ":{"ha":914,"x_min":68,"x_max":886,"o":"m 68 0 l 68 60 l 206 89 l 188 64 l 188 903 l 211 876 l 68 903 l 68 963 l 306 969 l 468 969 q 706 904 625 969 q 786 715 786 839 q 715 529 786 601 q 497 442 643 457 l 496 456 q 584 431 550 450 q 642 381 618 413 q 688 304 665 350 l 804 68 l 769 92 l 886 60 l 886 0 l 715 0 l 588 274 q 537 366 561 333 q 477 413 513 399 q 376 426 442 426 l 281 425 l 301 444 l 301 64 l 283 89 l 444 60 l 444 0 l 68 0 m 301 478 l 281 508 l 413 508 q 603 559 536 508 q 669 708 669 610 q 615 840 669 794 q 454 885 561 885 l 281 885 l 301 906 l 301 478 m 432 1231 q 528 1208 486 1231 q 594 1145 569 1186 q 619 1051 618 1104 l 549 1043 q 510 1121 543 1092 q 429 1150 478 1150 q 350 1123 381 1150 q 315 1049 319 1096 l 247 1046 q 270 1142 247 1100 q 335 1207 293 1183 q 432 1231 376 1231 z "},"Ś":{"ha":833,"x_min":97,"x_max":740,"o":"m 221 733 q 249 647 221 681 q 323 592 276 614 q 425 554 369 571 q 536 517 481 538 q 638 467 592 497 q 712 390 683 438 q 740 269 740 342 q 691 110 740 172 q 560 17 642 47 q 381 -12 478 -12 q 239 2 311 -12 q 97 46 167 17 l 106 274 l 174 274 l 197 96 l 183 119 q 285 86 232 97 q 388 75 338 75 q 507 95 453 75 q 594 155 561 115 q 628 254 628 194 q 599 344 628 310 q 525 400 571 378 q 424 439 479 422 q 313 474 368 456 q 211 522 257 493 q 137 598 165 551 q 108 717 108 644 q 152 865 108 806 q 272 953 196 924 q 440 982 347 982 q 576 968 506 982 q 715 925 647 954 l 704 707 l 635 707 l 614 874 l 631 857 q 540 885 589 875 q 443 894 492 894 q 335 878 386 894 q 252 827 283 863 q 221 733 221 792 m 311 1042 l 276 1104 l 556 1268 l 604 1175 l 311 1042 z "},"Š":{"ha":833,"x_min":97,"x_max":740,"o":"m 221 733 q 249 647 221 681 q 323 592 276 614 q 425 554 369 571 q 536 517 481 538 q 638 467 592 497 q 712 390 683 438 q 740 269 740 342 q 691 110 740 172 q 560 17 642 47 q 381 -12 478 -12 q 239 2 311 -12 q 97 46 167 17 l 106 274 l 174 274 l 197 96 l 183 119 q 285 86 232 97 q 388 75 338 75 q 507 95 453 75 q 594 155 561 115 q 628 254 628 194 q 599 344 628 310 q 525 400 571 378 q 424 439 479 422 q 313 474 368 456 q 211 522 257 493 q 137 598 165 551 q 108 717 108 644 q 152 865 108 806 q 272 953 196 924 q 440 982 347 982 q 576 968 506 982 q 715 925 647 954 l 704 707 l 635 707 l 614 874 l 631 857 q 540 885 589 875 q 443 894 492 894 q 335 878 386 894 q 252 827 283 863 q 221 733 221 792 m 622 1265 l 661 1218 l 469 1054 l 404 1049 l 203 1218 l 243 1265 l 472 1117 l 399 1118 l 622 1265 z "},"Ş":{"ha":833,"x_min":97,"x_max":740,"o":"m 221 733 q 249 647 221 681 q 323 592 276 614 q 425 554 369 571 q 536 517 481 538 q 638 467 592 497 q 712 390 683 438 q 740 269 740 342 q 691 110 740 172 q 560 17 642 47 q 381 -12 478 -12 q 239 2 311 -12 q 97 46 167 17 l 106 274 l 174 274 l 197 96 l 183 119 q 285 86 232 97 q 388 75 338 75 q 507 95 453 75 q 594 155 561 115 q 628 254 628 194 q 599 344 628 310 q 525 400 571 378 q 424 439 479 422 q 313 474 368 456 q 211 522 257 493 q 137 598 165 551 q 108 717 108 644 q 152 865 108 806 q 272 953 196 924 q 440 982 347 982 q 576 968 506 982 q 715 925 647 954 l 704 707 l 635 707 l 614 874 l 631 857 q 540 885 589 875 q 443 894 492 894 q 335 878 386 894 q 252 827 283 863 q 221 733 221 792 m 440 -324 q 377 -317 410 -324 q 314 -296 344 -310 l 339 -237 q 390 -251 363 -246 q 440 -257 417 -257 q 499 -243 475 -257 q 522 -200 522 -229 q 505 -165 522 -179 q 457 -143 488 -151 q 382 -135 426 -135 l 390 0 l 461 0 l 461 -81 q 573 -119 539 -87 q 607 -196 607 -150 q 584 -267 607 -239 q 524 -310 561 -296 q 440 -324 486 -324 z "},"Ŝ":{"ha":833,"x_min":97,"x_max":740,"o":"m 221 733 q 249 647 221 681 q 323 592 276 614 q 425 554 369 571 q 536 517 481 538 q 638 467 592 497 q 712 390 683 438 q 740 269 740 342 q 691 110 740 172 q 560 17 642 47 q 381 -12 478 -12 q 239 2 311 -12 q 97 46 167 17 l 106 274 l 174 274 l 197 96 l 183 119 q 285 86 232 97 q 388 75 338 75 q 507 95 453 75 q 594 155 561 115 q 628 254 628 194 q 599 344 628 310 q 525 400 571 378 q 424 439 479 422 q 313 474 368 456 q 211 522 257 493 q 137 598 165 551 q 108 717 108 644 q 152 865 108 806 q 272 953 196 924 q 440 982 347 982 q 576 968 506 982 q 715 925 647 954 l 704 707 l 635 707 l 614 874 l 631 857 q 540 885 589 875 q 443 894 492 894 q 335 878 386 894 q 252 827 283 863 q 221 733 221 792 m 242 1035 l 203 1082 l 394 1247 l 460 1253 l 663 1082 l 622 1035 l 392 1185 l 465 1183 l 242 1035 z "},"Ș":{"ha":833,"x_min":97,"x_max":740,"o":"m 221 733 q 249 647 221 681 q 323 592 276 614 q 425 554 369 571 q 536 517 481 538 q 638 467 592 497 q 712 390 683 438 q 740 269 740 342 q 691 110 740 172 q 560 17 642 47 q 381 -12 478 -12 q 239 2 311 -12 q 97 46 167 17 l 106 274 l 174 274 l 197 96 l 183 119 q 285 86 232 97 q 388 75 338 75 q 507 95 453 75 q 594 155 561 115 q 628 254 628 194 q 599 344 628 310 q 525 400 571 378 q 424 439 479 422 q 313 474 368 456 q 211 522 257 493 q 137 598 165 551 q 108 717 108 644 q 152 865 108 806 q 272 953 196 924 q 440 982 347 982 q 576 968 506 982 q 715 925 647 954 l 704 707 l 635 707 l 614 874 l 631 857 q 540 885 589 875 q 443 894 492 894 q 335 878 386 894 q 252 827 283 863 q 221 733 221 792 m 379 -382 l 338 -356 q 373 -285 364 -312 q 382 -244 382 -258 q 374 -219 382 -229 q 359 -196 367 -208 q 351 -162 351 -183 q 373 -114 351 -131 q 419 -97 394 -97 q 466 -115 444 -97 q 488 -169 488 -132 q 462 -260 488 -206 q 379 -382 436 -314 z "},"Ŧ":{"ha":813,"x_min":38,"x_max":775,"o":"m 154 444 l 154 524 l 658 524 l 658 444 l 154 444 m 211 0 l 211 60 l 372 89 l 350 58 l 350 906 l 375 885 l 107 885 l 135 908 l 107 732 l 38 732 l 38 969 l 775 969 l 775 732 l 706 732 l 678 906 l 706 885 l 438 885 l 463 906 l 463 58 l 442 89 l 601 60 l 601 0 l 211 0 z "},"Ť":{"ha":813,"x_min":38,"x_max":775,"o":"m 211 0 l 211 60 l 372 89 l 350 58 l 350 906 l 375 885 l 107 885 l 135 908 l 107 732 l 38 732 l 38 969 l 775 969 l 775 732 l 706 732 l 678 906 l 706 885 l 438 885 l 463 906 l 463 58 l 442 89 l 601 60 l 601 0 l 211 0 m 596 1265 l 635 1218 l 443 1054 l 378 1049 l 176 1218 l 217 1265 l 446 1117 l 372 1118 l 596 1265 z "},"Ţ":{"ha":813,"x_min":38,"x_max":775,"o":"m 211 0 l 211 60 l 372 89 l 350 58 l 350 906 l 375 885 l 107 885 l 135 908 l 107 732 l 38 732 l 38 969 l 775 969 l 775 732 l 706 732 l 678 906 l 706 885 l 438 885 l 463 906 l 463 58 l 442 89 l 601 60 l 601 0 l 211 0 m 422 -324 q 359 -317 392 -324 q 296 -296 326 -310 l 321 -237 q 372 -251 344 -246 q 422 -257 399 -257 q 481 -243 457 -257 q 504 -200 504 -229 q 487 -165 504 -179 q 439 -143 469 -151 q 364 -135 408 -135 l 372 0 l 443 0 l 443 -81 q 555 -119 521 -87 q 589 -196 589 -150 q 566 -267 589 -239 q 506 -310 543 -296 q 422 -324 468 -324 z "},"Ț":{"ha":813,"x_min":38,"x_max":775,"o":"m 211 0 l 211 60 l 372 89 l 350 58 l 350 906 l 375 885 l 107 885 l 135 908 l 107 732 l 38 732 l 38 969 l 775 969 l 775 732 l 706 732 l 678 906 l 706 885 l 438 885 l 463 906 l 463 58 l 442 89 l 601 60 l 601 0 l 211 0 m 361 -382 l 319 -356 q 355 -285 346 -312 q 364 -244 364 -258 q 356 -219 364 -229 q 341 -196 349 -208 q 333 -162 333 -183 q 355 -114 333 -131 q 401 -97 376 -97 q 448 -115 426 -97 q 469 -169 469 -132 q 444 -260 469 -206 q 361 -382 418 -314 z "},"Ú":{"ha":1040,"x_min":40,"x_max":1001,"o":"m 647 963 l 1001 969 l 1001 910 l 864 879 l 881 908 l 881 367 q 872 261 881 315 q 842 158 864 207 q 779 71 819 110 q 674 10 739 32 q 515 -12 610 -12 q 342 14 410 -12 q 236 84 274 40 q 183 177 199 128 q 164 272 168 226 q 160 351 160 318 l 160 908 l 176 879 l 40 903 l 40 963 l 394 969 l 394 910 l 258 879 l 274 908 l 274 351 q 276 278 274 317 q 291 204 279 240 q 329 140 303 168 q 401 94 356 111 q 517 76 446 76 q 635 94 589 76 q 709 143 682 113 q 749 212 736 174 q 764 290 761 250 q 767 367 767 329 l 767 908 l 781 881 l 647 903 l 647 963 m 401 1042 l 367 1104 l 646 1268 l 694 1175 l 401 1042 z "},"Ŭ":{"ha":1040,"x_min":40,"x_max":1001,"o":"m 647 963 l 1001 969 l 1001 910 l 864 879 l 881 908 l 881 367 q 872 261 881 315 q 842 158 864 207 q 779 71 819 110 q 674 10 739 32 q 515 -12 610 -12 q 342 14 410 -12 q 236 84 274 40 q 183 177 199 128 q 164 272 168 226 q 160 351 160 318 l 160 908 l 176 879 l 40 903 l 40 963 l 394 969 l 394 910 l 258 879 l 274 908 l 274 351 q 276 278 274 317 q 291 204 279 240 q 329 140 303 168 q 401 94 356 111 q 517 76 446 76 q 635 94 589 76 q 709 143 682 113 q 749 212 736 174 q 764 290 761 250 q 767 367 767 329 l 767 908 l 781 881 l 647 903 l 647 963 m 521 1057 q 431 1076 475 1057 q 360 1134 388 1096 q 331 1228 332 1172 l 399 1236 q 444 1158 406 1183 q 526 1133 482 1133 q 606 1158 571 1133 q 646 1231 642 1182 l 713 1235 q 685 1137 713 1176 q 613 1077 657 1097 q 521 1057 569 1057 z "},"Û":{"ha":1040,"x_min":40,"x_max":1001,"o":"m 647 963 l 1001 969 l 1001 910 l 864 879 l 881 908 l 881 367 q 872 261 881 315 q 842 158 864 207 q 779 71 819 110 q 674 10 739 32 q 515 -12 610 -12 q 342 14 410 -12 q 236 84 274 40 q 183 177 199 128 q 164 272 168 226 q 160 351 160 318 l 160 908 l 176 879 l 40 903 l 40 963 l 394 969 l 394 910 l 258 879 l 274 908 l 274 351 q 276 278 274 317 q 291 204 279 240 q 329 140 303 168 q 401 94 356 111 q 517 76 446 76 q 635 94 589 76 q 709 143 682 113 q 749 212 736 174 q 764 290 761 250 q 767 367 767 329 l 767 908 l 781 881 l 647 903 l 647 963 m 331 1035 l 292 1082 l 483 1247 l 549 1253 l 751 1082 l 711 1035 l 481 1185 l 554 1183 l 331 1035 z "},"Ȕ":{"ha":1040,"x_min":40,"x_max":1001,"o":"m 647 963 l 1001 969 l 1001 910 l 864 879 l 881 908 l 881 367 q 872 261 881 315 q 842 158 864 207 q 779 71 819 110 q 674 10 739 32 q 515 -12 610 -12 q 342 14 410 -12 q 236 84 274 40 q 183 177 199 128 q 164 272 168 226 q 160 351 160 318 l 160 908 l 176 879 l 40 903 l 40 963 l 394 969 l 394 910 l 258 879 l 274 908 l 274 351 q 276 278 274 317 q 291 204 279 240 q 329 140 303 168 q 401 94 356 111 q 517 76 446 76 q 635 94 589 76 q 709 143 682 113 q 749 212 736 174 q 764 290 761 250 q 767 367 767 329 l 767 908 l 781 881 l 647 903 l 647 963 m 422 1033 l 483 1064 l 381 1290 l 297 1246 l 422 1033 m 614 1033 l 675 1063 l 579 1290 l 494 1249 l 614 1033 z "},"Ü":{"ha":1040,"x_min":40,"x_max":1001,"o":"m 647 963 l 1001 969 l 1001 910 l 864 879 l 881 908 l 881 367 q 872 261 881 315 q 842 158 864 207 q 779 71 819 110 q 674 10 739 32 q 515 -12 610 -12 q 342 14 410 -12 q 236 84 274 40 q 183 177 199 128 q 164 272 168 226 q 160 351 160 318 l 160 908 l 176 879 l 40 903 l 40 963 l 394 969 l 394 910 l 258 879 l 274 908 l 274 351 q 276 278 274 317 q 291 204 279 240 q 329 140 303 168 q 401 94 356 111 q 517 76 446 76 q 635 94 589 76 q 709 143 682 113 q 749 212 736 174 q 764 290 761 250 q 767 367 767 329 l 767 908 l 781 881 l 647 903 l 647 963 m 660 1064 q 612 1083 629 1064 q 593 1136 594 1103 q 613 1189 593 1169 q 660 1208 632 1208 q 708 1189 690 1208 q 725 1136 725 1169 q 706 1083 725 1103 q 660 1064 686 1064 m 383 1064 q 335 1083 353 1064 q 318 1136 318 1103 q 337 1189 318 1169 q 383 1208 356 1208 q 432 1189 414 1208 q 450 1136 450 1169 q 431 1083 450 1103 q 383 1064 411 1064 z "},"Ụ":{"ha":1040,"x_min":40,"x_max":1001,"o":"m 647 963 l 1001 969 l 1001 910 l 864 879 l 881 908 l 881 367 q 872 261 881 315 q 842 158 864 207 q 779 71 819 110 q 674 10 739 32 q 515 -12 610 -12 q 342 14 410 -12 q 236 84 274 40 q 183 177 199 128 q 164 272 168 226 q 160 351 160 318 l 160 908 l 176 879 l 40 903 l 40 963 l 394 969 l 394 910 l 258 879 l 274 908 l 274 351 q 276 278 274 317 q 291 204 279 240 q 329 140 303 168 q 401 94 356 111 q 517 76 446 76 q 635 94 589 76 q 709 143 682 113 q 749 212 736 174 q 764 290 761 250 q 767 367 767 329 l 767 908 l 781 881 l 647 903 l 647 963 m 517 -253 q 464 -232 485 -253 q 443 -175 443 -211 q 465 -117 443 -137 q 518 -97 486 -97 q 572 -117 551 -97 q 593 -175 593 -136 q 571 -233 593 -212 q 517 -253 549 -253 z "},"Ù":{"ha":1040,"x_min":40,"x_max":1001,"o":"m 647 963 l 1001 969 l 1001 910 l 864 879 l 881 908 l 881 367 q 872 261 881 315 q 842 158 864 207 q 779 71 819 110 q 674 10 739 32 q 515 -12 610 -12 q 342 14 410 -12 q 236 84 274 40 q 183 177 199 128 q 164 272 168 226 q 160 351 160 318 l 160 908 l 176 879 l 40 903 l 40 963 l 394 969 l 394 910 l 258 879 l 274 908 l 274 351 q 276 278 274 317 q 291 204 279 240 q 329 140 303 168 q 401 94 356 111 q 517 76 446 76 q 635 94 589 76 q 709 143 682 113 q 749 212 736 174 q 764 290 761 250 q 767 367 767 329 l 767 908 l 781 881 l 647 903 l 647 963 m 654 1042 l 357 1174 l 410 1268 l 686 1106 l 654 1042 z "},"Ủ":{"ha":1040,"x_min":40,"x_max":1001,"o":"m 647 963 l 1001 969 l 1001 910 l 864 879 l 881 908 l 881 367 q 872 261 881 315 q 842 158 864 207 q 779 71 819 110 q 674 10 739 32 q 515 -12 610 -12 q 342 14 410 -12 q 236 84 274 40 q 183 177 199 128 q 164 272 168 226 q 160 351 160 318 l 160 908 l 176 879 l 40 903 l 40 963 l 394 969 l 394 910 l 258 879 l 274 908 l 274 351 q 276 278 274 317 q 291 204 279 240 q 329 140 303 168 q 401 94 356 111 q 517 76 446 76 q 635 94 589 76 q 709 143 682 113 q 749 212 736 174 q 764 290 761 250 q 767 367 767 329 l 767 908 l 781 881 l 647 903 l 647 963 m 479 1026 l 479 1111 q 554 1129 528 1114 q 581 1176 581 1144 q 560 1217 581 1206 q 511 1229 540 1229 q 472 1226 493 1229 q 431 1217 451 1224 l 415 1271 q 471 1288 442 1282 q 526 1293 500 1293 q 626 1267 585 1293 q 667 1182 667 1240 q 639 1110 667 1139 q 554 1071 611 1081 l 554 1026 l 479 1026 z "},"Ư":{"ha":1036,"x_min":40,"x_max":1025,"o":"m 833 903 l 881 929 l 881 367 q 844 158 881 242 q 726 31 807 74 q 514 -12 646 -12 q 243 77 326 -12 q 160 351 160 167 l 160 908 l 176 879 l 40 903 l 40 963 l 394 969 l 394 910 l 258 879 l 274 908 l 274 351 q 325 144 274 211 q 515 76 376 76 q 670 110 615 76 q 746 208 725 143 q 767 367 767 274 l 767 908 l 781 881 l 647 903 l 647 963 l 832 967 q 908 988 885 968 q 931 1047 931 1008 q 911 1142 931 1085 l 994 1161 q 1017 1100 1010 1129 q 1025 1044 1025 1071 q 976 940 1025 979 q 833 903 928 900 z "},"Ứ":{"ha":1036,"x_min":40,"x_max":1025,"o":"m 833 903 l 881 929 l 881 367 q 844 158 881 242 q 726 31 807 74 q 514 -12 646 -12 q 243 77 326 -12 q 160 351 160 167 l 160 908 l 176 879 l 40 903 l 40 963 l 394 969 l 394 910 l 258 879 l 274 908 l 274 351 q 325 144 274 211 q 515 76 376 76 q 670 110 615 76 q 746 208 725 143 q 767 367 767 274 l 767 908 l 781 881 l 647 903 l 647 963 l 832 967 q 908 988 885 968 q 931 1047 931 1008 q 911 1142 931 1085 l 994 1161 q 1017 1100 1010 1129 q 1025 1044 1025 1071 q 976 940 1025 979 q 833 903 928 900 m 401 1042 l 367 1104 l 646 1268 l 694 1175 l 401 1042 z "},"Ự":{"ha":1036,"x_min":40,"x_max":1025,"o":"m 833 903 l 881 929 l 881 367 q 844 158 881 242 q 726 31 807 74 q 514 -12 646 -12 q 243 77 326 -12 q 160 351 160 167 l 160 908 l 176 879 l 40 903 l 40 963 l 394 969 l 394 910 l 258 879 l 274 908 l 274 351 q 325 144 274 211 q 515 76 376 76 q 670 110 615 76 q 746 208 725 143 q 767 367 767 274 l 767 908 l 781 881 l 647 903 l 647 963 l 832 967 q 908 988 885 968 q 931 1047 931 1008 q 911 1142 931 1085 l 994 1161 q 1017 1100 1010 1129 q 1025 1044 1025 1071 q 976 940 1025 979 q 833 903 928 900 m 517 -253 q 464 -232 485 -253 q 443 -175 443 -211 q 465 -117 443 -137 q 518 -97 486 -97 q 572 -117 551 -97 q 593 -175 593 -136 q 571 -233 593 -212 q 517 -253 549 -253 z "},"Ừ":{"ha":1036,"x_min":40,"x_max":1025,"o":"m 833 903 l 881 929 l 881 367 q 844 158 881 242 q 726 31 807 74 q 514 -12 646 -12 q 243 77 326 -12 q 160 351 160 167 l 160 908 l 176 879 l 40 903 l 40 963 l 394 969 l 394 910 l 258 879 l 274 908 l 274 351 q 325 144 274 211 q 515 76 376 76 q 670 110 615 76 q 746 208 725 143 q 767 367 767 274 l 767 908 l 781 881 l 647 903 l 647 963 l 832 967 q 908 988 885 968 q 931 1047 931 1008 q 911 1142 931 1085 l 994 1161 q 1017 1100 1010 1129 q 1025 1044 1025 1071 q 976 940 1025 979 q 833 903 928 900 m 654 1042 l 357 1174 l 410 1268 l 686 1106 l 654 1042 z "},"Ử":{"ha":1036,"x_min":40,"x_max":1025,"o":"m 833 903 l 881 929 l 881 367 q 844 158 881 242 q 726 31 807 74 q 514 -12 646 -12 q 243 77 326 -12 q 160 351 160 167 l 160 908 l 176 879 l 40 903 l 40 963 l 394 969 l 394 910 l 258 879 l 274 908 l 274 351 q 325 144 274 211 q 515 76 376 76 q 670 110 615 76 q 746 208 725 143 q 767 367 767 274 l 767 908 l 781 881 l 647 903 l 647 963 l 832 967 q 908 988 885 968 q 931 1047 931 1008 q 911 1142 931 1085 l 994 1161 q 1017 1100 1010 1129 q 1025 1044 1025 1071 q 976 940 1025 979 q 833 903 928 900 m 479 1026 l 479 1111 q 554 1129 528 1114 q 581 1176 581 1144 q 560 1217 581 1206 q 511 1229 540 1229 q 472 1226 493 1229 q 431 1217 451 1224 l 415 1271 q 471 1288 442 1282 q 526 1293 500 1293 q 626 1267 585 1293 q 667 1182 667 1240 q 639 1110 667 1139 q 554 1071 611 1081 l 554 1026 l 479 1026 z "},"Ữ":{"ha":1036,"x_min":40,"x_max":1025,"o":"m 833 903 l 881 929 l 881 367 q 844 158 881 242 q 726 31 807 74 q 514 -12 646 -12 q 243 77 326 -12 q 160 351 160 167 l 160 908 l 176 879 l 40 903 l 40 963 l 394 969 l 394 910 l 258 879 l 274 908 l 274 351 q 325 144 274 211 q 515 76 376 76 q 670 110 615 76 q 746 208 725 143 q 767 367 767 274 l 767 908 l 781 881 l 647 903 l 647 963 l 832 967 q 908 988 885 968 q 931 1047 931 1008 q 911 1142 931 1085 l 994 1161 q 1017 1100 1010 1129 q 1025 1044 1025 1071 q 976 940 1025 979 q 833 903 928 900 m 344 1075 l 294 1099 q 350 1191 318 1163 q 424 1219 382 1219 q 492 1204 458 1219 q 557 1174 526 1189 q 614 1160 588 1160 q 658 1174 638 1160 q 699 1222 679 1188 l 750 1200 q 692 1107 725 1135 q 617 1079 658 1079 q 550 1094 582 1079 q 488 1123 518 1108 q 426 1138 457 1138 q 383 1123 401 1138 q 344 1075 365 1108 z "},"Ű":{"ha":1040,"x_min":40,"x_max":1001,"o":"m 647 963 l 1001 969 l 1001 910 l 864 879 l 881 908 l 881 367 q 872 261 881 315 q 842 158 864 207 q 779 71 819 110 q 674 10 739 32 q 515 -12 610 -12 q 342 14 410 -12 q 236 84 274 40 q 183 177 199 128 q 164 272 168 226 q 160 351 160 318 l 160 908 l 176 879 l 40 903 l 40 963 l 394 969 l 394 910 l 258 879 l 274 908 l 274 351 q 276 278 274 317 q 291 204 279 240 q 329 140 303 168 q 401 94 356 111 q 517 76 446 76 q 635 94 589 76 q 709 143 682 113 q 749 212 736 174 q 764 290 761 250 q 767 367 767 329 l 767 908 l 781 881 l 647 903 l 647 963 m 633 1033 l 572 1064 l 675 1290 l 758 1246 l 633 1033 m 442 1033 l 379 1063 l 475 1290 l 561 1250 l 442 1033 z "},"Ȗ":{"ha":1040,"x_min":40,"x_max":1001,"o":"m 647 963 l 1001 969 l 1001 910 l 864 879 l 881 908 l 881 367 q 872 261 881 315 q 842 158 864 207 q 779 71 819 110 q 674 10 739 32 q 515 -12 610 -12 q 342 14 410 -12 q 236 84 274 40 q 183 177 199 128 q 164 272 168 226 q 160 351 160 318 l 160 908 l 176 879 l 40 903 l 40 963 l 394 969 l 394 910 l 258 879 l 274 908 l 274 351 q 276 278 274 317 q 291 204 279 240 q 329 140 303 168 q 401 94 356 111 q 517 76 446 76 q 635 94 589 76 q 709 143 682 113 q 749 212 736 174 q 764 290 761 250 q 767 367 767 329 l 767 908 l 781 881 l 647 903 l 647 963 m 521 1231 q 617 1208 575 1231 q 683 1145 658 1186 q 708 1051 707 1104 l 638 1043 q 599 1121 632 1092 q 518 1150 567 1150 q 439 1123 469 1150 q 404 1049 408 1096 l 336 1046 q 359 1142 336 1100 q 424 1207 382 1183 q 521 1231 465 1231 z "},"Ū":{"ha":1040,"x_min":40,"x_max":1001,"o":"m 647 963 l 1001 969 l 1001 910 l 864 879 l 881 908 l 881 367 q 872 261 881 315 q 842 158 864 207 q 779 71 819 110 q 674 10 739 32 q 515 -12 610 -12 q 342 14 410 -12 q 236 84 274 40 q 183 177 199 128 q 164 272 168 226 q 160 351 160 318 l 160 908 l 176 879 l 40 903 l 40 963 l 394 969 l 394 910 l 258 879 l 274 908 l 274 351 q 276 278 274 317 q 291 204 279 240 q 329 140 303 168 q 401 94 356 111 q 517 76 446 76 q 635 94 589 76 q 709 143 682 113 q 749 212 736 174 q 764 290 761 250 q 767 367 767 329 l 767 908 l 781 881 l 647 903 l 647 963 m 707 1175 l 707 1093 l 338 1093 l 338 1175 l 707 1175 z "},"Ų":{"ha":1040,"x_min":40,"x_max":1001,"o":"m 647 963 l 1001 969 l 1001 910 l 864 879 l 881 908 l 881 367 q 872 261 881 315 q 842 158 864 207 q 779 71 819 110 q 674 10 739 32 q 515 -12 610 -12 q 342 14 410 -12 q 236 84 274 40 q 183 177 199 128 q 164 272 168 226 q 160 351 160 318 l 160 908 l 176 879 l 40 903 l 40 963 l 394 969 l 394 910 l 258 879 l 274 908 l 274 351 q 276 278 274 317 q 291 204 279 240 q 329 140 303 168 q 401 94 356 111 q 517 76 446 76 q 635 94 589 76 q 709 143 682 113 q 749 212 736 174 q 764 290 761 250 q 767 367 767 329 l 767 908 l 781 881 l 647 903 l 647 963 m 554 -306 q 438 -270 482 -306 q 394 -176 394 -235 q 420 -91 394 -135 q 497 -10 446 -47 q 624 53 547 28 l 638 0 q 519 -72 560 -29 q 479 -153 479 -114 q 508 -208 479 -186 q 586 -231 538 -231 q 613 -228 599 -231 q 640 -224 626 -226 l 649 -290 q 599 -301 622 -297 q 554 -306 576 -306 z "},"Ů":{"ha":1040,"x_min":40,"x_max":1001,"o":"m 647 963 l 1001 969 l 1001 910 l 864 879 l 881 908 l 881 367 q 872 261 881 315 q 842 158 864 207 q 779 71 819 110 q 674 10 739 32 q 515 -12 610 -12 q 342 14 410 -12 q 236 84 274 40 q 183 177 199 128 q 164 272 168 226 q 160 351 160 318 l 160 908 l 176 879 l 40 903 l 40 963 l 394 969 l 394 910 l 258 879 l 274 908 l 274 351 q 276 278 274 317 q 291 204 279 240 q 329 140 303 168 q 401 94 356 111 q 517 76 446 76 q 635 94 589 76 q 709 143 682 113 q 749 212 736 174 q 764 290 761 250 q 767 367 767 329 l 767 908 l 781 881 l 647 903 l 647 963 m 521 1018 q 446 1034 479 1018 q 394 1080 413 1050 q 375 1150 375 1110 q 394 1221 375 1190 q 447 1269 413 1251 q 524 1286 481 1286 q 599 1270 567 1286 q 650 1224 631 1254 q 669 1154 669 1194 q 651 1083 669 1114 q 599 1035 632 1053 q 521 1018 565 1018 m 521 1075 q 576 1097 557 1075 q 596 1153 596 1119 q 577 1208 596 1186 q 522 1229 558 1229 q 467 1207 486 1229 q 449 1151 449 1185 q 467 1097 449 1118 q 521 1075 486 1075 z "},"Ũ":{"ha":1040,"x_min":40,"x_max":1001,"o":"m 647 963 l 1001 969 l 1001 910 l 864 879 l 881 908 l 881 367 q 872 261 881 315 q 842 158 864 207 q 779 71 819 110 q 674 10 739 32 q 515 -12 610 -12 q 342 14 410 -12 q 236 84 274 40 q 183 177 199 128 q 164 272 168 226 q 160 351 160 318 l 160 908 l 176 879 l 40 903 l 40 963 l 394 969 l 394 910 l 258 879 l 274 908 l 274 351 q 276 278 274 317 q 291 204 279 240 q 329 140 303 168 q 401 94 356 111 q 517 76 446 76 q 635 94 589 76 q 709 143 682 113 q 749 212 736 174 q 764 290 761 250 q 767 367 767 329 l 767 908 l 781 881 l 647 903 l 647 963 m 344 1075 l 294 1099 q 350 1191 318 1163 q 424 1219 382 1219 q 492 1204 458 1219 q 557 1174 526 1189 q 614 1160 588 1160 q 658 1174 638 1160 q 699 1222 679 1188 l 750 1200 q 692 1107 725 1135 q 617 1079 658 1079 q 550 1094 582 1079 q 488 1123 518 1108 q 426 1138 457 1138 q 383 1123 401 1138 q 344 1075 365 1108 z "},"Ẃ":{"ha":1422,"x_min":7,"x_max":1415,"o":"m 1074 963 l 1415 969 l 1415 910 l 1282 881 l 1311 911 l 1053 -1 l 943 -1 l 700 829 l 721 828 l 464 -1 l 354 -1 l 115 904 l 131 882 l 7 903 l 7 963 l 361 969 l 361 910 l 215 881 l 232 904 l 431 104 l 407 104 l 665 964 l 769 969 l 1017 107 l 993 107 l 1210 903 l 1222 881 l 1074 903 l 1074 963 m 599 1042 l 564 1104 l 843 1268 l 892 1175 l 599 1042 z "},"Ŵ":{"ha":1422,"x_min":7,"x_max":1415,"o":"m 1074 963 l 1415 969 l 1415 910 l 1282 881 l 1311 911 l 1053 -1 l 943 -1 l 700 829 l 721 828 l 464 -1 l 354 -1 l 115 904 l 131 882 l 7 903 l 7 963 l 361 969 l 361 910 l 215 881 l 232 904 l 431 104 l 407 104 l 665 964 l 769 969 l 1017 107 l 993 107 l 1210 903 l 1222 881 l 1074 903 l 1074 963 m 529 1035 l 490 1082 l 682 1247 l 747 1253 l 950 1082 l 910 1035 l 679 1185 l 753 1183 l 529 1035 z "},"Ẅ":{"ha":1422,"x_min":7,"x_max":1415,"o":"m 1074 963 l 1415 969 l 1415 910 l 1282 881 l 1311 911 l 1053 -1 l 943 -1 l 700 829 l 721 828 l 464 -1 l 354 -1 l 115 904 l 131 882 l 7 903 l 7 963 l 361 969 l 361 910 l 215 881 l 232 904 l 431 104 l 407 104 l 665 964 l 769 969 l 1017 107 l 993 107 l 1210 903 l 1222 881 l 1074 903 l 1074 963 m 857 1064 q 809 1083 826 1064 q 790 1136 792 1103 q 810 1189 790 1169 q 857 1208 829 1208 q 905 1189 888 1208 q 922 1136 922 1169 q 903 1083 922 1103 q 857 1064 883 1064 m 581 1064 q 533 1083 550 1064 q 515 1136 515 1103 q 534 1189 515 1169 q 581 1208 553 1208 q 629 1189 611 1208 q 647 1136 647 1169 q 628 1083 647 1103 q 581 1064 608 1064 z "},"Ẁ":{"ha":1422,"x_min":7,"x_max":1415,"o":"m 1074 963 l 1415 969 l 1415 910 l 1282 881 l 1311 911 l 1053 -1 l 943 -1 l 700 829 l 721 828 l 464 -1 l 354 -1 l 115 904 l 131 882 l 7 903 l 7 963 l 361 969 l 361 910 l 215 881 l 232 904 l 431 104 l 407 104 l 665 964 l 769 969 l 1017 107 l 993 107 l 1210 903 l 1222 881 l 1074 903 l 1074 963 m 853 1042 l 556 1174 l 608 1268 l 885 1106 l 853 1042 z "},"Ý":{"ha":890,"x_min":6,"x_max":886,"o":"m 264 0 l 264 60 l 406 89 l 386 64 l 386 378 l 399 332 l 106 900 l 132 879 l 6 903 l 6 963 l 361 969 l 361 910 l 213 882 l 224 904 l 464 418 l 440 418 l 683 900 l 693 879 l 544 903 l 544 963 l 886 969 l 886 910 l 760 882 l 785 903 l 490 332 l 500 378 l 500 64 l 481 89 l 622 60 l 622 0 l 264 0 m 326 1042 l 292 1104 l 571 1268 l 619 1175 l 326 1042 z "},"Ŷ":{"ha":890,"x_min":6,"x_max":886,"o":"m 264 0 l 264 60 l 406 89 l 386 64 l 386 378 l 399 332 l 106 900 l 132 879 l 6 903 l 6 963 l 361 969 l 361 910 l 213 882 l 224 904 l 464 418 l 440 418 l 683 900 l 693 879 l 544 903 l 544 963 l 886 969 l 886 910 l 760 882 l 785 903 l 490 332 l 500 378 l 500 64 l 481 89 l 622 60 l 622 0 l 264 0 m 257 1035 l 218 1082 l 410 1247 l 475 1253 l 678 1082 l 638 1035 l 407 1185 l 481 1183 l 257 1035 z "},"Ÿ":{"ha":890,"x_min":6,"x_max":886,"o":"m 264 0 l 264 60 l 406 89 l 386 64 l 386 378 l 399 332 l 106 900 l 132 879 l 6 903 l 6 963 l 361 969 l 361 910 l 213 882 l 224 904 l 464 418 l 440 418 l 683 900 l 693 879 l 544 903 l 544 963 l 886 969 l 886 910 l 760 882 l 785 903 l 490 332 l 500 378 l 500 64 l 481 89 l 622 60 l 622 0 l 264 0 m 585 1064 q 537 1083 554 1064 q 518 1136 519 1103 q 538 1189 518 1169 q 585 1208 557 1208 q 633 1189 615 1208 q 650 1136 650 1169 q 631 1083 650 1103 q 585 1064 611 1064 m 308 1064 q 260 1083 278 1064 q 243 1136 243 1103 q 262 1189 243 1169 q 308 1208 281 1208 q 357 1189 339 1208 q 375 1136 375 1169 q 356 1083 375 1103 q 308 1064 336 1064 z "},"Ỵ":{"ha":890,"x_min":6,"x_max":886,"o":"m 264 0 l 264 60 l 406 89 l 386 64 l 386 378 l 399 332 l 106 900 l 132 879 l 6 903 l 6 963 l 361 969 l 361 910 l 213 882 l 224 904 l 464 418 l 440 418 l 683 900 l 693 879 l 544 903 l 544 963 l 886 969 l 886 910 l 760 882 l 785 903 l 490 332 l 500 378 l 500 64 l 481 89 l 622 60 l 622 0 l 264 0 m 443 -253 q 390 -232 411 -253 q 369 -175 369 -211 q 391 -117 369 -137 q 444 -97 413 -97 q 499 -117 478 -97 q 519 -175 519 -136 q 497 -233 519 -212 q 443 -253 475 -253 z "},"Ỳ":{"ha":890,"x_min":6,"x_max":886,"o":"m 264 0 l 264 60 l 406 89 l 386 64 l 386 378 l 399 332 l 106 900 l 132 879 l 6 903 l 6 963 l 361 969 l 361 910 l 213 882 l 224 904 l 464 418 l 440 418 l 683 900 l 693 879 l 544 903 l 544 963 l 886 969 l 886 910 l 760 882 l 785 903 l 490 332 l 500 378 l 500 64 l 481 89 l 622 60 l 622 0 l 264 0 m 581 1042 l 283 1174 l 336 1268 l 613 1106 l 581 1042 z "},"Ỷ":{"ha":890,"x_min":6,"x_max":886,"o":"m 264 0 l 264 60 l 406 89 l 386 64 l 386 378 l 399 332 l 106 900 l 132 879 l 6 903 l 6 963 l 361 969 l 361 910 l 213 882 l 224 904 l 464 418 l 440 418 l 683 900 l 693 879 l 544 903 l 544 963 l 886 969 l 886 910 l 760 882 l 785 903 l 490 332 l 500 378 l 500 64 l 481 89 l 622 60 l 622 0 l 264 0 m 404 1026 l 404 1111 q 479 1129 453 1114 q 506 1176 506 1144 q 485 1217 506 1206 q 436 1229 465 1229 q 397 1226 418 1229 q 356 1217 376 1224 l 340 1271 q 396 1288 367 1282 q 451 1293 425 1293 q 551 1267 510 1293 q 592 1182 592 1240 q 564 1110 592 1139 q 479 1071 536 1081 l 479 1026 l 404 1026 z "},"Ȳ":{"ha":890,"x_min":6,"x_max":886,"o":"m 264 0 l 264 60 l 406 89 l 386 64 l 386 378 l 399 332 l 106 900 l 132 879 l 6 903 l 6 963 l 361 969 l 361 910 l 213 882 l 224 904 l 464 418 l 440 418 l 683 900 l 693 879 l 544 903 l 544 963 l 886 969 l 886 910 l 760 882 l 785 903 l 490 332 l 500 378 l 500 64 l 481 89 l 622 60 l 622 0 l 264 0 m 632 1175 l 632 1093 l 263 1093 l 263 1175 l 632 1175 z "},"Ỹ":{"ha":890,"x_min":6,"x_max":886,"o":"m 264 0 l 264 60 l 406 89 l 386 64 l 386 378 l 399 332 l 106 900 l 132 879 l 6 903 l 6 963 l 361 969 l 361 910 l 213 882 l 224 904 l 464 418 l 440 418 l 683 900 l 693 879 l 544 903 l 544 963 l 886 969 l 886 910 l 760 882 l 785 903 l 490 332 l 500 378 l 500 64 l 481 89 l 622 60 l 622 0 l 264 0 m 269 1075 l 219 1099 q 275 1191 243 1163 q 349 1219 307 1219 q 417 1204 383 1219 q 482 1174 451 1189 q 539 1160 513 1160 q 583 1174 563 1160 q 624 1222 604 1188 l 675 1200 q 617 1107 650 1135 q 542 1079 583 1079 q 475 1094 507 1079 q 413 1123 443 1108 q 351 1138 382 1138 q 308 1123 326 1138 q 269 1075 290 1108 z "},"Ź":{"ha":857,"x_min":61,"x_max":785,"o":"m 61 0 l 61 78 l 653 899 l 665 883 l 161 883 l 190 899 l 163 729 l 93 729 l 93 969 l 776 969 l 776 893 l 188 67 l 182 86 l 717 86 l 688 68 l 714 240 l 785 240 l 781 0 l 61 0 m 310 1042 l 275 1104 l 554 1268 l 603 1175 l 310 1042 z "},"Ž":{"ha":857,"x_min":61,"x_max":785,"o":"m 61 0 l 61 78 l 653 899 l 665 883 l 161 883 l 190 899 l 163 729 l 93 729 l 93 969 l 776 969 l 776 893 l 188 67 l 182 86 l 717 86 l 688 68 l 714 240 l 785 240 l 781 0 l 61 0 m 619 1265 l 658 1218 l 467 1054 l 401 1049 l 200 1218 l 240 1265 l 469 1117 l 396 1118 l 619 1265 z "},"Ż":{"ha":857,"x_min":61,"x_max":785,"o":"m 61 0 l 61 78 l 653 899 l 665 883 l 161 883 l 190 899 l 163 729 l 93 729 l 93 969 l 776 969 l 776 893 l 188 67 l 182 86 l 717 86 l 688 68 l 714 240 l 785 240 l 781 0 l 61 0 m 429 1064 q 376 1085 397 1064 q 356 1142 356 1106 q 377 1199 356 1179 q 431 1219 399 1219 q 485 1200 464 1219 q 506 1142 506 1181 q 483 1084 506 1104 q 429 1064 461 1064 z "},"á":{"ha":761,"x_min":71,"x_max":733,"o":"m 624 63 l 606 88 l 733 63 l 733 1 l 539 -7 l 522 126 l 532 122 q 400 22 471 56 q 263 -12 329 -12 q 126 39 182 -12 q 71 194 71 90 q 106 320 71 276 q 201 382 140 364 q 343 400 263 400 l 525 400 l 513 386 l 513 519 q 472 628 513 596 q 361 661 432 661 q 281 653 324 661 q 192 629 239 646 l 208 647 l 194 521 l 121 521 l 110 693 q 258 733 189 719 q 386 746 328 746 q 560 697 497 746 q 624 539 624 647 l 624 63 m 183 204 q 216 104 183 136 q 299 72 249 72 q 406 102 347 72 q 521 183 465 132 l 513 154 l 513 340 l 525 328 l 360 328 q 222 298 261 328 q 183 204 183 268 m 290 861 l 250 918 l 503 1117 l 565 1032 l 290 861 z "},"ă":{"ha":761,"x_min":71,"x_max":733,"o":"m 624 63 l 606 88 l 733 63 l 733 1 l 539 -7 l 522 126 l 532 122 q 400 22 471 56 q 263 -12 329 -12 q 126 39 182 -12 q 71 194 71 90 q 106 320 71 276 q 201 382 140 364 q 343 400 263 400 l 525 400 l 513 386 l 513 519 q 472 628 513 596 q 361 661 432 661 q 281 653 324 661 q 192 629 239 646 l 208 647 l 194 521 l 121 521 l 110 693 q 258 733 189 719 q 386 746 328 746 q 560 697 497 746 q 624 539 624 647 l 624 63 m 183 204 q 216 104 183 136 q 299 72 249 72 q 406 102 347 72 q 521 183 465 132 l 513 154 l 513 340 l 525 328 l 360 328 q 222 298 261 328 q 183 204 183 268 m 375 878 q 279 900 321 878 q 213 963 238 922 q 188 1057 189 1004 l 257 1065 q 297 988 264 1017 q 378 958 329 958 q 456 986 426 958 q 490 1060 486 1014 l 560 1063 q 537 967 560 1008 q 472 901 514 925 q 375 878 431 878 z "},"ắ":{"ha":761,"x_min":71,"x_max":733,"o":"m 624 63 l 606 88 l 733 63 l 733 1 l 539 -7 l 522 126 l 532 122 q 400 22 471 56 q 263 -12 329 -12 q 126 39 182 -12 q 71 194 71 90 q 106 320 71 276 q 201 382 140 364 q 343 400 263 400 l 525 400 l 513 386 l 513 519 q 472 628 513 596 q 361 661 432 661 q 281 653 324 661 q 192 629 239 646 l 208 647 l 194 521 l 121 521 l 110 693 q 258 733 189 719 q 386 746 328 746 q 560 697 497 746 q 624 539 624 647 l 624 63 m 183 204 q 216 104 183 136 q 299 72 249 72 q 406 102 347 72 q 521 183 465 132 l 513 154 l 513 340 l 525 328 l 360 328 q 222 298 261 328 q 183 204 183 268 m 374 821 q 284 840 328 821 q 213 898 240 860 q 183 992 185 936 l 251 1000 q 297 922 258 947 q 379 897 335 897 q 459 922 424 897 q 499 994 494 946 l 565 999 q 538 901 565 940 q 466 841 510 861 q 374 821 422 821 m 356 989 l 308 1036 l 476 1218 l 544 1153 l 356 989 z "},"ặ":{"ha":761,"x_min":71,"x_max":733,"o":"m 624 63 l 606 88 l 733 63 l 733 1 l 539 -7 l 522 126 l 532 122 q 400 22 471 56 q 263 -12 329 -12 q 126 39 182 -12 q 71 194 71 90 q 106 320 71 276 q 201 382 140 364 q 343 400 263 400 l 525 400 l 513 386 l 513 519 q 472 628 513 596 q 361 661 432 661 q 281 653 324 661 q 192 629 239 646 l 208 647 l 194 521 l 121 521 l 110 693 q 258 733 189 719 q 386 746 328 746 q 560 697 497 746 q 624 539 624 647 l 624 63 m 183 204 q 216 104 183 136 q 299 72 249 72 q 406 102 347 72 q 521 183 465 132 l 513 154 l 513 340 l 525 328 l 360 328 q 222 298 261 328 q 183 204 183 268 m 375 878 q 279 900 321 878 q 213 963 238 922 q 188 1057 189 1004 l 257 1065 q 297 988 264 1017 q 378 958 329 958 q 456 986 426 958 q 490 1060 486 1014 l 560 1063 q 537 967 560 1008 q 472 901 514 925 q 375 878 431 878 m 379 -253 q 326 -232 347 -253 q 306 -175 306 -211 q 327 -117 306 -137 q 381 -97 349 -97 q 435 -117 414 -97 q 456 -175 456 -136 q 433 -233 456 -212 q 379 -253 411 -253 z "},"ằ":{"ha":761,"x_min":71,"x_max":733,"o":"m 624 63 l 606 88 l 733 63 l 733 1 l 539 -7 l 522 126 l 532 122 q 400 22 471 56 q 263 -12 329 -12 q 126 39 182 -12 q 71 194 71 90 q 106 320 71 276 q 201 382 140 364 q 343 400 263 400 l 525 400 l 513 386 l 513 519 q 472 628 513 596 q 361 661 432 661 q 281 653 324 661 q 192 629 239 646 l 208 647 l 194 521 l 121 521 l 110 693 q 258 733 189 719 q 386 746 328 746 q 560 697 497 746 q 624 539 624 647 l 624 63 m 183 204 q 216 104 183 136 q 299 72 249 72 q 406 102 347 72 q 521 183 465 132 l 513 154 l 513 340 l 525 328 l 360 328 q 222 298 261 328 q 183 204 183 268 m 403 989 l 450 1036 l 282 1218 l 214 1153 l 403 989 m 374 821 q 284 840 328 821 q 213 898 240 860 q 183 992 185 936 l 251 1000 q 297 922 258 947 q 379 897 335 897 q 459 922 424 897 q 499 994 494 946 l 565 999 q 538 901 565 940 q 466 841 510 861 q 374 821 422 821 z "},"ẳ":{"ha":761,"x_min":71,"x_max":733,"o":"m 624 63 l 606 88 l 733 63 l 733 1 l 539 -7 l 522 126 l 532 122 q 400 22 471 56 q 263 -12 329 -12 q 126 39 182 -12 q 71 194 71 90 q 106 320 71 276 q 201 382 140 364 q 343 400 263 400 l 525 400 l 513 386 l 513 519 q 472 628 513 596 q 361 661 432 661 q 281 653 324 661 q 192 629 239 646 l 208 647 l 194 521 l 121 521 l 110 693 q 258 733 189 719 q 386 746 328 746 q 560 697 497 746 q 624 539 624 647 l 624 63 m 183 204 q 216 104 183 136 q 299 72 249 72 q 406 102 347 72 q 521 183 465 132 l 513 154 l 513 340 l 525 328 l 360 328 q 222 298 261 328 q 183 204 183 268 m 374 821 q 284 840 328 821 q 213 898 240 860 q 183 992 185 936 l 251 1000 q 297 922 258 947 q 379 897 335 897 q 459 922 424 897 q 499 994 494 946 l 565 999 q 538 901 565 940 q 466 841 510 861 q 374 821 422 821 m 331 990 l 331 1075 q 406 1093 379 1078 q 432 1140 432 1108 q 412 1181 432 1169 q 363 1193 392 1193 q 324 1190 344 1193 q 282 1181 303 1188 l 267 1235 q 322 1251 293 1246 q 378 1257 351 1257 q 477 1231 436 1257 q 518 1146 518 1204 q 490 1074 518 1103 q 406 1035 463 1044 l 406 990 l 331 990 z "},"ẵ":{"ha":761,"x_min":71,"x_max":733,"o":"m 624 63 l 606 88 l 733 63 l 733 1 l 539 -7 l 522 126 l 532 122 q 400 22 471 56 q 263 -12 329 -12 q 126 39 182 -12 q 71 194 71 90 q 106 320 71 276 q 201 382 140 364 q 343 400 263 400 l 525 400 l 513 386 l 513 519 q 472 628 513 596 q 361 661 432 661 q 281 653 324 661 q 192 629 239 646 l 208 647 l 194 521 l 121 521 l 110 693 q 258 733 189 719 q 386 746 328 746 q 560 697 497 746 q 624 539 624 647 l 624 63 m 183 204 q 216 104 183 136 q 299 72 249 72 q 406 102 347 72 q 521 183 465 132 l 513 154 l 513 340 l 525 328 l 360 328 q 222 298 261 328 q 183 204 183 268 m 213 1044 l 165 1067 q 217 1160 188 1132 q 285 1188 246 1188 q 348 1173 317 1188 q 408 1143 379 1158 q 460 1128 436 1128 q 500 1142 482 1128 q 538 1190 518 1157 l 585 1168 q 532 1075 563 1103 q 463 1047 501 1047 q 402 1063 432 1047 q 344 1092 372 1078 q 288 1107 317 1107 q 249 1092 267 1107 q 213 1044 231 1076 m 376 821 q 287 840 331 821 q 215 898 243 860 q 186 992 188 936 l 254 1000 q 299 922 261 947 q 382 897 338 897 q 462 922 426 897 q 501 994 497 946 l 568 999 q 540 901 568 940 q 469 841 513 861 q 376 821 425 821 z "},"â":{"ha":761,"x_min":71,"x_max":733,"o":"m 624 63 l 606 88 l 733 63 l 733 1 l 539 -7 l 522 126 l 532 122 q 400 22 471 56 q 263 -12 329 -12 q 126 39 182 -12 q 71 194 71 90 q 106 320 71 276 q 201 382 140 364 q 343 400 263 400 l 525 400 l 513 386 l 513 519 q 472 628 513 596 q 361 661 432 661 q 281 653 324 661 q 192 629 239 646 l 208 647 l 194 521 l 121 521 l 110 693 q 258 733 189 719 q 386 746 328 746 q 560 697 497 746 q 624 539 624 647 l 624 63 m 183 204 q 216 104 183 136 q 299 72 249 72 q 406 102 347 72 q 521 183 465 132 l 513 154 l 513 340 l 525 328 l 360 328 q 222 298 261 328 q 183 204 183 268 m 190 872 l 150 918 l 339 1096 l 404 1101 l 601 918 l 561 872 l 336 1036 l 410 1035 l 190 872 z "},"ấ":{"ha":761,"x_min":71,"x_max":733,"o":"m 624 63 l 606 88 l 733 63 l 733 1 l 539 -7 l 522 126 l 532 122 q 400 22 471 56 q 263 -12 329 -12 q 126 39 182 -12 q 71 194 71 90 q 106 320 71 276 q 201 382 140 364 q 343 400 263 400 l 525 400 l 513 386 l 513 519 q 472 628 513 596 q 361 661 432 661 q 281 653 324 661 q 192 629 239 646 l 208 647 l 194 521 l 121 521 l 110 693 q 258 733 189 719 q 386 746 328 746 q 560 697 497 746 q 624 539 624 647 l 624 63 m 183 204 q 216 104 183 136 q 299 72 249 72 q 406 102 347 72 q 521 183 465 132 l 513 154 l 513 340 l 525 328 l 360 328 q 222 298 261 328 q 183 204 183 268 m 547 982 l 496 1025 l 644 1222 l 718 1164 l 547 982 m 190 803 l 150 847 l 338 1026 l 403 1031 l 601 847 l 560 803 l 335 967 l 408 965 l 190 803 z "},"ậ":{"ha":761,"x_min":71,"x_max":733,"o":"m 624 63 l 606 88 l 733 63 l 733 1 l 539 -7 l 522 126 l 532 122 q 400 22 471 56 q 263 -12 329 -12 q 126 39 182 -12 q 71 194 71 90 q 106 320 71 276 q 201 382 140 364 q 343 400 263 400 l 525 400 l 513 386 l 513 519 q 472 628 513 596 q 361 661 432 661 q 281 653 324 661 q 192 629 239 646 l 208 647 l 194 521 l 121 521 l 110 693 q 258 733 189 719 q 386 746 328 746 q 560 697 497 746 q 624 539 624 647 l 624 63 m 183 204 q 216 104 183 136 q 299 72 249 72 q 406 102 347 72 q 521 183 465 132 l 513 154 l 513 340 l 525 328 l 360 328 q 222 298 261 328 q 183 204 183 268 m 190 872 l 150 918 l 339 1096 l 404 1101 l 601 918 l 561 872 l 336 1036 l 410 1035 l 190 872 m 379 -253 q 326 -232 347 -253 q 306 -175 306 -211 q 327 -117 306 -137 q 381 -97 349 -97 q 435 -117 414 -97 q 456 -175 456 -136 q 433 -233 456 -212 q 379 -253 411 -253 z "},"ầ":{"ha":761,"x_min":71,"x_max":733,"o":"m 624 63 l 606 88 l 733 63 l 733 1 l 539 -7 l 522 126 l 532 122 q 400 22 471 56 q 263 -12 329 -12 q 126 39 182 -12 q 71 194 71 90 q 106 320 71 276 q 201 382 140 364 q 343 400 263 400 l 525 400 l 513 386 l 513 519 q 472 628 513 596 q 361 661 432 661 q 281 653 324 661 q 192 629 239 646 l 208 647 l 194 521 l 121 521 l 110 693 q 258 733 189 719 q 386 746 328 746 q 560 697 497 746 q 624 539 624 647 l 624 63 m 183 204 q 216 104 183 136 q 299 72 249 72 q 406 102 347 72 q 521 183 465 132 l 513 154 l 513 340 l 525 328 l 360 328 q 222 298 261 328 q 183 204 183 268 m 588 983 l 413 1158 l 482 1221 l 638 1026 l 588 983 m 193 803 l 153 847 l 340 1026 l 406 1031 l 604 847 l 563 803 l 338 967 l 411 965 l 193 803 z "},"ẩ":{"ha":761,"x_min":71,"x_max":733,"o":"m 624 63 l 606 88 l 733 63 l 733 1 l 539 -7 l 522 126 l 532 122 q 400 22 471 56 q 263 -12 329 -12 q 126 39 182 -12 q 71 194 71 90 q 106 320 71 276 q 201 382 140 364 q 343 400 263 400 l 525 400 l 513 386 l 513 519 q 472 628 513 596 q 361 661 432 661 q 281 653 324 661 q 192 629 239 646 l 208 647 l 194 521 l 121 521 l 110 693 q 258 733 189 719 q 386 746 328 746 q 560 697 497 746 q 624 539 624 647 l 624 63 m 183 204 q 216 104 183 136 q 299 72 249 72 q 406 102 347 72 q 521 183 465 132 l 513 154 l 513 340 l 525 328 l 360 328 q 222 298 261 328 q 183 204 183 268 m 524 965 l 524 1050 q 599 1068 572 1053 q 625 1115 625 1083 q 605 1156 625 1144 q 556 1168 585 1168 q 517 1165 538 1168 q 475 1156 496 1163 l 460 1210 q 515 1226 486 1221 q 571 1232 544 1232 q 670 1206 629 1232 q 711 1121 711 1179 q 683 1049 711 1078 q 599 1010 656 1019 l 599 965 l 524 965 m 194 803 l 154 849 l 343 1026 l 408 1032 l 606 849 l 565 803 l 340 967 l 414 965 l 194 803 z "},"ẫ":{"ha":761,"x_min":71,"x_max":733,"o":"m 624 63 l 606 88 l 733 63 l 733 1 l 539 -7 l 522 126 l 532 122 q 400 22 471 56 q 263 -12 329 -12 q 126 39 182 -12 q 71 194 71 90 q 106 320 71 276 q 201 382 140 364 q 343 400 263 400 l 525 400 l 513 386 l 513 519 q 472 628 513 596 q 361 661 432 661 q 281 653 324 661 q 192 629 239 646 l 208 647 l 194 521 l 121 521 l 110 693 q 258 733 189 719 q 386 746 328 746 q 560 697 497 746 q 624 539 624 647 l 624 63 m 183 204 q 216 104 183 136 q 299 72 249 72 q 406 102 347 72 q 521 183 465 132 l 513 154 l 513 340 l 525 328 l 360 328 q 222 298 261 328 q 183 204 183 268 m 188 800 l 147 846 l 336 1024 l 401 1029 l 599 846 l 558 800 l 333 964 l 407 963 l 188 800 m 192 1051 l 142 1075 q 197 1167 165 1139 q 271 1196 229 1196 q 340 1181 306 1196 q 404 1151 374 1165 q 461 1136 435 1136 q 506 1150 485 1136 q 546 1199 526 1164 l 597 1176 q 539 1083 572 1111 q 464 1056 506 1056 q 397 1070 429 1056 q 335 1099 365 1085 q 274 1114 304 1114 q 231 1099 249 1114 q 192 1051 213 1085 z "},"ȁ":{"ha":761,"x_min":71,"x_max":733,"o":"m 624 63 l 606 88 l 733 63 l 733 1 l 539 -7 l 522 126 l 532 122 q 400 22 471 56 q 263 -12 329 -12 q 126 39 182 -12 q 71 194 71 90 q 106 320 71 276 q 201 382 140 364 q 343 400 263 400 l 525 400 l 513 386 l 513 519 q 472 628 513 596 q 361 661 432 661 q 281 653 324 661 q 192 629 239 646 l 208 647 l 194 521 l 121 521 l 110 693 q 258 733 189 719 q 386 746 328 746 q 560 697 497 746 q 624 539 624 647 l 624 63 m 183 204 q 216 104 183 136 q 299 72 249 72 q 406 102 347 72 q 521 183 465 132 l 513 154 l 513 340 l 525 328 l 360 328 q 222 298 261 328 q 183 204 183 268 m 256 861 l 317 892 l 215 1118 l 132 1074 l 256 861 m 447 861 l 510 890 l 414 1118 l 329 1078 l 447 861 z "},"ä":{"ha":761,"x_min":71,"x_max":733,"o":"m 624 63 l 606 88 l 733 63 l 733 1 l 539 -7 l 522 126 l 532 122 q 400 22 471 56 q 263 -12 329 -12 q 126 39 182 -12 q 71 194 71 90 q 106 320 71 276 q 201 382 140 364 q 343 400 263 400 l 525 400 l 513 386 l 513 519 q 472 628 513 596 q 361 661 432 661 q 281 653 324 661 q 192 629 239 646 l 208 647 l 194 521 l 121 521 l 110 693 q 258 733 189 719 q 386 746 328 746 q 560 697 497 746 q 624 539 624 647 l 624 63 m 183 204 q 216 104 183 136 q 299 72 249 72 q 406 102 347 72 q 521 183 465 132 l 513 154 l 513 340 l 525 328 l 360 328 q 222 298 261 328 q 183 204 183 268 m 511 893 q 463 913 481 893 q 444 965 446 932 q 464 1018 444 999 q 511 1038 483 1038 q 559 1018 542 1038 q 576 965 576 999 q 557 913 576 932 q 511 893 538 893 m 235 893 q 187 913 204 893 q 169 965 169 932 q 188 1018 169 999 q 235 1038 207 1038 q 283 1018 265 1038 q 301 965 301 999 q 282 913 301 932 q 235 893 263 893 z "},"ạ":{"ha":761,"x_min":71,"x_max":733,"o":"m 624 63 l 606 88 l 733 63 l 733 1 l 539 -7 l 522 126 l 532 122 q 400 22 471 56 q 263 -12 329 -12 q 126 39 182 -12 q 71 194 71 90 q 106 320 71 276 q 201 382 140 364 q 343 400 263 400 l 525 400 l 513 386 l 513 519 q 472 628 513 596 q 361 661 432 661 q 281 653 324 661 q 192 629 239 646 l 208 647 l 194 521 l 121 521 l 110 693 q 258 733 189 719 q 386 746 328 746 q 560 697 497 746 q 624 539 624 647 l 624 63 m 183 204 q 216 104 183 136 q 299 72 249 72 q 406 102 347 72 q 521 183 465 132 l 513 154 l 513 340 l 525 328 l 360 328 q 222 298 261 328 q 183 204 183 268 m 379 -253 q 326 -232 347 -253 q 306 -175 306 -211 q 327 -117 306 -137 q 381 -97 349 -97 q 435 -117 414 -97 q 456 -175 456 -136 q 433 -233 456 -212 q 379 -253 411 -253 z "},"à":{"ha":761,"x_min":71,"x_max":733,"o":"m 624 63 l 606 88 l 733 63 l 733 1 l 539 -7 l 522 126 l 532 122 q 400 22 471 56 q 263 -12 329 -12 q 126 39 182 -12 q 71 194 71 90 q 106 320 71 276 q 201 382 140 364 q 343 400 263 400 l 525 400 l 513 386 l 513 519 q 472 628 513 596 q 361 661 432 661 q 281 653 324 661 q 192 629 239 646 l 208 647 l 194 521 l 121 521 l 110 693 q 258 733 189 719 q 386 746 328 746 q 560 697 497 746 q 624 539 624 647 l 624 63 m 183 204 q 216 104 183 136 q 299 72 249 72 q 406 102 347 72 q 521 183 465 132 l 513 154 l 513 340 l 525 328 l 360 328 q 222 298 261 328 q 183 204 183 268 m 281 1118 l 528 919 l 485 861 l 217 1035 l 281 1118 z "},"ả":{"ha":761,"x_min":71,"x_max":733,"o":"m 624 63 l 606 88 l 733 63 l 733 1 l 539 -7 l 522 126 l 532 122 q 400 22 471 56 q 263 -12 329 -12 q 126 39 182 -12 q 71 194 71 90 q 106 320 71 276 q 201 382 140 364 q 343 400 263 400 l 525 400 l 513 386 l 513 519 q 472 628 513 596 q 361 661 432 661 q 281 653 324 661 q 192 629 239 646 l 208 647 l 194 521 l 121 521 l 110 693 q 258 733 189 719 q 386 746 328 746 q 560 697 497 746 q 624 539 624 647 l 624 63 m 183 204 q 216 104 183 136 q 299 72 249 72 q 406 102 347 72 q 521 183 465 132 l 513 154 l 513 340 l 525 328 l 360 328 q 222 298 261 328 q 183 204 183 268 m 329 842 l 329 940 q 404 958 378 943 q 431 1004 431 972 q 411 1044 431 1032 q 361 1057 392 1057 q 322 1053 343 1057 q 281 1043 301 1050 l 265 1099 q 322 1114 293 1108 q 378 1119 350 1119 q 477 1093 436 1119 q 518 1011 518 1067 q 490 940 518 968 q 406 901 463 911 l 406 842 l 329 842 z "},"ȃ":{"ha":761,"x_min":71,"x_max":733,"o":"m 624 63 l 606 88 l 733 63 l 733 1 l 539 -7 l 522 126 l 532 122 q 400 22 471 56 q 263 -12 329 -12 q 126 39 182 -12 q 71 194 71 90 q 106 320 71 276 q 201 382 140 364 q 343 400 263 400 l 525 400 l 513 386 l 513 519 q 472 628 513 596 q 361 661 432 661 q 281 653 324 661 q 192 629 239 646 l 208 647 l 194 521 l 121 521 l 110 693 q 258 733 189 719 q 386 746 328 746 q 560 697 497 746 q 624 539 624 647 l 624 63 m 183 204 q 216 104 183 136 q 299 72 249 72 q 406 102 347 72 q 521 183 465 132 l 513 154 l 513 340 l 525 328 l 360 328 q 222 298 261 328 q 183 204 183 268 m 372 1053 q 468 1031 426 1053 q 534 967 510 1008 q 560 874 558 926 l 489 865 q 451 943 483 914 q 369 972 418 972 q 290 945 321 972 q 256 871 260 918 l 188 868 q 210 964 188 922 q 275 1029 233 1006 q 372 1053 317 1053 z "},"ā":{"ha":761,"x_min":71,"x_max":733,"o":"m 624 63 l 606 88 l 733 63 l 733 1 l 539 -7 l 522 126 l 532 122 q 400 22 471 56 q 263 -12 329 -12 q 126 39 182 -12 q 71 194 71 90 q 106 320 71 276 q 201 382 140 364 q 343 400 263 400 l 525 400 l 513 386 l 513 519 q 472 628 513 596 q 361 661 432 661 q 281 653 324 661 q 192 629 239 646 l 208 647 l 194 521 l 121 521 l 110 693 q 258 733 189 719 q 386 746 328 746 q 560 697 497 746 q 624 539 624 647 l 624 63 m 183 204 q 216 104 183 136 q 299 72 249 72 q 406 102 347 72 q 521 183 465 132 l 513 154 l 513 340 l 525 328 l 360 328 q 222 298 261 328 q 183 204 183 268 m 558 1014 l 558 932 l 189 932 l 189 1014 l 558 1014 z "},"ą":{"ha":761,"x_min":71,"x_max":733,"o":"m 624 63 l 606 88 l 733 63 l 733 1 l 539 -7 l 522 126 l 532 122 q 400 22 471 56 q 263 -12 329 -12 q 126 39 182 -12 q 71 194 71 90 q 106 320 71 276 q 201 382 140 364 q 343 400 263 400 l 525 400 l 513 386 l 513 519 q 472 628 513 596 q 361 661 432 661 q 281 653 324 661 q 192 629 239 646 l 208 647 l 194 521 l 121 521 l 110 693 q 258 733 189 719 q 386 746 328 746 q 560 697 497 746 q 624 539 624 647 l 624 63 m 183 204 q 216 104 183 136 q 299 72 249 72 q 406 102 347 72 q 521 183 465 132 l 513 154 l 513 340 l 525 328 l 360 328 q 222 298 261 328 q 183 204 183 268 m 538 -306 q 422 -270 465 -306 q 378 -176 378 -235 q 403 -91 378 -135 q 480 -10 429 -47 q 607 53 531 28 l 621 0 q 503 -72 543 -29 q 463 -153 463 -114 q 492 -208 463 -186 q 569 -231 521 -231 q 596 -228 582 -231 q 624 -224 610 -226 l 632 -290 q 583 -301 606 -297 q 538 -306 560 -306 z "},"å":{"ha":761,"x_min":71,"x_max":733,"o":"m 624 63 l 606 88 l 733 63 l 733 1 l 539 -7 l 522 126 l 532 122 q 400 22 471 56 q 263 -12 329 -12 q 126 39 182 -12 q 71 194 71 90 q 106 320 71 276 q 201 382 140 364 q 343 400 263 400 l 525 400 l 513 386 l 513 519 q 472 628 513 596 q 361 661 432 661 q 281 653 324 661 q 192 629 239 646 l 208 647 l 194 521 l 121 521 l 110 693 q 258 733 189 719 q 386 746 328 746 q 560 697 497 746 q 624 539 624 647 l 624 63 m 183 204 q 216 104 183 136 q 299 72 249 72 q 406 102 347 72 q 521 183 465 132 l 513 154 l 513 340 l 525 328 l 360 328 q 222 298 261 328 q 183 204 183 268 m 372 860 q 297 876 331 860 q 245 922 264 892 q 226 992 226 951 q 245 1063 226 1032 q 298 1110 264 1093 q 375 1128 332 1128 q 450 1112 418 1128 q 501 1066 482 1096 q 521 996 521 1036 q 502 925 521 956 q 450 877 483 894 q 372 860 417 860 m 372 917 q 428 939 408 917 q 447 994 447 961 q 428 1049 447 1028 q 374 1071 410 1071 q 319 1049 338 1071 q 300 993 300 1026 q 319 938 300 960 q 372 917 338 917 z "},"ǻ":{"ha":761,"x_min":71,"x_max":733,"o":"m 624 63 l 606 88 l 733 63 l 733 1 l 539 -7 l 522 126 l 532 122 q 400 22 471 56 q 263 -12 329 -12 q 126 39 182 -12 q 71 194 71 90 q 106 320 71 276 q 201 382 140 364 q 343 400 263 400 l 525 400 l 513 386 l 513 519 q 472 628 513 596 q 361 661 432 661 q 281 653 324 661 q 192 629 239 646 l 208 647 l 194 521 l 121 521 l 110 693 q 258 733 189 719 q 386 746 328 746 q 560 697 497 746 q 624 539 624 647 l 624 63 m 183 204 q 216 104 183 136 q 299 72 249 72 q 406 102 347 72 q 521 183 465 132 l 513 154 l 513 340 l 525 328 l 360 328 q 222 298 261 328 q 183 204 183 268 m 232 1072 l 199 1136 l 483 1288 l 531 1193 l 232 1072 m 372 808 q 298 824 331 808 q 247 870 265 840 q 228 940 228 900 q 247 1011 228 981 q 299 1059 265 1042 q 376 1076 332 1076 q 451 1060 419 1076 q 502 1015 483 1044 q 521 944 521 985 q 502 874 521 904 q 451 826 483 843 q 372 808 418 808 m 374 865 q 429 888 410 865 q 449 943 449 910 q 429 998 449 976 q 375 1019 410 1019 q 319 997 339 1019 q 300 942 300 975 q 319 887 300 908 q 374 865 338 865 z "},"ã":{"ha":761,"x_min":71,"x_max":733,"o":"m 624 63 l 606 88 l 733 63 l 733 1 l 539 -7 l 522 126 l 532 122 q 400 22 471 56 q 263 -12 329 -12 q 126 39 182 -12 q 71 194 71 90 q 106 320 71 276 q 201 382 140 364 q 343 400 263 400 l 525 400 l 513 386 l 513 519 q 472 628 513 596 q 361 661 432 661 q 281 653 324 661 q 192 629 239 646 l 208 647 l 194 521 l 121 521 l 110 693 q 258 733 189 719 q 386 746 328 746 q 560 697 497 746 q 624 539 624 647 l 624 63 m 183 204 q 216 104 183 136 q 299 72 249 72 q 406 102 347 72 q 521 183 465 132 l 513 154 l 513 340 l 525 328 l 360 328 q 222 298 261 328 q 183 204 183 268 m 469 901 q 401 919 432 901 q 340 953 369 936 q 279 971 311 971 q 233 955 254 971 q 193 904 213 939 l 140 926 q 199 1024 165 993 q 276 1056 233 1056 q 345 1038 314 1056 q 406 1003 376 1021 q 467 986 436 986 q 513 1003 492 986 q 554 1054 535 1019 l 606 1032 q 547 933 581 965 q 469 901 513 901 z "}}}
